%TF.GenerationSoftware,KiCad,Pcbnew,9.0.7-9.0.7~ubuntu24.04.1*%
%TF.CreationDate,2026-02-19T19:46:41+05:30*%
%TF.ProjectId,Arduino-nano-compatible-shield,41726475-696e-46f2-9d6e-616e6f2d636f,rev?*%
%TF.SameCoordinates,Original*%
%TF.FileFunction,Copper,L1,Top*%
%TF.FilePolarity,Positive*%
%FSLAX46Y46*%
G04 Gerber Fmt 4.6, Leading zero omitted, Abs format (unit mm)*
G04 Created by KiCad (PCBNEW 9.0.7-9.0.7~ubuntu24.04.1) date 2026-02-19 19:46:41*
%MOMM*%
%LPD*%
G01*
G04 APERTURE LIST*
G04 Aperture macros list*
%AMRoundRect*
0 Rectangle with rounded corners*
0 $1 Rounding radius*
0 $2 $3 $4 $5 $6 $7 $8 $9 X,Y pos of 4 corners*
0 Add a 4 corners polygon primitive as box body*
4,1,4,$2,$3,$4,$5,$6,$7,$8,$9,$2,$3,0*
0 Add four circle primitives for the rounded corners*
1,1,$1+$1,$2,$3*
1,1,$1+$1,$4,$5*
1,1,$1+$1,$6,$7*
1,1,$1+$1,$8,$9*
0 Add four rect primitives between the rounded corners*
20,1,$1+$1,$2,$3,$4,$5,0*
20,1,$1+$1,$4,$5,$6,$7,0*
20,1,$1+$1,$6,$7,$8,$9,0*
20,1,$1+$1,$8,$9,$2,$3,0*%
G04 Aperture macros list end*
%TA.AperFunction,ComponentPad*%
%ADD10C,1.600000*%
%TD*%
%TA.AperFunction,ComponentPad*%
%ADD11RoundRect,0.250000X-0.550000X0.550000X-0.550000X-0.550000X0.550000X-0.550000X0.550000X0.550000X0*%
%TD*%
%TA.AperFunction,ComponentPad*%
%ADD12R,1.700000X1.700000*%
%TD*%
%TA.AperFunction,ComponentPad*%
%ADD13C,1.700000*%
%TD*%
%TA.AperFunction,ComponentPad*%
%ADD14R,2.000000X2.000000*%
%TD*%
%TA.AperFunction,ComponentPad*%
%ADD15C,2.000000*%
%TD*%
%TA.AperFunction,ComponentPad*%
%ADD16RoundRect,0.250000X-0.550000X-0.550000X0.550000X-0.550000X0.550000X0.550000X-0.550000X0.550000X0*%
%TD*%
%TA.AperFunction,ComponentPad*%
%ADD17R,2.000000X1.905000*%
%TD*%
%TA.AperFunction,ComponentPad*%
%ADD18O,2.000000X1.905000*%
%TD*%
%TA.AperFunction,ComponentPad*%
%ADD19R,1.800000X1.800000*%
%TD*%
%TA.AperFunction,ComponentPad*%
%ADD20C,1.800000*%
%TD*%
%TA.AperFunction,ComponentPad*%
%ADD21R,1.650000X1.650000*%
%TD*%
%TA.AperFunction,ComponentPad*%
%ADD22C,1.650000*%
%TD*%
%TA.AperFunction,ComponentPad*%
%ADD23R,1.600000X1.600000*%
%TD*%
%TA.AperFunction,ComponentPad*%
%ADD24O,1.600000X1.600000*%
%TD*%
%TA.AperFunction,ViaPad*%
%ADD25C,0.500000*%
%TD*%
%TA.AperFunction,ViaPad*%
%ADD26C,0.600000*%
%TD*%
%TA.AperFunction,Conductor*%
%ADD27C,0.200000*%
%TD*%
%TA.AperFunction,Conductor*%
%ADD28C,1.500000*%
%TD*%
%TA.AperFunction,Conductor*%
%ADD29C,0.250000*%
%TD*%
%TA.AperFunction,Conductor*%
%ADD30C,1.000000*%
%TD*%
G04 APERTURE END LIST*
D10*
%TO.P,R1,1*%
%TO.N,Net-(A1-D10)*%
X138800000Y-93200000D03*
%TO.P,R1,2*%
%TO.N,Net-(BZ1-+)*%
X141340000Y-93200000D03*
%TD*%
D11*
%TO.P,C7,1*%
%TO.N,VIN*%
X112000000Y-102097349D03*
D10*
%TO.P,C7,2*%
%TO.N,GND*%
X112000000Y-105597349D03*
%TD*%
%TO.P,C3,1*%
%TO.N,VIN*%
X109500000Y-110000000D03*
%TO.P,C3,2*%
%TO.N,GND*%
X109500000Y-112500000D03*
%TD*%
%TO.P,C1,1*%
%TO.N,+5V*%
X109000000Y-78000000D03*
%TO.P,C1,2*%
%TO.N,GND*%
X111500000Y-78000000D03*
%TD*%
D12*
%TO.P,J8,1,Pin_1*%
%TO.N,+5V*%
X130500000Y-70750000D03*
D13*
%TO.P,J8,2,Pin_2*%
%TO.N,/A3*%
X127960000Y-70750000D03*
%TO.P,J8,3,Pin_3*%
%TO.N,/A6*%
X125420000Y-70750000D03*
%TO.P,J8,4,Pin_4*%
%TO.N,GND*%
X122880000Y-70750000D03*
%TD*%
D14*
%TO.P,BZ1,1,+*%
%TO.N,Net-(BZ1-+)*%
X145250000Y-89300000D03*
D15*
%TO.P,BZ1,2,-*%
%TO.N,GND*%
X145250000Y-81700000D03*
%TD*%
D16*
%TO.P,C2,1*%
%TO.N,+5V*%
X100750000Y-82750000D03*
D10*
%TO.P,C2,2*%
%TO.N,GND*%
X104250000Y-82750000D03*
%TD*%
D12*
%TO.P,J10,1,Pin_1*%
%TO.N,+5V*%
X100500000Y-74750000D03*
D13*
%TO.P,J10,2,Pin_2*%
%TO.N,GND*%
X103040000Y-74750000D03*
%TO.P,J10,3,Pin_3*%
%TO.N,/D9*%
X105580000Y-74750000D03*
%TD*%
D10*
%TO.P,C4,1*%
%TO.N,+5V*%
X114250000Y-110000000D03*
%TO.P,C4,2*%
%TO.N,GND*%
X114250000Y-112500000D03*
%TD*%
D12*
%TO.P,J7,1,Pin_1*%
%TO.N,+5V*%
X153000000Y-121080000D03*
D13*
%TO.P,J7,2,Pin_2*%
%TO.N,GND*%
X153000000Y-118540000D03*
%TO.P,J7,3,Pin_3*%
%TO.N,/D11*%
X153000000Y-116000000D03*
%TO.P,J7,4,Pin_4*%
%TO.N,/D12*%
X153000000Y-113460000D03*
%TD*%
D17*
%TO.P,U2,1,VI*%
%TO.N,VIN*%
X112450000Y-96040000D03*
D18*
%TO.P,U2,2,GND*%
%TO.N,GND*%
X112450000Y-93500000D03*
%TO.P,U2,3,VO*%
%TO.N,+5V*%
X112450000Y-90960000D03*
%TD*%
D12*
%TO.P,J4,1,Pin_1*%
%TO.N,+5V*%
X140750000Y-70750000D03*
D13*
%TO.P,J4,2,Pin_2*%
%TO.N,/A0*%
X138210000Y-70750000D03*
%TO.P,J4,3,Pin_3*%
%TO.N,GND*%
X135670000Y-70750000D03*
%TD*%
D10*
%TO.P,C5,1*%
%TO.N,GND*%
X100900000Y-114750000D03*
%TO.P,C5,2*%
%TO.N,VIN*%
X100900000Y-112250000D03*
%TD*%
%TO.P,C6,1*%
%TO.N,GND*%
X149500000Y-76750000D03*
%TO.P,C6,2*%
%TO.N,+5V*%
X152000000Y-76750000D03*
%TD*%
%TO.P,C8,1*%
%TO.N,VIN*%
X104250000Y-112250000D03*
%TO.P,C8,2*%
%TO.N,GND*%
X104250000Y-114750000D03*
%TD*%
D19*
%TO.P,D1,1,K*%
%TO.N,GND*%
X111750000Y-83500000D03*
D20*
%TO.P,D1,2,A*%
%TO.N,Net-(A1-SCK)*%
X114290000Y-83500000D03*
%TD*%
D16*
%TO.P,U1,1,EN1\u002C2*%
%TO.N,/D5*%
X123020000Y-90910000D03*
D10*
%TO.P,U1,2,1A*%
%TO.N,/D2*%
X123020000Y-93450000D03*
%TO.P,U1,3,1Y*%
%TO.N,Net-(J1-Pin_1)*%
X123020000Y-95990000D03*
%TO.P,U1,4,GND*%
%TO.N,GND*%
X123020000Y-98530000D03*
%TO.P,U1,5,GND*%
X123020000Y-101070000D03*
%TO.P,U1,6,2Y*%
%TO.N,Net-(J1-Pin_2)*%
X123020000Y-103610000D03*
%TO.P,U1,7,2A*%
%TO.N,/D7*%
X123020000Y-106150000D03*
%TO.P,U1,8,VCC2*%
%TO.N,VIN*%
X123020000Y-108690000D03*
%TO.P,U1,9,EN3\u002C4*%
%TO.N,/D3*%
X130640000Y-108690000D03*
%TO.P,U1,10,3A*%
%TO.N,/D8*%
X130640000Y-106150000D03*
%TO.P,U1,11,3Y*%
%TO.N,Net-(J2-Pin_1)*%
X130640000Y-103610000D03*
%TO.P,U1,12,GND*%
%TO.N,GND*%
X130640000Y-101070000D03*
%TO.P,U1,13,GND*%
X130640000Y-98530000D03*
%TO.P,U1,14,4Y*%
%TO.N,Net-(J2-Pin_2)*%
X130640000Y-95990000D03*
%TO.P,U1,15,4A*%
%TO.N,/D4*%
X130640000Y-93450000D03*
%TO.P,U1,16,VCC1*%
%TO.N,+5V*%
X130640000Y-90910000D03*
%TD*%
D12*
%TO.P,J6,1,Pin_1*%
%TO.N,+5V*%
X151750000Y-70750000D03*
D13*
%TO.P,J6,2,Pin_2*%
%TO.N,/A2*%
X149210000Y-70750000D03*
%TO.P,J6,3,Pin_3*%
%TO.N,GND*%
X146670000Y-70750000D03*
%TD*%
D12*
%TO.P,J9,1,Pin_1*%
%TO.N,+5V*%
X100500000Y-71000000D03*
D13*
%TO.P,J9,2,Pin_2*%
%TO.N,GND*%
X103040000Y-71000000D03*
%TO.P,J9,3,Pin_3*%
%TO.N,/D6*%
X105580000Y-71000000D03*
%TD*%
D21*
%TO.P,J1,1,Pin_1*%
%TO.N,Net-(J1-Pin_1)*%
X102750000Y-107040000D03*
D22*
%TO.P,J1,2,Pin_2*%
%TO.N,Net-(J1-Pin_2)*%
X102750000Y-101960000D03*
%TD*%
D21*
%TO.P,J3,1,Pin_1*%
%TO.N,VIN*%
X102750000Y-95750000D03*
D22*
%TO.P,J3,2,Pin_2*%
%TO.N,GND*%
X102750000Y-90670000D03*
%TD*%
D21*
%TO.P,J2,1,Pin_1*%
%TO.N,Net-(J2-Pin_1)*%
X149000000Y-101960000D03*
D22*
%TO.P,J2,2,Pin_2*%
%TO.N,Net-(J2-Pin_2)*%
X149000000Y-107040000D03*
%TD*%
D12*
%TO.P,J5,1,Pin_1*%
%TO.N,+5V*%
X115250000Y-71000000D03*
D13*
%TO.P,J5,2,Pin_2*%
%TO.N,/A1*%
X112710000Y-71000000D03*
%TO.P,J5,3,Pin_3*%
%TO.N,GND*%
X110170000Y-71000000D03*
%TD*%
D23*
%TO.P,A1,1,TX1*%
%TO.N,unconnected-(A1-TX1-Pad1)*%
X134500000Y-116500000D03*
D24*
%TO.P,A1,2,RX1*%
%TO.N,unconnected-(A1-RX1-Pad2)*%
X134500000Y-113960000D03*
%TO.P,A1,3,~{RESET}*%
%TO.N,unconnected-(A1-~{RESET}-Pad3)*%
X134500000Y-111420000D03*
%TO.P,A1,4,GND*%
%TO.N,GND*%
X134500000Y-108880000D03*
%TO.P,A1,5,D2*%
%TO.N,/D2*%
X134500000Y-106340000D03*
%TO.P,A1,6,D3*%
%TO.N,/D3*%
X134500000Y-103800000D03*
%TO.P,A1,7,D4*%
%TO.N,/D4*%
X134500000Y-101260000D03*
%TO.P,A1,8,D5*%
%TO.N,/D5*%
X134500000Y-98720000D03*
%TO.P,A1,9,D6*%
%TO.N,/D6*%
X134500000Y-96180000D03*
%TO.P,A1,10,D7*%
%TO.N,/D7*%
X134500000Y-93640000D03*
%TO.P,A1,11,D8*%
%TO.N,/D8*%
X134500000Y-91100000D03*
%TO.P,A1,12,D9*%
%TO.N,/D9*%
X134500000Y-88560000D03*
%TO.P,A1,13,D10*%
%TO.N,Net-(A1-D10)*%
X134500000Y-86020000D03*
%TO.P,A1,14,MOSI*%
%TO.N,/D11*%
X134500000Y-83480000D03*
%TO.P,A1,15,MISO*%
%TO.N,/D12*%
X134500000Y-80940000D03*
%TO.P,A1,16,SCK*%
%TO.N,Net-(A1-SCK)*%
X119260000Y-80940000D03*
%TO.P,A1,17,3V3*%
%TO.N,unconnected-(A1-3V3-Pad17)*%
X119260000Y-83480000D03*
%TO.P,A1,18,AREF*%
%TO.N,unconnected-(A1-AREF-Pad18)*%
X119260000Y-86020000D03*
%TO.P,A1,19,A0*%
%TO.N,/A0*%
X119260000Y-88560000D03*
%TO.P,A1,20,A1*%
%TO.N,/A1*%
X119260000Y-91100000D03*
%TO.P,A1,21,A2*%
%TO.N,/A2*%
X119260000Y-93640000D03*
%TO.P,A1,22,A3*%
%TO.N,/A3*%
X119260000Y-96180000D03*
%TO.P,A1,23,SDA/A4*%
%TO.N,/A4*%
X119260000Y-98720000D03*
%TO.P,A1,24,SCL/A5*%
%TO.N,/A5*%
X119260000Y-101260000D03*
%TO.P,A1,25,A6*%
%TO.N,/A6*%
X119260000Y-103800000D03*
%TO.P,A1,26,A7*%
%TO.N,unconnected-(A1-A7-Pad26)*%
X119260000Y-106340000D03*
%TO.P,A1,27,+5V*%
%TO.N,+5V*%
X119260000Y-108880000D03*
%TO.P,A1,28,~{RESET}*%
%TO.N,unconnected-(A1-~{RESET}-Pad28)*%
X119260000Y-111420000D03*
%TO.P,A1,29,GND*%
%TO.N,GND*%
X119260000Y-113960000D03*
%TO.P,A1,30,VIN*%
%TO.N,unconnected-(A1-VIN-Pad30)*%
X119260000Y-116500000D03*
%TD*%
D12*
%TO.P,J11,1,Pin_1*%
%TO.N,+5V*%
X113080000Y-120750000D03*
D13*
%TO.P,J11,2,Pin_2*%
%TO.N,GND*%
X110540000Y-120750000D03*
%TO.P,J11,3,Pin_3*%
%TO.N,/A5*%
X108000000Y-120750000D03*
%TO.P,J11,4,Pin_4*%
%TO.N,/A4*%
X105460000Y-120750000D03*
%TD*%
D25*
%TO.N,GND*%
X124859409Y-94511591D03*
D26*
%TO.N,/A2*%
X119375735Y-70224265D03*
%TO.N,/A0*%
X119400000Y-69400000D03*
D25*
%TO.N,/D3*%
X137400000Y-104800000D03*
%TO.N,Net-(J1-Pin_1)*%
X125200000Y-106200000D03*
%TD*%
D27*
%TO.N,Net-(BZ1-+)*%
X141340000Y-93200000D02*
X145240000Y-89300000D01*
X145240000Y-89300000D02*
X145250000Y-89300000D01*
%TO.N,Net-(A1-D10)*%
X138800000Y-93200000D02*
X138800000Y-90320000D01*
X138800000Y-90320000D02*
X134500000Y-86020000D01*
D28*
%TO.N,GND*%
X122880000Y-70750000D02*
X120829000Y-72801000D01*
X110499000Y-84751000D02*
X111750000Y-83500000D01*
X122880000Y-70750000D02*
X122880000Y-87964602D01*
D29*
X131766000Y-102196000D02*
X131766000Y-103214306D01*
D28*
X123020000Y-98530000D02*
X123020000Y-101070000D01*
D30*
X110540000Y-120750000D02*
X109500000Y-119710000D01*
D29*
X135626000Y-105873595D02*
X135626000Y-107754000D01*
D28*
X110768919Y-72801000D02*
X110170000Y-72202081D01*
D30*
X109500000Y-119710000D02*
X109500000Y-112500000D01*
D28*
X122880000Y-87964602D02*
X124771000Y-89855602D01*
X120829000Y-72801000D02*
X110768919Y-72801000D01*
D29*
X131766000Y-103214306D02*
X133765694Y-105214000D01*
X135626000Y-107754000D02*
X134500000Y-108880000D01*
X133765694Y-105214000D02*
X134966405Y-105214000D01*
D28*
X110499000Y-91748456D02*
X110499000Y-84751000D01*
X112450000Y-93500000D02*
X112250544Y-93500000D01*
X110170000Y-72202081D02*
X110170000Y-71000000D01*
X124771000Y-89855602D02*
X124771000Y-96779000D01*
X112250544Y-93500000D02*
X110499000Y-91748456D01*
D30*
X130640000Y-101070000D02*
X130640000Y-98530000D01*
D29*
X130640000Y-101070000D02*
X131766000Y-102196000D01*
D28*
X124771000Y-96779000D02*
X123020000Y-98530000D01*
D29*
X134966405Y-105214000D02*
X135626000Y-105873595D01*
D27*
%TO.N,/A2*%
X137732240Y-71900000D02*
X148060000Y-71900000D01*
X135394900Y-68502000D02*
X137059000Y-70166100D01*
X148060000Y-71900000D02*
X149210000Y-70750000D01*
X137059000Y-71226760D02*
X137732240Y-71900000D01*
X119424262Y-70224265D02*
X121146527Y-68502000D01*
X121146527Y-68502000D02*
X135394900Y-68502000D01*
X137059000Y-70166100D02*
X137059000Y-71226760D01*
X119375735Y-70224265D02*
X119424262Y-70224265D01*
%TO.N,/A0*%
X119400000Y-69000000D02*
X119400000Y-69400000D01*
X120400000Y-68101000D02*
X120299000Y-68101000D01*
X138210000Y-70750000D02*
X135630000Y-68170000D01*
X135630000Y-68170000D02*
X135561000Y-68101000D01*
X135561000Y-68101000D02*
X120400000Y-68101000D01*
X120299000Y-68101000D02*
X119400000Y-69000000D01*
%TO.N,/D4*%
X134043950Y-89999000D02*
X134956050Y-89999000D01*
X130640000Y-93450000D02*
X130640000Y-93402950D01*
X135601000Y-90643950D02*
X135601000Y-100159000D01*
X130640000Y-93402950D02*
X134043950Y-89999000D01*
X134956050Y-89999000D02*
X135601000Y-90643950D01*
X135601000Y-100159000D02*
X134500000Y-101260000D01*
D29*
%TO.N,/D8*%
X129514000Y-98063595D02*
X130461595Y-97116000D01*
X131106405Y-97116000D02*
X132400000Y-95822405D01*
X130640000Y-106150000D02*
X129514000Y-105024000D01*
X129514000Y-105024000D02*
X129514000Y-98063595D01*
X132400000Y-95822405D02*
X132400000Y-93200000D01*
X130461595Y-97116000D02*
X131106405Y-97116000D01*
X132400000Y-93200000D02*
X134500000Y-91100000D01*
%TO.N,/D3*%
X137000000Y-104800000D02*
X136000000Y-103800000D01*
X137400000Y-104800000D02*
X137000000Y-104800000D01*
X136000000Y-103800000D02*
X134500000Y-103800000D01*
D28*
%TO.N,VIN*%
X112160000Y-95750000D02*
X112450000Y-96040000D01*
X98800000Y-99700000D02*
X98800000Y-110600000D01*
X104250000Y-112250000D02*
X107250000Y-112250000D01*
X112450000Y-96040000D02*
X112450000Y-101647349D01*
X119985288Y-118251000D02*
X118534712Y-118251000D01*
X99250000Y-110600000D02*
X100900000Y-112250000D01*
X102750000Y-95750000D02*
X98800000Y-99700000D01*
X102750000Y-95750000D02*
X112160000Y-95750000D01*
X118534712Y-118251000D02*
X116049349Y-115765637D01*
X98800000Y-110600000D02*
X99250000Y-110600000D01*
X112450000Y-101647349D02*
X112000000Y-102097349D01*
X116049349Y-115765637D02*
X116049349Y-106146698D01*
X116049349Y-106146698D02*
X112000000Y-102097349D01*
X100900000Y-112250000D02*
X104250000Y-112250000D01*
X123020000Y-108690000D02*
X123020000Y-115216288D01*
X123020000Y-115216288D02*
X119985288Y-118251000D01*
X107250000Y-112250000D02*
X109500000Y-110000000D01*
%TO.N,Net-(J1-Pin_1)*%
X120800000Y-120000000D02*
X125200000Y-115600000D01*
X117000000Y-120000000D02*
X120800000Y-120000000D01*
X110264288Y-107040000D02*
X111251000Y-108026712D01*
X103058349Y-107348349D02*
X102750000Y-107040000D01*
X111251000Y-108026712D02*
X111251000Y-114251000D01*
X125200000Y-115600000D02*
X125200000Y-106200000D01*
X102750000Y-107040000D02*
X110264288Y-107040000D01*
X111251000Y-114251000D02*
X117000000Y-120000000D01*
%TO.N,Net-(J2-Pin_1)*%
X132391000Y-116609000D02*
X132391000Y-105361000D01*
X133800000Y-118800000D02*
X132000000Y-117000000D01*
X137200000Y-118800000D02*
X133800000Y-118800000D01*
X132000000Y-117000000D02*
X132391000Y-116609000D01*
X132391000Y-105361000D02*
X130640000Y-103610000D01*
X149000000Y-101960000D02*
X147200000Y-103760000D01*
X147200000Y-108800000D02*
X137200000Y-118800000D01*
X147200000Y-103760000D02*
X147200000Y-108800000D01*
%TO.N,Net-(J2-Pin_2)*%
X127800000Y-115400000D02*
X133000000Y-120600000D01*
X129810000Y-95990000D02*
X127800000Y-98000000D01*
X149000000Y-109600000D02*
X149000000Y-107040000D01*
X130640000Y-95990000D02*
X129810000Y-95990000D01*
X138000000Y-120600000D02*
X149000000Y-109600000D01*
X133000000Y-120600000D02*
X138000000Y-120600000D01*
X127800000Y-98000000D02*
X127800000Y-115400000D01*
%TD*%
%TA.AperFunction,Conductor*%
%TO.N,+5V*%
G36*
X113486359Y-105356740D02*
G01*
X113508500Y-105374323D01*
X114762530Y-106628353D01*
X114796015Y-106689676D01*
X114798849Y-106716034D01*
X114798849Y-111140233D01*
X114779164Y-111207272D01*
X114726360Y-111253027D01*
X114657202Y-111262971D01*
X114636532Y-111258164D01*
X114554542Y-111231524D01*
X114554535Y-111231523D01*
X114453443Y-111215511D01*
X114352352Y-111199500D01*
X114147648Y-111199500D01*
X114123329Y-111203351D01*
X113945465Y-111231522D01*
X113750776Y-111294781D01*
X113568386Y-111387715D01*
X113402786Y-111508028D01*
X113258028Y-111652786D01*
X113137715Y-111818386D01*
X113044781Y-112000776D01*
X112981522Y-112195465D01*
X112949500Y-112397648D01*
X112949500Y-112602351D01*
X112981522Y-112804534D01*
X113044781Y-112999223D01*
X113102643Y-113112781D01*
X113118427Y-113143760D01*
X113137715Y-113181613D01*
X113258028Y-113347213D01*
X113402786Y-113491971D01*
X113551306Y-113599875D01*
X113568390Y-113612287D01*
X113680655Y-113669489D01*
X113750776Y-113705218D01*
X113750778Y-113705218D01*
X113750781Y-113705220D01*
X113836356Y-113733025D01*
X113945465Y-113768477D01*
X114046557Y-113784488D01*
X114147648Y-113800500D01*
X114147649Y-113800500D01*
X114352351Y-113800500D01*
X114352352Y-113800500D01*
X114554534Y-113768477D01*
X114636533Y-113741833D01*
X114706371Y-113739838D01*
X114766204Y-113775918D01*
X114797033Y-113838619D01*
X114798849Y-113859765D01*
X114798849Y-115731012D01*
X114779164Y-115798051D01*
X114726360Y-115843806D01*
X114657202Y-115853750D01*
X114593646Y-115824725D01*
X114587168Y-115818693D01*
X112537819Y-113769344D01*
X112504334Y-113708021D01*
X112501500Y-113681663D01*
X112501500Y-107928289D01*
X112470709Y-107733885D01*
X112437274Y-107630983D01*
X112409884Y-107546687D01*
X112409882Y-107546684D01*
X112409882Y-107546682D01*
X112320523Y-107371306D01*
X112308836Y-107355220D01*
X112204828Y-107212066D01*
X112091645Y-107098883D01*
X112058160Y-107037560D01*
X112063144Y-106967868D01*
X112105016Y-106911935D01*
X112159926Y-106888729D01*
X112304534Y-106865826D01*
X112499219Y-106802569D01*
X112681610Y-106709636D01*
X112774590Y-106642081D01*
X112847213Y-106589320D01*
X112847215Y-106589317D01*
X112847219Y-106589315D01*
X112991966Y-106444568D01*
X112991968Y-106444564D01*
X112991971Y-106444562D01*
X113064098Y-106345286D01*
X113112287Y-106278959D01*
X113205220Y-106096568D01*
X113268477Y-105901883D01*
X113300500Y-105699701D01*
X113300500Y-105494997D01*
X113298346Y-105481401D01*
X113307299Y-105412112D01*
X113352293Y-105358659D01*
X113419044Y-105338017D01*
X113486359Y-105356740D01*
G37*
%TD.AperFunction*%
%TA.AperFunction,Conductor*%
G36*
X119317942Y-68020185D02*
G01*
X119363697Y-68072989D01*
X119373641Y-68142147D01*
X119344616Y-68205703D01*
X119338584Y-68212181D01*
X119031286Y-68519478D01*
X118919481Y-68631282D01*
X118919477Y-68631287D01*
X118905181Y-68656049D01*
X118905175Y-68656060D01*
X118902568Y-68660577D01*
X118840423Y-68768215D01*
X118824465Y-68827767D01*
X118819768Y-68837761D01*
X118807218Y-68851925D01*
X118795230Y-68872691D01*
X118778213Y-68889708D01*
X118778208Y-68889714D01*
X118690609Y-69020814D01*
X118690602Y-69020827D01*
X118630264Y-69166498D01*
X118630261Y-69166510D01*
X118599500Y-69321153D01*
X118599500Y-69478846D01*
X118630261Y-69633489D01*
X118630264Y-69633501D01*
X118672948Y-69736551D01*
X118680417Y-69806021D01*
X118667755Y-69842438D01*
X118666343Y-69845080D01*
X118605999Y-69990763D01*
X118605996Y-69990775D01*
X118575235Y-70145418D01*
X118575235Y-70303111D01*
X118605996Y-70457754D01*
X118605999Y-70457766D01*
X118666337Y-70603437D01*
X118666344Y-70603450D01*
X118753945Y-70734553D01*
X118753948Y-70734557D01*
X118865442Y-70846051D01*
X118865446Y-70846054D01*
X118996549Y-70933655D01*
X118996562Y-70933662D01*
X119142233Y-70994000D01*
X119142238Y-70994002D01*
X119296888Y-71024764D01*
X119296891Y-71024765D01*
X119296893Y-71024765D01*
X119454579Y-71024765D01*
X119454580Y-71024764D01*
X119609232Y-70994002D01*
X119754914Y-70933659D01*
X119886024Y-70846054D01*
X119997524Y-70734554D01*
X120085129Y-70603444D01*
X120145472Y-70457762D01*
X120164323Y-70362989D01*
X120196706Y-70301083D01*
X120198201Y-70299560D01*
X121358944Y-69138819D01*
X121420267Y-69105334D01*
X121446625Y-69102500D01*
X135094803Y-69102500D01*
X135161842Y-69122185D01*
X135182484Y-69138819D01*
X135303255Y-69259590D01*
X135336740Y-69320913D01*
X135331756Y-69390605D01*
X135289884Y-69446538D01*
X135253893Y-69465202D01*
X135151583Y-69498444D01*
X134962179Y-69594951D01*
X134790213Y-69719890D01*
X134639890Y-69870213D01*
X134514951Y-70042179D01*
X134418444Y-70231585D01*
X134352753Y-70433760D01*
X134345178Y-70481588D01*
X134319500Y-70643713D01*
X134319500Y-70856287D01*
X134352754Y-71066243D01*
X134417937Y-71266856D01*
X134418444Y-71268414D01*
X134514951Y-71457820D01*
X134639890Y-71629786D01*
X134790213Y-71780109D01*
X134962179Y-71905048D01*
X134962181Y-71905049D01*
X134962184Y-71905051D01*
X135151588Y-72001557D01*
X135353757Y-72067246D01*
X135563713Y-72100500D01*
X135563714Y-72100500D01*
X135776286Y-72100500D01*
X135776287Y-72100500D01*
X135986243Y-72067246D01*
X136188412Y-72001557D01*
X136377816Y-71905051D01*
X136412591Y-71879786D01*
X136549786Y-71780109D01*
X136549788Y-71780106D01*
X136549792Y-71780104D01*
X136568769Y-71761126D01*
X136630089Y-71727641D01*
X136699781Y-71732624D01*
X136744131Y-71761126D01*
X137247379Y-72264374D01*
X137247389Y-72264385D01*
X137251719Y-72268715D01*
X137251720Y-72268716D01*
X137363524Y-72380520D01*
X137450335Y-72430639D01*
X137450337Y-72430641D01*
X137488391Y-72452611D01*
X137500455Y-72459577D01*
X137653183Y-72500500D01*
X137811297Y-72500500D01*
X147973331Y-72500500D01*
X147973347Y-72500501D01*
X147980943Y-72500501D01*
X148139054Y-72500501D01*
X148139057Y-72500501D01*
X148291785Y-72459577D01*
X148341904Y-72430639D01*
X148428716Y-72380520D01*
X148540520Y-72268716D01*
X148540520Y-72268714D01*
X148550728Y-72258507D01*
X148550730Y-72258504D01*
X148725478Y-72083755D01*
X148786799Y-72050272D01*
X148851473Y-72053506D01*
X148893757Y-72067246D01*
X149103713Y-72100500D01*
X149103714Y-72100500D01*
X149316286Y-72100500D01*
X149316287Y-72100500D01*
X149526243Y-72067246D01*
X149728412Y-72001557D01*
X149917816Y-71905051D01*
X149952591Y-71879786D01*
X150089786Y-71780109D01*
X150089788Y-71780106D01*
X150089792Y-71780104D01*
X150240104Y-71629792D01*
X150240106Y-71629788D01*
X150240109Y-71629786D01*
X150365048Y-71457820D01*
X150365047Y-71457820D01*
X150365051Y-71457816D01*
X150461557Y-71268412D01*
X150527246Y-71066243D01*
X150560500Y-70856287D01*
X150560500Y-70643713D01*
X150527246Y-70433757D01*
X150461557Y-70231588D01*
X150365051Y-70042184D01*
X150365049Y-70042181D01*
X150365048Y-70042179D01*
X150240109Y-69870213D01*
X150089786Y-69719890D01*
X149917820Y-69594951D01*
X149728414Y-69498444D01*
X149728413Y-69498443D01*
X149728412Y-69498443D01*
X149526243Y-69432754D01*
X149526241Y-69432753D01*
X149526240Y-69432753D01*
X149364957Y-69407208D01*
X149316287Y-69399500D01*
X149103713Y-69399500D01*
X149055042Y-69407208D01*
X148893760Y-69432753D01*
X148691585Y-69498444D01*
X148502179Y-69594951D01*
X148330213Y-69719890D01*
X148179890Y-69870213D01*
X148054949Y-70042182D01*
X148050484Y-70050946D01*
X148002509Y-70101742D01*
X147934688Y-70118536D01*
X147868553Y-70095998D01*
X147829516Y-70050946D01*
X147825050Y-70042182D01*
X147700109Y-69870213D01*
X147549786Y-69719890D01*
X147377820Y-69594951D01*
X147188414Y-69498444D01*
X147188413Y-69498443D01*
X147188412Y-69498443D01*
X146986243Y-69432754D01*
X146986241Y-69432753D01*
X146986240Y-69432753D01*
X146824957Y-69407208D01*
X146776287Y-69399500D01*
X146563713Y-69399500D01*
X146515042Y-69407208D01*
X146353760Y-69432753D01*
X146151585Y-69498444D01*
X145962179Y-69594951D01*
X145790213Y-69719890D01*
X145639890Y-69870213D01*
X145514951Y-70042179D01*
X145418444Y-70231585D01*
X145352753Y-70433760D01*
X145345178Y-70481588D01*
X145319500Y-70643713D01*
X145319500Y-70856287D01*
X145352754Y-71066243D01*
X145365765Y-71106287D01*
X145375804Y-71137182D01*
X145377799Y-71207023D01*
X145341719Y-71266856D01*
X145279018Y-71297684D01*
X145257873Y-71299500D01*
X139622127Y-71299500D01*
X139555088Y-71279815D01*
X139509333Y-71227011D01*
X139499389Y-71157853D01*
X139504196Y-71137182D01*
X139527246Y-71066243D01*
X139560500Y-70856287D01*
X139560500Y-70643713D01*
X139527246Y-70433757D01*
X139461557Y-70231588D01*
X139365051Y-70042184D01*
X139365049Y-70042181D01*
X139365048Y-70042179D01*
X139240109Y-69870213D01*
X139089786Y-69719890D01*
X138917820Y-69594951D01*
X138728414Y-69498444D01*
X138728413Y-69498443D01*
X138728412Y-69498443D01*
X138526243Y-69432754D01*
X138526241Y-69432753D01*
X138526240Y-69432753D01*
X138364957Y-69407208D01*
X138316287Y-69399500D01*
X138103713Y-69399500D01*
X138075006Y-69404046D01*
X137893757Y-69432753D01*
X137851473Y-69446492D01*
X137781632Y-69448486D01*
X137725476Y-69416241D01*
X136521416Y-68212181D01*
X136487931Y-68150858D01*
X136492915Y-68081166D01*
X136534787Y-68025233D01*
X136600251Y-68000816D01*
X136609097Y-68000500D01*
X155125500Y-68000500D01*
X155192539Y-68020185D01*
X155238294Y-68072989D01*
X155249500Y-68124500D01*
X155249500Y-124125500D01*
X155229815Y-124192539D01*
X155177011Y-124238294D01*
X155125500Y-124249500D01*
X97374500Y-124249500D01*
X97307461Y-124229815D01*
X97261706Y-124177011D01*
X97250500Y-124125500D01*
X97250500Y-99601577D01*
X97549500Y-99601577D01*
X97549500Y-110698422D01*
X97580290Y-110892826D01*
X97641117Y-111080029D01*
X97718308Y-111231524D01*
X97730476Y-111255405D01*
X97846172Y-111414646D01*
X97985354Y-111553828D01*
X98144595Y-111669524D01*
X98227455Y-111711743D01*
X98319970Y-111758882D01*
X98319972Y-111758882D01*
X98319975Y-111758884D01*
X98420317Y-111791487D01*
X98507173Y-111819709D01*
X98697962Y-111849927D01*
X98761097Y-111879856D01*
X98766245Y-111884719D01*
X99747413Y-112865887D01*
X99770216Y-112897272D01*
X99787713Y-112931611D01*
X99908028Y-113097213D01*
X100052786Y-113241971D01*
X100218388Y-113362286D01*
X100271828Y-113389516D01*
X100322623Y-113437490D01*
X100339418Y-113505312D01*
X100316880Y-113571446D01*
X100271828Y-113610484D01*
X100218388Y-113637713D01*
X100052786Y-113758028D01*
X99908028Y-113902786D01*
X99787715Y-114068386D01*
X99694781Y-114250776D01*
X99631522Y-114445465D01*
X99599500Y-114647648D01*
X99599500Y-114852351D01*
X99631522Y-115054534D01*
X99694781Y-115249223D01*
X99787715Y-115431613D01*
X99908028Y-115597213D01*
X100052786Y-115741971D01*
X100192953Y-115843806D01*
X100218390Y-115862287D01*
X100321419Y-115914783D01*
X100400776Y-115955218D01*
X100400778Y-115955218D01*
X100400781Y-115955220D01*
X100505137Y-115989127D01*
X100595465Y-116018477D01*
X100696557Y-116034488D01*
X100797648Y-116050500D01*
X100797649Y-116050500D01*
X101002351Y-116050500D01*
X101002352Y-116050500D01*
X101204534Y-116018477D01*
X101399219Y-115955220D01*
X101581610Y-115862287D01*
X101675113Y-115794354D01*
X101747213Y-115741971D01*
X101747215Y-115741968D01*
X101747219Y-115741966D01*
X101891966Y-115597219D01*
X101891968Y-115597215D01*
X101891971Y-115597213D01*
X101956762Y-115508034D01*
X102012287Y-115431610D01*
X102105220Y-115249219D01*
X102168477Y-115054534D01*
X102200500Y-114852352D01*
X102200500Y-114647648D01*
X102168477Y-114445466D01*
X102105220Y-114250781D01*
X102105218Y-114250778D01*
X102105218Y-114250776D01*
X102062947Y-114167816D01*
X102012287Y-114068390D01*
X102004556Y-114057749D01*
X101891971Y-113902786D01*
X101747213Y-113758028D01*
X101701502Y-113724818D01*
X101658836Y-113669489D01*
X101652857Y-113599875D01*
X101685462Y-113538080D01*
X101746301Y-113503723D01*
X101774387Y-113500500D01*
X103375613Y-113500500D01*
X103442652Y-113520185D01*
X103488407Y-113572989D01*
X103498351Y-113642147D01*
X103469326Y-113705703D01*
X103448498Y-113724818D01*
X103402786Y-113758028D01*
X103258028Y-113902786D01*
X103137715Y-114068386D01*
X103044781Y-114250776D01*
X102981522Y-114445465D01*
X102949500Y-114647648D01*
X102949500Y-114852351D01*
X102981522Y-115054534D01*
X103044781Y-115249223D01*
X103137715Y-115431613D01*
X103258028Y-115597213D01*
X103402786Y-115741971D01*
X103542953Y-115843806D01*
X103568390Y-115862287D01*
X103671419Y-115914783D01*
X103750776Y-115955218D01*
X103750778Y-115955218D01*
X103750781Y-115955220D01*
X103855137Y-115989127D01*
X103945465Y-116018477D01*
X104046557Y-116034488D01*
X104147648Y-116050500D01*
X104147649Y-116050500D01*
X104352351Y-116050500D01*
X104352352Y-116050500D01*
X104554534Y-116018477D01*
X104749219Y-115955220D01*
X104931610Y-115862287D01*
X105025113Y-115794354D01*
X105097213Y-115741971D01*
X105097215Y-115741968D01*
X105097219Y-115741966D01*
X105241966Y-115597219D01*
X105241968Y-115597215D01*
X105241971Y-115597213D01*
X105306762Y-115508034D01*
X105362287Y-115431610D01*
X105455220Y-115249219D01*
X105518477Y-115054534D01*
X105550500Y-114852352D01*
X105550500Y-114647648D01*
X105518477Y-114445466D01*
X105455220Y-114250781D01*
X105455218Y-114250778D01*
X105455218Y-114250776D01*
X105412947Y-114167816D01*
X105362287Y-114068390D01*
X105354556Y-114057749D01*
X105241971Y-113902786D01*
X105097213Y-113758028D01*
X105051502Y-113724818D01*
X105008836Y-113669489D01*
X105002857Y-113599875D01*
X105035462Y-113538080D01*
X105096301Y-113503723D01*
X105124387Y-113500500D01*
X107348422Y-113500500D01*
X107542826Y-113469709D01*
X107730026Y-113408884D01*
X107905405Y-113319524D01*
X108064646Y-113203828D01*
X108165483Y-113102990D01*
X108184237Y-113092749D01*
X108200205Y-113078550D01*
X108214289Y-113076339D01*
X108226803Y-113069507D01*
X108248116Y-113071031D01*
X108269230Y-113067718D01*
X108282275Y-113073474D01*
X108296495Y-113074491D01*
X108313601Y-113087296D01*
X108333154Y-113095924D01*
X108344879Y-113110710D01*
X108352429Y-113116362D01*
X108356607Y-113122299D01*
X108360471Y-113128145D01*
X108387713Y-113181610D01*
X108477431Y-113305097D01*
X108478945Y-113307387D01*
X108488440Y-113338250D01*
X108499298Y-113368681D01*
X108499450Y-113374039D01*
X108499490Y-113374167D01*
X108499457Y-113374282D01*
X108499500Y-113375761D01*
X108499500Y-119321626D01*
X108479815Y-119388665D01*
X108427011Y-119434420D01*
X108357853Y-119444364D01*
X108337185Y-119439558D01*
X108316240Y-119432753D01*
X108154957Y-119407208D01*
X108106287Y-119399500D01*
X107893713Y-119399500D01*
X107845042Y-119407208D01*
X107683760Y-119432753D01*
X107481585Y-119498444D01*
X107292179Y-119594951D01*
X107120213Y-119719890D01*
X106969890Y-119870213D01*
X106844949Y-120042182D01*
X106840484Y-120050946D01*
X106792509Y-120101742D01*
X106724688Y-120118536D01*
X106658553Y-120095998D01*
X106619516Y-120050946D01*
X106615050Y-120042182D01*
X106490109Y-119870213D01*
X106339786Y-119719890D01*
X106167820Y-119594951D01*
X105978414Y-119498444D01*
X105978413Y-119498443D01*
X105978412Y-119498443D01*
X105776243Y-119432754D01*
X105776241Y-119432753D01*
X105776240Y-119432753D01*
X105614957Y-119407208D01*
X105566287Y-119399500D01*
X105353713Y-119399500D01*
X105305042Y-119407208D01*
X105143760Y-119432753D01*
X104941585Y-119498444D01*
X104752179Y-119594951D01*
X104580213Y-119719890D01*
X104429890Y-119870213D01*
X104304951Y-120042179D01*
X104208444Y-120231585D01*
X104142753Y-120433760D01*
X104109500Y-120643713D01*
X104109500Y-120856287D01*
X104142754Y-121066243D01*
X104192618Y-121219709D01*
X104208444Y-121268414D01*
X104304951Y-121457820D01*
X104429890Y-121629786D01*
X104580213Y-121780109D01*
X104752179Y-121905048D01*
X104752181Y-121905049D01*
X104752184Y-121905051D01*
X104941588Y-122001557D01*
X105143757Y-122067246D01*
X105353713Y-122100500D01*
X105353714Y-122100500D01*
X105566286Y-122100500D01*
X105566287Y-122100500D01*
X105776243Y-122067246D01*
X105978412Y-122001557D01*
X106167816Y-121905051D01*
X106242900Y-121850500D01*
X106339786Y-121780109D01*
X106339788Y-121780106D01*
X106339792Y-121780104D01*
X106490104Y-121629792D01*
X106490106Y-121629788D01*
X106490109Y-121629786D01*
X106615048Y-121457820D01*
X106615047Y-121457820D01*
X106615051Y-121457816D01*
X106619514Y-121449054D01*
X106667488Y-121398259D01*
X106735308Y-121381463D01*
X106801444Y-121403999D01*
X106840486Y-121449056D01*
X106844951Y-121457820D01*
X106969890Y-121629786D01*
X107120213Y-121780109D01*
X107292179Y-121905048D01*
X107292181Y-121905049D01*
X107292184Y-121905051D01*
X107481588Y-122001557D01*
X107683757Y-122067246D01*
X107893713Y-122100500D01*
X107893714Y-122100500D01*
X108106286Y-122100500D01*
X108106287Y-122100500D01*
X108316243Y-122067246D01*
X108518412Y-122001557D01*
X108707816Y-121905051D01*
X108782900Y-121850500D01*
X108879786Y-121780109D01*
X108879788Y-121780106D01*
X108879792Y-121780104D01*
X109030104Y-121629792D01*
X109030106Y-121629788D01*
X109030109Y-121629786D01*
X109155048Y-121457820D01*
X109155047Y-121457820D01*
X109155051Y-121457816D01*
X109159514Y-121449054D01*
X109207488Y-121398259D01*
X109275308Y-121381463D01*
X109341444Y-121403999D01*
X109380486Y-121449056D01*
X109384951Y-121457820D01*
X109509890Y-121629786D01*
X109660213Y-121780109D01*
X109832179Y-121905048D01*
X109832181Y-121905049D01*
X109832184Y-121905051D01*
X110021588Y-122001557D01*
X110223757Y-122067246D01*
X110433713Y-122100500D01*
X110433714Y-122100500D01*
X110646286Y-122100500D01*
X110646287Y-122100500D01*
X110856243Y-122067246D01*
X111058412Y-122001557D01*
X111247816Y-121905051D01*
X111322900Y-121850500D01*
X111419786Y-121780109D01*
X111419788Y-121780106D01*
X111419792Y-121780104D01*
X111570104Y-121629792D01*
X111570106Y-121629788D01*
X111570109Y-121629786D01*
X111695048Y-121457820D01*
X111695047Y-121457820D01*
X111695051Y-121457816D01*
X111791557Y-121268412D01*
X111857246Y-121066243D01*
X111890500Y-120856287D01*
X111890500Y-120643713D01*
X111857246Y-120433757D01*
X111791557Y-120231588D01*
X111695051Y-120042184D01*
X111695049Y-120042181D01*
X111695048Y-120042179D01*
X111570109Y-119870213D01*
X111419786Y-119719890D01*
X111247820Y-119594951D01*
X111058414Y-119498444D01*
X111058413Y-119498443D01*
X111058412Y-119498443D01*
X110856243Y-119432754D01*
X110856241Y-119432753D01*
X110856240Y-119432753D01*
X110689544Y-119406351D01*
X110646287Y-119399500D01*
X110646286Y-119399500D01*
X110641475Y-119398738D01*
X110641641Y-119397683D01*
X110622148Y-119390252D01*
X110596750Y-119384727D01*
X110585431Y-119376253D01*
X110581151Y-119374622D01*
X110568496Y-119363576D01*
X110536819Y-119331899D01*
X110503334Y-119270576D01*
X110500500Y-119244218D01*
X110500500Y-115568336D01*
X110520185Y-115501297D01*
X110572989Y-115455542D01*
X110642147Y-115445598D01*
X110705703Y-115474623D01*
X110712181Y-115480655D01*
X116185355Y-120953830D01*
X116185360Y-120953834D01*
X116324250Y-121054742D01*
X116344595Y-121069524D01*
X116456345Y-121126463D01*
X116519969Y-121158882D01*
X116519971Y-121158882D01*
X116519974Y-121158884D01*
X116620318Y-121191487D01*
X116707173Y-121219709D01*
X116901578Y-121250500D01*
X116901583Y-121250500D01*
X120898422Y-121250500D01*
X121092826Y-121219709D01*
X121117629Y-121211650D01*
X121280026Y-121158884D01*
X121455405Y-121069524D01*
X121614646Y-120953828D01*
X126153829Y-116414645D01*
X126269524Y-116255405D01*
X126358884Y-116080026D01*
X126415953Y-115904385D01*
X126455389Y-115846712D01*
X126519748Y-115819513D01*
X126588594Y-115831428D01*
X126640070Y-115878672D01*
X126644368Y-115886410D01*
X126727977Y-116050500D01*
X126730476Y-116055405D01*
X126846172Y-116214646D01*
X132046172Y-121414646D01*
X132185354Y-121553828D01*
X132344595Y-121669524D01*
X132427455Y-121711743D01*
X132519970Y-121758882D01*
X132519972Y-121758882D01*
X132519975Y-121758884D01*
X132620317Y-121791487D01*
X132707173Y-121819709D01*
X132901578Y-121850500D01*
X132901583Y-121850500D01*
X138098422Y-121850500D01*
X138292826Y-121819709D01*
X138480026Y-121758884D01*
X138655405Y-121669524D01*
X138814646Y-121553828D01*
X147014761Y-113353713D01*
X151649500Y-113353713D01*
X151649500Y-113566286D01*
X151682702Y-113775918D01*
X151682754Y-113776243D01*
X151709204Y-113857648D01*
X151748444Y-113978414D01*
X151844951Y-114167820D01*
X151969890Y-114339786D01*
X152120213Y-114490109D01*
X152292182Y-114615050D01*
X152300946Y-114619516D01*
X152351742Y-114667491D01*
X152368536Y-114735312D01*
X152345998Y-114801447D01*
X152300946Y-114840484D01*
X152292182Y-114844949D01*
X152120213Y-114969890D01*
X151969890Y-115120213D01*
X151844951Y-115292179D01*
X151748444Y-115481585D01*
X151682753Y-115683760D01*
X151649500Y-115893713D01*
X151649500Y-116106286D01*
X151666662Y-116214646D01*
X151682754Y-116316243D01*
X151742599Y-116500427D01*
X151748444Y-116518414D01*
X151844951Y-116707820D01*
X151969890Y-116879786D01*
X152120213Y-117030109D01*
X152292182Y-117155050D01*
X152300946Y-117159516D01*
X152351742Y-117207491D01*
X152368536Y-117275312D01*
X152345998Y-117341447D01*
X152300946Y-117380484D01*
X152292182Y-117384949D01*
X152120213Y-117509890D01*
X151969890Y-117660213D01*
X151844951Y-117832179D01*
X151748444Y-118021585D01*
X151682753Y-118223760D01*
X151649500Y-118433713D01*
X151649500Y-118646286D01*
X151682753Y-118856239D01*
X151748444Y-119058414D01*
X151844951Y-119247820D01*
X151969890Y-119419786D01*
X152120213Y-119570109D01*
X152292179Y-119695048D01*
X152292181Y-119695049D01*
X152292184Y-119695051D01*
X152481588Y-119791557D01*
X152683757Y-119857246D01*
X152893713Y-119890500D01*
X152893714Y-119890500D01*
X153106286Y-119890500D01*
X153106287Y-119890500D01*
X153316243Y-119857246D01*
X153518412Y-119791557D01*
X153707816Y-119695051D01*
X153845596Y-119594949D01*
X153879786Y-119570109D01*
X153879788Y-119570106D01*
X153879792Y-119570104D01*
X154030104Y-119419792D01*
X154030106Y-119419788D01*
X154030109Y-119419786D01*
X154155048Y-119247820D01*
X154155047Y-119247820D01*
X154155051Y-119247816D01*
X154251557Y-119058412D01*
X154317246Y-118856243D01*
X154350500Y-118646287D01*
X154350500Y-118433713D01*
X154317246Y-118223757D01*
X154251557Y-118021588D01*
X154155051Y-117832184D01*
X154155049Y-117832181D01*
X154155048Y-117832179D01*
X154030109Y-117660213D01*
X153879786Y-117509890D01*
X153707820Y-117384951D01*
X153707115Y-117384591D01*
X153699054Y-117380485D01*
X153648259Y-117332512D01*
X153631463Y-117264692D01*
X153653999Y-117198556D01*
X153699054Y-117159515D01*
X153707816Y-117155051D01*
X153729789Y-117139086D01*
X153879786Y-117030109D01*
X153879788Y-117030106D01*
X153879792Y-117030104D01*
X154030104Y-116879792D01*
X154030106Y-116879788D01*
X154030109Y-116879786D01*
X154155048Y-116707820D01*
X154155047Y-116707820D01*
X154155051Y-116707816D01*
X154251557Y-116518412D01*
X154317246Y-116316243D01*
X154350500Y-116106287D01*
X154350500Y-115893713D01*
X154317246Y-115683757D01*
X154251557Y-115481588D01*
X154155051Y-115292184D01*
X154155049Y-115292181D01*
X154155048Y-115292179D01*
X154030109Y-115120213D01*
X153879786Y-114969890D01*
X153707820Y-114844951D01*
X153707115Y-114844591D01*
X153699054Y-114840485D01*
X153648259Y-114792512D01*
X153631463Y-114724692D01*
X153653999Y-114658556D01*
X153699054Y-114619515D01*
X153707816Y-114615051D01*
X153729789Y-114599086D01*
X153879786Y-114490109D01*
X153879788Y-114490106D01*
X153879792Y-114490104D01*
X154030104Y-114339792D01*
X154030106Y-114339788D01*
X154030109Y-114339786D01*
X154155048Y-114167820D01*
X154155047Y-114167820D01*
X154155051Y-114167816D01*
X154251557Y-113978412D01*
X154317246Y-113776243D01*
X154350500Y-113566287D01*
X154350500Y-113353713D01*
X154317246Y-113143757D01*
X154251557Y-112941588D01*
X154155051Y-112752184D01*
X154155049Y-112752181D01*
X154155048Y-112752179D01*
X154030109Y-112580213D01*
X153879786Y-112429890D01*
X153707820Y-112304951D01*
X153518414Y-112208444D01*
X153518413Y-112208443D01*
X153518412Y-112208443D01*
X153316243Y-112142754D01*
X153316241Y-112142753D01*
X153316240Y-112142753D01*
X153154957Y-112117208D01*
X153106287Y-112109500D01*
X152893713Y-112109500D01*
X152845042Y-112117208D01*
X152683760Y-112142753D01*
X152481585Y-112208444D01*
X152292179Y-112304951D01*
X152120213Y-112429890D01*
X151969890Y-112580213D01*
X151844951Y-112752179D01*
X151748444Y-112941585D01*
X151682753Y-113143760D01*
X151649500Y-113353713D01*
X147014761Y-113353713D01*
X149953828Y-110414646D01*
X150069524Y-110255405D01*
X150158884Y-110080026D01*
X150219709Y-109892826D01*
X150234049Y-109802287D01*
X150250500Y-109698422D01*
X150250500Y-107500404D01*
X150256569Y-107462086D01*
X150268518Y-107425311D01*
X150292862Y-107350389D01*
X150314770Y-107212066D01*
X150325500Y-107144324D01*
X150325500Y-106935675D01*
X150292862Y-106729610D01*
X150259961Y-106628353D01*
X150228389Y-106531184D01*
X150228387Y-106531181D01*
X150228387Y-106531179D01*
X150133669Y-106345285D01*
X150085480Y-106278959D01*
X150011035Y-106176495D01*
X149863505Y-106028965D01*
X149694714Y-105906330D01*
X149685986Y-105901883D01*
X149508820Y-105811612D01*
X149310389Y-105747137D01*
X149104324Y-105714500D01*
X149104319Y-105714500D01*
X148895681Y-105714500D01*
X148895676Y-105714500D01*
X148689609Y-105747138D01*
X148689606Y-105747138D01*
X148612818Y-105772089D01*
X148542977Y-105774084D01*
X148483144Y-105738004D01*
X148452316Y-105675303D01*
X148450500Y-105654158D01*
X148450500Y-104329335D01*
X148470185Y-104262296D01*
X148486815Y-104241658D01*
X149406655Y-103321817D01*
X149467978Y-103288333D01*
X149494336Y-103285499D01*
X149872871Y-103285499D01*
X149872872Y-103285499D01*
X149932483Y-103279091D01*
X150067331Y-103228796D01*
X150182546Y-103142546D01*
X150268796Y-103027331D01*
X150319091Y-102892483D01*
X150325500Y-102832873D01*
X150325499Y-101087128D01*
X150319091Y-101027517D01*
X150296761Y-100967648D01*
X150268797Y-100892671D01*
X150268793Y-100892664D01*
X150182547Y-100777455D01*
X150182544Y-100777452D01*
X150067335Y-100691206D01*
X150067328Y-100691202D01*
X149932482Y-100640908D01*
X149932483Y-100640908D01*
X149872883Y-100634501D01*
X149872881Y-100634500D01*
X149872873Y-100634500D01*
X149872864Y-100634500D01*
X148127129Y-100634500D01*
X148127123Y-100634501D01*
X148067516Y-100640908D01*
X147932671Y-100691202D01*
X147932664Y-100691206D01*
X147817455Y-100777452D01*
X147817452Y-100777455D01*
X147731206Y-100892664D01*
X147731202Y-100892671D01*
X147680908Y-101027517D01*
X147674501Y-101087116D01*
X147674501Y-101087123D01*
X147674500Y-101087135D01*
X147674500Y-101465663D01*
X147654815Y-101532702D01*
X147638181Y-101553344D01*
X146246174Y-102945351D01*
X146246172Y-102945354D01*
X146230674Y-102966685D01*
X146130476Y-103104594D01*
X146041117Y-103279969D01*
X145980290Y-103467173D01*
X145949500Y-103661577D01*
X145949500Y-108230664D01*
X145929815Y-108297703D01*
X145913181Y-108318345D01*
X136718345Y-117513181D01*
X136657022Y-117546666D01*
X136630664Y-117549500D01*
X135916868Y-117549500D01*
X135849829Y-117529815D01*
X135804074Y-117477011D01*
X135793579Y-117412244D01*
X135794091Y-117407483D01*
X135800500Y-117347873D01*
X135800499Y-115652128D01*
X135795299Y-115603757D01*
X135794091Y-115592516D01*
X135743797Y-115457671D01*
X135743793Y-115457664D01*
X135657547Y-115342455D01*
X135657544Y-115342452D01*
X135542335Y-115256206D01*
X135542328Y-115256202D01*
X135407482Y-115205908D01*
X135407483Y-115205908D01*
X135370560Y-115201939D01*
X135306009Y-115175201D01*
X135266160Y-115117809D01*
X135263667Y-115047984D01*
X135299319Y-114987895D01*
X135310930Y-114978331D01*
X135322540Y-114969896D01*
X135347219Y-114951966D01*
X135491966Y-114807219D01*
X135491968Y-114807215D01*
X135491971Y-114807213D01*
X135571089Y-114698314D01*
X135612287Y-114641610D01*
X135705220Y-114459219D01*
X135768477Y-114264534D01*
X135800500Y-114062352D01*
X135800500Y-113857648D01*
X135797486Y-113838619D01*
X135768477Y-113655465D01*
X135730336Y-113538080D01*
X135705220Y-113460781D01*
X135705218Y-113460778D01*
X135705218Y-113460776D01*
X135661023Y-113374039D01*
X135612287Y-113278390D01*
X135585824Y-113241966D01*
X135491971Y-113112786D01*
X135347213Y-112968028D01*
X135181614Y-112847715D01*
X135175006Y-112844348D01*
X135088917Y-112800483D01*
X135038123Y-112752511D01*
X135021328Y-112684690D01*
X135043865Y-112618555D01*
X135088917Y-112579516D01*
X135181610Y-112532287D01*
X135202770Y-112516913D01*
X135347213Y-112411971D01*
X135347215Y-112411968D01*
X135347219Y-112411966D01*
X135491966Y-112267219D01*
X135491968Y-112267215D01*
X135491971Y-112267213D01*
X135582395Y-112142753D01*
X135612287Y-112101610D01*
X135705220Y-111919219D01*
X135768477Y-111724534D01*
X135800500Y-111522352D01*
X135800500Y-111317648D01*
X135768477Y-111115466D01*
X135705220Y-110920781D01*
X135705218Y-110920778D01*
X135705218Y-110920776D01*
X135671503Y-110854607D01*
X135612287Y-110738390D01*
X135583245Y-110698417D01*
X135491971Y-110572786D01*
X135347213Y-110428028D01*
X135181614Y-110307715D01*
X135175006Y-110304348D01*
X135088917Y-110260483D01*
X135038123Y-110212511D01*
X135021328Y-110144690D01*
X135043865Y-110078555D01*
X135088917Y-110039516D01*
X135181610Y-109992287D01*
X135243193Y-109947545D01*
X135347213Y-109871971D01*
X135347215Y-109871968D01*
X135347219Y-109871966D01*
X135491966Y-109727219D01*
X135491968Y-109727215D01*
X135491971Y-109727213D01*
X135598444Y-109580663D01*
X135612287Y-109561610D01*
X135705220Y-109379219D01*
X135768477Y-109184534D01*
X135800500Y-108982352D01*
X135800500Y-108777648D01*
X135771737Y-108596048D01*
X135767715Y-108570654D01*
X135769777Y-108570327D01*
X135772784Y-108509304D01*
X135802213Y-108462376D01*
X136111857Y-108152734D01*
X136136426Y-108115965D01*
X136142193Y-108107335D01*
X136180310Y-108050287D01*
X136180311Y-108050286D01*
X136227463Y-107936452D01*
X136230629Y-107920534D01*
X136243736Y-107854645D01*
X136251500Y-107815607D01*
X136251500Y-105811988D01*
X136251499Y-105811984D01*
X136246246Y-105785573D01*
X136227463Y-105691143D01*
X136180311Y-105577309D01*
X136180310Y-105577308D01*
X136180307Y-105577302D01*
X136111858Y-105474862D01*
X136111855Y-105474858D01*
X136021637Y-105384640D01*
X136021606Y-105384611D01*
X135475771Y-104838776D01*
X135475536Y-104838347D01*
X135475110Y-104838110D01*
X135458802Y-104807700D01*
X135442286Y-104777453D01*
X135442320Y-104776966D01*
X135442090Y-104776536D01*
X135444810Y-104742150D01*
X135447270Y-104707761D01*
X135447575Y-104707206D01*
X135447601Y-104706884D01*
X135448617Y-104705315D01*
X135464750Y-104676036D01*
X135469833Y-104669351D01*
X135491966Y-104647219D01*
X135605499Y-104490952D01*
X135606302Y-104489897D01*
X135633368Y-104469952D01*
X135660015Y-104449405D01*
X135661418Y-104449284D01*
X135662551Y-104448450D01*
X135696084Y-104446306D01*
X135729628Y-104443425D01*
X135730874Y-104444082D01*
X135732278Y-104443993D01*
X135761660Y-104460326D01*
X135791423Y-104476031D01*
X135792685Y-104477275D01*
X136601263Y-105285855D01*
X136601267Y-105285858D01*
X136703710Y-105354309D01*
X136703711Y-105354309D01*
X136703715Y-105354312D01*
X136770397Y-105381932D01*
X136817548Y-105401463D01*
X136837597Y-105405451D01*
X136902624Y-105418385D01*
X136938392Y-105425501D01*
X136938394Y-105425501D01*
X136947650Y-105425501D01*
X137014689Y-105445186D01*
X137016542Y-105446400D01*
X137044497Y-105465079D01*
X137044499Y-105465080D01*
X137044505Y-105465084D01*
X137044507Y-105465085D01*
X137044511Y-105465087D01*
X137157087Y-105511717D01*
X137181087Y-105521658D01*
X137181091Y-105521658D01*
X137181092Y-105521659D01*
X137326079Y-105550500D01*
X137326082Y-105550500D01*
X137473920Y-105550500D01*
X137571462Y-105531096D01*
X137618913Y-105521658D01*
X137755495Y-105465084D01*
X137878416Y-105382951D01*
X137982951Y-105278416D01*
X138065084Y-105155495D01*
X138121658Y-105018913D01*
X138135078Y-104951446D01*
X138150500Y-104873920D01*
X138150500Y-104726079D01*
X138121659Y-104581092D01*
X138121658Y-104581091D01*
X138121658Y-104581087D01*
X138081884Y-104485064D01*
X138065087Y-104444511D01*
X138065080Y-104444498D01*
X137982951Y-104321584D01*
X137982948Y-104321580D01*
X137878419Y-104217051D01*
X137878415Y-104217048D01*
X137755501Y-104134919D01*
X137755488Y-104134912D01*
X137618917Y-104078343D01*
X137618907Y-104078340D01*
X137473920Y-104049500D01*
X137473918Y-104049500D01*
X137326082Y-104049500D01*
X137326080Y-104049500D01*
X137230950Y-104068423D01*
X137161358Y-104062196D01*
X137119077Y-104034487D01*
X136495870Y-103411280D01*
X136485859Y-103401269D01*
X136485858Y-103401267D01*
X136398733Y-103314142D01*
X136346276Y-103279091D01*
X136339591Y-103274624D01*
X136339583Y-103274617D01*
X136296292Y-103245692D01*
X136296291Y-103245691D01*
X136296286Y-103245688D01*
X136296283Y-103245686D01*
X136296280Y-103245685D01*
X136223113Y-103215379D01*
X136223110Y-103215378D01*
X136215792Y-103212347D01*
X136182452Y-103198537D01*
X136106617Y-103183453D01*
X136102453Y-103182624D01*
X136102432Y-103182619D01*
X136061611Y-103174500D01*
X136061607Y-103174500D01*
X136061606Y-103174500D01*
X135716115Y-103174500D01*
X135649076Y-103154815D01*
X135616393Y-103121428D01*
X135615151Y-103122331D01*
X135491971Y-102952786D01*
X135347213Y-102808028D01*
X135181614Y-102687715D01*
X135175006Y-102684348D01*
X135088917Y-102640483D01*
X135038123Y-102592511D01*
X135021328Y-102524690D01*
X135043865Y-102458555D01*
X135088917Y-102419516D01*
X135181610Y-102372287D01*
X135254932Y-102319016D01*
X135347213Y-102251971D01*
X135347215Y-102251968D01*
X135347219Y-102251966D01*
X135491966Y-102107219D01*
X135491968Y-102107215D01*
X135491971Y-102107213D01*
X135560021Y-102013548D01*
X135612287Y-101941610D01*
X135705220Y-101759219D01*
X135768477Y-101564534D01*
X135800500Y-101362352D01*
X135800500Y-101157648D01*
X135779889Y-101027516D01*
X135768478Y-100955472D01*
X135768477Y-100955471D01*
X135768477Y-100955466D01*
X135763825Y-100941151D01*
X135763391Y-100925940D01*
X135758074Y-100911683D01*
X135762414Y-100891728D01*
X135761832Y-100871312D01*
X135769920Y-100857225D01*
X135772926Y-100843410D01*
X135794074Y-100815159D01*
X135969713Y-100639521D01*
X135969716Y-100639520D01*
X136081520Y-100527716D01*
X136131639Y-100440904D01*
X136160577Y-100390785D01*
X136201500Y-100238057D01*
X136201500Y-100079943D01*
X136201500Y-90733009D01*
X136201501Y-90732996D01*
X136201501Y-90564895D01*
X136201501Y-90564893D01*
X136160577Y-90412165D01*
X136123457Y-90347872D01*
X136123457Y-90347871D01*
X136081522Y-90275237D01*
X136081521Y-90275236D01*
X136081520Y-90275234D01*
X135969716Y-90163430D01*
X135969715Y-90163429D01*
X135965385Y-90159099D01*
X135965374Y-90159089D01*
X135443640Y-89637355D01*
X135440402Y-89634117D01*
X135430865Y-89616644D01*
X135428147Y-89618457D01*
X135428145Y-89618454D01*
X135430863Y-89616641D01*
X135423000Y-89602236D01*
X135406931Y-89572807D01*
X135406931Y-89572796D01*
X135406927Y-89572788D01*
X135409380Y-89538566D01*
X135411915Y-89503115D01*
X135411921Y-89503105D01*
X135411922Y-89503097D01*
X135411954Y-89503053D01*
X135440415Y-89458768D01*
X135491966Y-89407219D01*
X135491968Y-89407215D01*
X135491971Y-89407213D01*
X135544732Y-89334590D01*
X135612287Y-89241610D01*
X135705220Y-89059219D01*
X135768477Y-88864534D01*
X135800500Y-88662352D01*
X135800500Y-88469097D01*
X135820185Y-88402058D01*
X135872989Y-88356303D01*
X135942147Y-88346359D01*
X136005703Y-88375384D01*
X136012181Y-88381416D01*
X138163181Y-90532416D01*
X138196666Y-90593739D01*
X138199500Y-90620097D01*
X138199500Y-91970397D01*
X138179815Y-92037436D01*
X138131800Y-92080879D01*
X138118389Y-92087712D01*
X137952786Y-92208028D01*
X137808028Y-92352786D01*
X137687715Y-92518386D01*
X137594781Y-92700776D01*
X137531522Y-92895465D01*
X137499500Y-93097648D01*
X137499500Y-93302351D01*
X137531522Y-93504534D01*
X137594781Y-93699223D01*
X137658691Y-93824653D01*
X137666638Y-93840249D01*
X137687715Y-93881613D01*
X137808028Y-94047213D01*
X137952786Y-94191971D01*
X138107749Y-94304556D01*
X138118390Y-94312287D01*
X138224526Y-94366366D01*
X138300776Y-94405218D01*
X138300778Y-94405218D01*
X138300781Y-94405220D01*
X138360119Y-94424500D01*
X138495465Y-94468477D01*
X138575820Y-94481204D01*
X138697648Y-94500500D01*
X138697649Y-94500500D01*
X138902351Y-94500500D01*
X138902352Y-94500500D01*
X139104534Y-94468477D01*
X139299219Y-94405220D01*
X139481610Y-94312287D01*
X139574590Y-94244732D01*
X139647213Y-94191971D01*
X139647215Y-94191968D01*
X139647219Y-94191966D01*
X139791966Y-94047219D01*
X139791968Y-94047215D01*
X139791971Y-94047213D01*
X139912284Y-93881614D01*
X139912285Y-93881613D01*
X139912287Y-93881610D01*
X139959516Y-93788917D01*
X140007489Y-93738123D01*
X140075310Y-93721328D01*
X140141445Y-93743865D01*
X140180483Y-93788917D01*
X140224348Y-93875006D01*
X140227715Y-93881614D01*
X140348028Y-94047213D01*
X140492786Y-94191971D01*
X140647749Y-94304556D01*
X140658390Y-94312287D01*
X140764526Y-94366366D01*
X140840776Y-94405218D01*
X140840778Y-94405218D01*
X140840781Y-94405220D01*
X140900119Y-94424500D01*
X141035465Y-94468477D01*
X141115820Y-94481204D01*
X141237648Y-94500500D01*
X141237649Y-94500500D01*
X141442351Y-94500500D01*
X141442352Y-94500500D01*
X141644534Y-94468477D01*
X141839219Y-94405220D01*
X142021610Y-94312287D01*
X142114590Y-94244732D01*
X142187213Y-94191971D01*
X142187215Y-94191968D01*
X142187219Y-94191966D01*
X142331966Y-94047219D01*
X142331968Y-94047215D01*
X142331971Y-94047213D01*
X142387613Y-93970627D01*
X142452287Y-93881610D01*
X142545220Y-93699219D01*
X142608477Y-93504534D01*
X142640500Y-93302352D01*
X142640500Y-93097648D01*
X142608477Y-92895466D01*
X142603825Y-92881151D01*
X142601832Y-92811312D01*
X142634075Y-92755158D01*
X144552416Y-90836818D01*
X144613739Y-90803333D01*
X144640097Y-90800499D01*
X146297871Y-90800499D01*
X146297872Y-90800499D01*
X146357483Y-90794091D01*
X146492331Y-90743796D01*
X146607546Y-90657546D01*
X146693796Y-90542331D01*
X146744091Y-90407483D01*
X146750500Y-90347873D01*
X146750499Y-88252128D01*
X146744091Y-88192517D01*
X146702511Y-88081036D01*
X146693797Y-88057671D01*
X146693793Y-88057664D01*
X146607547Y-87942455D01*
X146607544Y-87942452D01*
X146492335Y-87856206D01*
X146492328Y-87856202D01*
X146357482Y-87805908D01*
X146357483Y-87805908D01*
X146297883Y-87799501D01*
X146297881Y-87799500D01*
X146297873Y-87799500D01*
X146297864Y-87799500D01*
X144202129Y-87799500D01*
X144202123Y-87799501D01*
X144142516Y-87805908D01*
X144007671Y-87856202D01*
X144007664Y-87856206D01*
X143892455Y-87942452D01*
X143892452Y-87942455D01*
X143806206Y-88057664D01*
X143806202Y-88057671D01*
X143755908Y-88192517D01*
X143749501Y-88252116D01*
X143749501Y-88252123D01*
X143749500Y-88252135D01*
X143749500Y-89889902D01*
X143729815Y-89956941D01*
X143713181Y-89977583D01*
X141784842Y-91905921D01*
X141723519Y-91939406D01*
X141658848Y-91936173D01*
X141644534Y-91931522D01*
X141469995Y-91903878D01*
X141442352Y-91899500D01*
X141237648Y-91899500D01*
X141213329Y-91903351D01*
X141035465Y-91931522D01*
X140840776Y-91994781D01*
X140658386Y-92087715D01*
X140492786Y-92208028D01*
X140348028Y-92352786D01*
X140227715Y-92518386D01*
X140180485Y-92611080D01*
X140132510Y-92661876D01*
X140064689Y-92678671D01*
X139998554Y-92656134D01*
X139959515Y-92611080D01*
X139955286Y-92602781D01*
X139912287Y-92518390D01*
X139884748Y-92480485D01*
X139791971Y-92352786D01*
X139647213Y-92208028D01*
X139481610Y-92087712D01*
X139468200Y-92080879D01*
X139417406Y-92032903D01*
X139400500Y-91970397D01*
X139400500Y-90240944D01*
X139400499Y-90240938D01*
X139396369Y-90225526D01*
X139393112Y-90213368D01*
X139359577Y-90088215D01*
X139330639Y-90038095D01*
X139280520Y-89951284D01*
X139168716Y-89839480D01*
X139168715Y-89839479D01*
X139164385Y-89835149D01*
X139164374Y-89835139D01*
X135794077Y-86464842D01*
X135760592Y-86403519D01*
X135763828Y-86338841D01*
X135768477Y-86324534D01*
X135800500Y-86122352D01*
X135800500Y-85917648D01*
X135768477Y-85715466D01*
X135705220Y-85520781D01*
X135705218Y-85520778D01*
X135705218Y-85520776D01*
X135671503Y-85454607D01*
X135612287Y-85338390D01*
X135561854Y-85268974D01*
X135491971Y-85172786D01*
X135347213Y-85028028D01*
X135181614Y-84907715D01*
X135154875Y-84894091D01*
X135088917Y-84860483D01*
X135038123Y-84812511D01*
X135021328Y-84744690D01*
X135043865Y-84678555D01*
X135088917Y-84639516D01*
X135181610Y-84592287D01*
X135202770Y-84576913D01*
X135347213Y-84471971D01*
X135347215Y-84471968D01*
X135347219Y-84471966D01*
X135491966Y-84327219D01*
X135491968Y-84327215D01*
X135491971Y-84327213D01*
X135559677Y-84234022D01*
X135612287Y-84161610D01*
X135705220Y-83979219D01*
X135768477Y-83784534D01*
X135800500Y-83582352D01*
X135800500Y-83377648D01*
X135768477Y-83175466D01*
X135764606Y-83163553D01*
X135705218Y-82980776D01*
X135639782Y-82852352D01*
X135612287Y-82798390D01*
X135604556Y-82787749D01*
X135491971Y-82632786D01*
X135347213Y-82488028D01*
X135181614Y-82367715D01*
X135161901Y-82357671D01*
X135088917Y-82320483D01*
X135038123Y-82272511D01*
X135021328Y-82204690D01*
X135043865Y-82138555D01*
X135088917Y-82099516D01*
X135181610Y-82052287D01*
X135202770Y-82036913D01*
X135347213Y-81931971D01*
X135347215Y-81931968D01*
X135347219Y-81931966D01*
X135491966Y-81787219D01*
X135491968Y-81787215D01*
X135491971Y-81787213D01*
X135612284Y-81621614D01*
X135612285Y-81621613D01*
X135612287Y-81621610D01*
X135632519Y-81581902D01*
X143749500Y-81581902D01*
X143749500Y-81818097D01*
X143786446Y-82051368D01*
X143859433Y-82275996D01*
X143941765Y-82437580D01*
X143966657Y-82486433D01*
X144105483Y-82677510D01*
X144272490Y-82844517D01*
X144463567Y-82983343D01*
X144562991Y-83034002D01*
X144674003Y-83090566D01*
X144674005Y-83090566D01*
X144674008Y-83090568D01*
X144794412Y-83129689D01*
X144898631Y-83163553D01*
X145131903Y-83200500D01*
X145131908Y-83200500D01*
X145368097Y-83200500D01*
X145601368Y-83163553D01*
X145650152Y-83147702D01*
X145825992Y-83090568D01*
X146036433Y-82983343D01*
X146227510Y-82844517D01*
X146394517Y-82677510D01*
X146533343Y-82486433D01*
X146640568Y-82275992D01*
X146713553Y-82051368D01*
X146750500Y-81818097D01*
X146750500Y-81581902D01*
X146713553Y-81348631D01*
X146640566Y-81124003D01*
X146533342Y-80913566D01*
X146478184Y-80837648D01*
X146394517Y-80722490D01*
X146227510Y-80555483D01*
X146036433Y-80416657D01*
X145825996Y-80309433D01*
X145601368Y-80236446D01*
X145368097Y-80199500D01*
X145368092Y-80199500D01*
X145131908Y-80199500D01*
X145131903Y-80199500D01*
X144898631Y-80236446D01*
X144674003Y-80309433D01*
X144463566Y-80416657D01*
X144430363Y-80440781D01*
X144272490Y-80555483D01*
X144272488Y-80555485D01*
X144272487Y-80555485D01*
X144105485Y-80722487D01*
X144105485Y-80722488D01*
X144105483Y-80722490D01*
X144045862Y-80804550D01*
X143966657Y-80913566D01*
X143859433Y-81124003D01*
X143786446Y-81348631D01*
X143749500Y-81581902D01*
X135632519Y-81581902D01*
X135699982Y-81449500D01*
X135705216Y-81439228D01*
X135705218Y-81439223D01*
X135705220Y-81439219D01*
X135768477Y-81244534D01*
X135800500Y-81042352D01*
X135800500Y-80837648D01*
X135768477Y-80635465D01*
X135705218Y-80440776D01*
X135671503Y-80374607D01*
X135612287Y-80258390D01*
X135596344Y-80236446D01*
X135491971Y-80092786D01*
X135347213Y-79948028D01*
X135181613Y-79827715D01*
X135181612Y-79827714D01*
X135181610Y-79827713D01*
X135124653Y-79798691D01*
X134999223Y-79734781D01*
X134804534Y-79671522D01*
X134629995Y-79643878D01*
X134602352Y-79639500D01*
X134397648Y-79639500D01*
X134373329Y-79643351D01*
X134195465Y-79671522D01*
X134000776Y-79734781D01*
X133818386Y-79827715D01*
X133652786Y-79948028D01*
X133508028Y-80092786D01*
X133387715Y-80258386D01*
X133294781Y-80440776D01*
X133231522Y-80635465D01*
X133199500Y-80837648D01*
X133199500Y-81042351D01*
X133231522Y-81244534D01*
X133294781Y-81439223D01*
X133387715Y-81621613D01*
X133508028Y-81787213D01*
X133652786Y-81931971D01*
X133807749Y-82044556D01*
X133818390Y-82052287D01*
X133909840Y-82098883D01*
X133911080Y-82099515D01*
X133961876Y-82147490D01*
X133978671Y-82215311D01*
X133956134Y-82281446D01*
X133911080Y-82320485D01*
X133818386Y-82367715D01*
X133652786Y-82488028D01*
X133508028Y-82632786D01*
X133387715Y-82798386D01*
X133294781Y-82980776D01*
X133231522Y-83175465D01*
X133199500Y-83377648D01*
X133199500Y-83582351D01*
X133231522Y-83784534D01*
X133294781Y-83979223D01*
X133387715Y-84161613D01*
X133508028Y-84327213D01*
X133652786Y-84471971D01*
X133807749Y-84584556D01*
X133818390Y-84592287D01*
X133909840Y-84638883D01*
X133911080Y-84639515D01*
X133961876Y-84687490D01*
X133978671Y-84755311D01*
X133956134Y-84821446D01*
X133911080Y-84860485D01*
X133818386Y-84907715D01*
X133652786Y-85028028D01*
X133508028Y-85172786D01*
X133387715Y-85338386D01*
X133294781Y-85520776D01*
X133231522Y-85715465D01*
X133199500Y-85917648D01*
X133199500Y-86122351D01*
X133231522Y-86324534D01*
X133294781Y-86519223D01*
X133387715Y-86701613D01*
X133508028Y-86867213D01*
X133652786Y-87011971D01*
X133807749Y-87124556D01*
X133818390Y-87132287D01*
X133909840Y-87178883D01*
X133911080Y-87179515D01*
X133961876Y-87227490D01*
X133978671Y-87295311D01*
X133956134Y-87361446D01*
X133911080Y-87400485D01*
X133818386Y-87447715D01*
X133652786Y-87568028D01*
X133508028Y-87712786D01*
X133387715Y-87878386D01*
X133294781Y-88060776D01*
X133231522Y-88255465D01*
X133199500Y-88457648D01*
X133199500Y-88662351D01*
X133231522Y-88864534D01*
X133294781Y-89059223D01*
X133358691Y-89184653D01*
X133366611Y-89200196D01*
X133387715Y-89241613D01*
X133508028Y-89407213D01*
X133559583Y-89458768D01*
X133593068Y-89520091D01*
X133588084Y-89589783D01*
X133559583Y-89634130D01*
X131047616Y-92146097D01*
X130986293Y-92179582D01*
X130940537Y-92180889D01*
X130771267Y-92154079D01*
X130742352Y-92149500D01*
X130537648Y-92149500D01*
X130513329Y-92153351D01*
X130335465Y-92181522D01*
X130140776Y-92244781D01*
X129958386Y-92337715D01*
X129792786Y-92458028D01*
X129648028Y-92602786D01*
X129527715Y-92768386D01*
X129434781Y-92950776D01*
X129371522Y-93145465D01*
X129339500Y-93347648D01*
X129339500Y-93552351D01*
X129371522Y-93754534D01*
X129434781Y-93949223D01*
X129527715Y-94131613D01*
X129648028Y-94297213D01*
X129648034Y-94297219D01*
X129792781Y-94441966D01*
X129873347Y-94500500D01*
X129893554Y-94515181D01*
X129936220Y-94570511D01*
X129942199Y-94640125D01*
X129909594Y-94701920D01*
X129848755Y-94736277D01*
X129820669Y-94739500D01*
X129711578Y-94739500D01*
X129517176Y-94770290D01*
X129517175Y-94770290D01*
X129458054Y-94789499D01*
X129458055Y-94789500D01*
X129329970Y-94831117D01*
X129231844Y-94881116D01*
X129154594Y-94920476D01*
X129082975Y-94972511D01*
X128995354Y-95036172D01*
X128995352Y-95036174D01*
X128995351Y-95036174D01*
X126846174Y-97185351D01*
X126846174Y-97185352D01*
X126846172Y-97185354D01*
X126810225Y-97234831D01*
X126730476Y-97344594D01*
X126640669Y-97520851D01*
X126639608Y-97524612D01*
X126580291Y-97707169D01*
X126580291Y-97707172D01*
X126549500Y-97901577D01*
X126549500Y-105577581D01*
X126529815Y-105644620D01*
X126477011Y-105690375D01*
X126407853Y-105700319D01*
X126344297Y-105671294D01*
X126315015Y-105633876D01*
X126286331Y-105577581D01*
X126269524Y-105544595D01*
X126153828Y-105385354D01*
X126014646Y-105246172D01*
X125855405Y-105130476D01*
X125680029Y-105041117D01*
X125492826Y-104980290D01*
X125298422Y-104949500D01*
X125298417Y-104949500D01*
X125101583Y-104949500D01*
X125101578Y-104949500D01*
X124907173Y-104980290D01*
X124719970Y-105041117D01*
X124544594Y-105130476D01*
X124385355Y-105246171D01*
X124247930Y-105383596D01*
X124186607Y-105417080D01*
X124116915Y-105412096D01*
X124060982Y-105370224D01*
X124059930Y-105368799D01*
X124044839Y-105348028D01*
X124011966Y-105302781D01*
X123867219Y-105158034D01*
X123867213Y-105158028D01*
X123701614Y-105037715D01*
X123695006Y-105034348D01*
X123608917Y-104990483D01*
X123558123Y-104942511D01*
X123541328Y-104874690D01*
X123563865Y-104808555D01*
X123608917Y-104769516D01*
X123701610Y-104722287D01*
X123765270Y-104676036D01*
X123867213Y-104601971D01*
X123867215Y-104601968D01*
X123867219Y-104601966D01*
X124011966Y-104457219D01*
X124011968Y-104457215D01*
X124011971Y-104457213D01*
X124104878Y-104329335D01*
X124132287Y-104291610D01*
X124225220Y-104109219D01*
X124288477Y-103914534D01*
X124320500Y-103712352D01*
X124320500Y-103507648D01*
X124301446Y-103387347D01*
X124288477Y-103305465D01*
X124250436Y-103188387D01*
X124225220Y-103110781D01*
X124225218Y-103110778D01*
X124225218Y-103110776D01*
X124182700Y-103027331D01*
X124132287Y-102928390D01*
X124062898Y-102832883D01*
X124011971Y-102762786D01*
X123867213Y-102618028D01*
X123701614Y-102497715D01*
X123644904Y-102468820D01*
X123608917Y-102450483D01*
X123558123Y-102402511D01*
X123541328Y-102334690D01*
X123563865Y-102268555D01*
X123608917Y-102229516D01*
X123701610Y-102182287D01*
X123767531Y-102134393D01*
X123867213Y-102061971D01*
X123867215Y-102061968D01*
X123867219Y-102061966D01*
X124011966Y-101917219D01*
X124011968Y-101917215D01*
X124011971Y-101917213D01*
X124064732Y-101844590D01*
X124132287Y-101751610D01*
X124225220Y-101569219D01*
X124288477Y-101374534D01*
X124320500Y-101172352D01*
X124320500Y-100967648D01*
X124288477Y-100765466D01*
X124276569Y-100728816D01*
X124270500Y-100690498D01*
X124270500Y-99099336D01*
X124290185Y-99032297D01*
X124306819Y-99011655D01*
X124903009Y-98415465D01*
X125724828Y-97593646D01*
X125840524Y-97434405D01*
X125929884Y-97259026D01*
X125990709Y-97071826D01*
X126002006Y-97000500D01*
X126004941Y-96981971D01*
X126021500Y-96877422D01*
X126021500Y-89757179D01*
X125994192Y-89584767D01*
X125990709Y-89562776D01*
X125983243Y-89539799D01*
X125976316Y-89518479D01*
X125929885Y-89375578D01*
X125929884Y-89375575D01*
X125840523Y-89200196D01*
X125724828Y-89040956D01*
X124166819Y-87482947D01*
X124133334Y-87421624D01*
X124130500Y-87395266D01*
X124130500Y-76647648D01*
X148199500Y-76647648D01*
X148199500Y-76852351D01*
X148231522Y-77054534D01*
X148294781Y-77249223D01*
X148387715Y-77431613D01*
X148508028Y-77597213D01*
X148652786Y-77741971D01*
X148807749Y-77854556D01*
X148818390Y-77862287D01*
X148934607Y-77921503D01*
X149000776Y-77955218D01*
X149000778Y-77955218D01*
X149000781Y-77955220D01*
X149105137Y-77989127D01*
X149195465Y-78018477D01*
X149296557Y-78034488D01*
X149397648Y-78050500D01*
X149397649Y-78050500D01*
X149602351Y-78050500D01*
X149602352Y-78050500D01*
X149804534Y-78018477D01*
X149999219Y-77955220D01*
X150181610Y-77862287D01*
X150274590Y-77794732D01*
X150347213Y-77741971D01*
X150347215Y-77741968D01*
X150347219Y-77741966D01*
X150491966Y-77597219D01*
X150491968Y-77597215D01*
X150491971Y-77597213D01*
X150562035Y-77500776D01*
X150612287Y-77431610D01*
X150705220Y-77249219D01*
X150768477Y-77054534D01*
X150800500Y-76852352D01*
X150800500Y-76647648D01*
X150768477Y-76445466D01*
X150705220Y-76250781D01*
X150705218Y-76250778D01*
X150705218Y-76250776D01*
X150671503Y-76184607D01*
X150612287Y-76068390D01*
X150604556Y-76057749D01*
X150491971Y-75902786D01*
X150347213Y-75758028D01*
X150181613Y-75637715D01*
X150181612Y-75637714D01*
X150181610Y-75637713D01*
X150124653Y-75608691D01*
X149999223Y-75544781D01*
X149804534Y-75481522D01*
X149629995Y-75453878D01*
X149602352Y-75449500D01*
X149397648Y-75449500D01*
X149373329Y-75453351D01*
X149195465Y-75481522D01*
X149000776Y-75544781D01*
X148818386Y-75637715D01*
X148652786Y-75758028D01*
X148508028Y-75902786D01*
X148387715Y-76068386D01*
X148294781Y-76250776D01*
X148231522Y-76445465D01*
X148199500Y-76647648D01*
X124130500Y-76647648D01*
X124130500Y-71654397D01*
X124150185Y-71587358D01*
X124202989Y-71541603D01*
X124272147Y-71531659D01*
X124335703Y-71560684D01*
X124354819Y-71581512D01*
X124389896Y-71629792D01*
X124540213Y-71780109D01*
X124712179Y-71905048D01*
X124712181Y-71905049D01*
X124712184Y-71905051D01*
X124901588Y-72001557D01*
X125103757Y-72067246D01*
X125313713Y-72100500D01*
X125313714Y-72100500D01*
X125526286Y-72100500D01*
X125526287Y-72100500D01*
X125736243Y-72067246D01*
X125938412Y-72001557D01*
X126127816Y-71905051D01*
X126162591Y-71879786D01*
X126299786Y-71780109D01*
X126299788Y-71780106D01*
X126299792Y-71780104D01*
X126450104Y-71629792D01*
X126450106Y-71629788D01*
X126450109Y-71629786D01*
X126575048Y-71457820D01*
X126575047Y-71457820D01*
X126575051Y-71457816D01*
X126579514Y-71449054D01*
X126627488Y-71398259D01*
X126695308Y-71381463D01*
X126761444Y-71403999D01*
X126800486Y-71449056D01*
X126804951Y-71457820D01*
X126929890Y-71629786D01*
X127080213Y-71780109D01*
X127252179Y-71905048D01*
X127252181Y-71905049D01*
X127252184Y-71905051D01*
X127441588Y-72001557D01*
X127643757Y-72067246D01*
X127853713Y-72100500D01*
X127853714Y-72100500D01*
X128066286Y-72100500D01*
X128066287Y-72100500D01*
X128276243Y-72067246D01*
X128478412Y-72001557D01*
X128667816Y-71905051D01*
X128702591Y-71879786D01*
X128839786Y-71780109D01*
X128839788Y-71780106D01*
X128839792Y-71780104D01*
X128990104Y-71629792D01*
X128990106Y-71629788D01*
X128990109Y-71629786D01*
X129115048Y-71457820D01*
X129115047Y-71457820D01*
X129115051Y-71457816D01*
X129211557Y-71268412D01*
X129277246Y-71066243D01*
X129310500Y-70856287D01*
X129310500Y-70643713D01*
X129277246Y-70433757D01*
X129211557Y-70231588D01*
X129115051Y-70042184D01*
X129115049Y-70042181D01*
X129115048Y-70042179D01*
X128990109Y-69870213D01*
X128839786Y-69719890D01*
X128667820Y-69594951D01*
X128478414Y-69498444D01*
X128478413Y-69498443D01*
X128478412Y-69498443D01*
X128276243Y-69432754D01*
X128276241Y-69432753D01*
X128276240Y-69432753D01*
X128114957Y-69407208D01*
X128066287Y-69399500D01*
X127853713Y-69399500D01*
X127805042Y-69407208D01*
X127643760Y-69432753D01*
X127441585Y-69498444D01*
X127252179Y-69594951D01*
X127080213Y-69719890D01*
X126929890Y-69870213D01*
X126804949Y-70042182D01*
X126800484Y-70050946D01*
X126752509Y-70101742D01*
X126684688Y-70118536D01*
X126618553Y-70095998D01*
X126579516Y-70050946D01*
X126575050Y-70042182D01*
X126450109Y-69870213D01*
X126299786Y-69719890D01*
X126127820Y-69594951D01*
X125938414Y-69498444D01*
X125938413Y-69498443D01*
X125938412Y-69498443D01*
X125736243Y-69432754D01*
X125736241Y-69432753D01*
X125736240Y-69432753D01*
X125574957Y-69407208D01*
X125526287Y-69399500D01*
X125313713Y-69399500D01*
X125265042Y-69407208D01*
X125103760Y-69432753D01*
X124901585Y-69498444D01*
X124712179Y-69594951D01*
X124540213Y-69719890D01*
X124389890Y-69870213D01*
X124264949Y-70042182D01*
X124260484Y-70050946D01*
X124212509Y-70101742D01*
X124144688Y-70118536D01*
X124078553Y-70095998D01*
X124039516Y-70050946D01*
X124035050Y-70042182D01*
X123910109Y-69870213D01*
X123759786Y-69719890D01*
X123587820Y-69594951D01*
X123398414Y-69498444D01*
X123398413Y-69498443D01*
X123398412Y-69498443D01*
X123196243Y-69432754D01*
X123196241Y-69432753D01*
X123196240Y-69432753D01*
X123034957Y-69407208D01*
X122986287Y-69399500D01*
X122773713Y-69399500D01*
X122725042Y-69407208D01*
X122563760Y-69432753D01*
X122361585Y-69498444D01*
X122172179Y-69594951D01*
X122000213Y-69719890D01*
X121849890Y-69870213D01*
X121724951Y-70042180D01*
X121635806Y-70217136D01*
X121613002Y-70248522D01*
X120347345Y-71514181D01*
X120286022Y-71547666D01*
X120259664Y-71550500D01*
X114121802Y-71550500D01*
X114054763Y-71530815D01*
X114009008Y-71478011D01*
X113999064Y-71408853D01*
X114003871Y-71388182D01*
X114027246Y-71316243D01*
X114060500Y-71106287D01*
X114060500Y-70893713D01*
X114027246Y-70683757D01*
X113961557Y-70481588D01*
X113865051Y-70292184D01*
X113865049Y-70292181D01*
X113865048Y-70292179D01*
X113740109Y-70120213D01*
X113589786Y-69969890D01*
X113417820Y-69844951D01*
X113228414Y-69748444D01*
X113228413Y-69748443D01*
X113228412Y-69748443D01*
X113026243Y-69682754D01*
X113026241Y-69682753D01*
X113026240Y-69682753D01*
X112864957Y-69657208D01*
X112816287Y-69649500D01*
X112603713Y-69649500D01*
X112555042Y-69657208D01*
X112393760Y-69682753D01*
X112191585Y-69748444D01*
X112002179Y-69844951D01*
X111830213Y-69969890D01*
X111679890Y-70120213D01*
X111554949Y-70292182D01*
X111550484Y-70300946D01*
X111502509Y-70351742D01*
X111434688Y-70368536D01*
X111368553Y-70345998D01*
X111329516Y-70300946D01*
X111325050Y-70292182D01*
X111200109Y-70120213D01*
X111049786Y-69969890D01*
X110877820Y-69844951D01*
X110688414Y-69748444D01*
X110688413Y-69748443D01*
X110688412Y-69748443D01*
X110486243Y-69682754D01*
X110486241Y-69682753D01*
X110486240Y-69682753D01*
X110324957Y-69657208D01*
X110276287Y-69649500D01*
X110063713Y-69649500D01*
X110015042Y-69657208D01*
X109853760Y-69682753D01*
X109651585Y-69748444D01*
X109462179Y-69844951D01*
X109290213Y-69969890D01*
X109139890Y-70120213D01*
X109014951Y-70292179D01*
X108918444Y-70481585D01*
X108852753Y-70683760D01*
X108819500Y-70893713D01*
X108819500Y-71106286D01*
X108852753Y-71316240D01*
X108913431Y-71502988D01*
X108919500Y-71541306D01*
X108919500Y-72300503D01*
X108950290Y-72494907D01*
X109011117Y-72682111D01*
X109100476Y-72857486D01*
X109216172Y-73016727D01*
X109815090Y-73615645D01*
X109815091Y-73615646D01*
X109954273Y-73754828D01*
X110113514Y-73870524D01*
X110148714Y-73888459D01*
X110288898Y-73959886D01*
X110373142Y-73987258D01*
X110415265Y-74000944D01*
X110415266Y-74000945D01*
X110415267Y-74000945D01*
X110476092Y-74020709D01*
X110548995Y-74032255D01*
X110670497Y-74051500D01*
X110670502Y-74051500D01*
X120927422Y-74051500D01*
X121121826Y-74020709D01*
X121182656Y-74000944D01*
X121309026Y-73959884D01*
X121449205Y-73888458D01*
X121517874Y-73875563D01*
X121582615Y-73901839D01*
X121622872Y-73958946D01*
X121629500Y-73998944D01*
X121629500Y-88063024D01*
X121660290Y-88257428D01*
X121721117Y-88444632D01*
X121810476Y-88620007D01*
X121926172Y-88779248D01*
X121926174Y-88779250D01*
X122544743Y-89397819D01*
X122578228Y-89459142D01*
X122573244Y-89528834D01*
X122531372Y-89584767D01*
X122465908Y-89609184D01*
X122457065Y-89609500D01*
X122420000Y-89609500D01*
X122419980Y-89609501D01*
X122317203Y-89620000D01*
X122317200Y-89620001D01*
X122150668Y-89675185D01*
X122150663Y-89675187D01*
X122001342Y-89767289D01*
X121877289Y-89891342D01*
X121785187Y-90040663D01*
X121785186Y-90040666D01*
X121730001Y-90207203D01*
X121730001Y-90207204D01*
X121730000Y-90207204D01*
X121719500Y-90309983D01*
X121719500Y-91510001D01*
X121719501Y-91510018D01*
X121730000Y-91612796D01*
X121730001Y-91612799D01*
X121785185Y-91779331D01*
X121785187Y-91779336D01*
X121800196Y-91803669D01*
X121877288Y-91928656D01*
X122001344Y-92052712D01*
X122150666Y-92144814D01*
X122232570Y-92171954D01*
X122290015Y-92211727D01*
X122316838Y-92276243D01*
X122304523Y-92345018D01*
X122266451Y-92389978D01*
X122172787Y-92458028D01*
X122172782Y-92458032D01*
X122028028Y-92602786D01*
X121907715Y-92768386D01*
X121814781Y-92950776D01*
X121751522Y-93145465D01*
X121719500Y-93347648D01*
X121719500Y-93552351D01*
X121751522Y-93754534D01*
X121814781Y-93949223D01*
X121907715Y-94131613D01*
X122028028Y-94297213D01*
X122172786Y-94441971D01*
X122327749Y-94554556D01*
X122338390Y-94562287D01*
X122429840Y-94608883D01*
X122431080Y-94609515D01*
X122481876Y-94657490D01*
X122498671Y-94725311D01*
X122476134Y-94791446D01*
X122431080Y-94830485D01*
X122338386Y-94877715D01*
X122172786Y-94998028D01*
X122028028Y-95142786D01*
X121907715Y-95308386D01*
X121814781Y-95490776D01*
X121751522Y-95685465D01*
X121719500Y-95887648D01*
X121719500Y-96092351D01*
X121751522Y-96294534D01*
X121814781Y-96489223D01*
X121907715Y-96671613D01*
X122028028Y-96837213D01*
X122172786Y-96981971D01*
X122338388Y-97102286D01*
X122338390Y-97102287D01*
X122412118Y-97139853D01*
X122432568Y-97159167D01*
X122455091Y-97176028D01*
X122457630Y-97182837D01*
X122462914Y-97187827D01*
X122469676Y-97215131D01*
X122479508Y-97241492D01*
X122477963Y-97248593D01*
X122479710Y-97255648D01*
X122470635Y-97282275D01*
X122464656Y-97309765D01*
X122458437Y-97318071D01*
X122457173Y-97321783D01*
X122443505Y-97338019D01*
X122404110Y-97377414D01*
X122372727Y-97400216D01*
X122338386Y-97417714D01*
X122172786Y-97538028D01*
X122028028Y-97682786D01*
X121907715Y-97848386D01*
X121814781Y-98030776D01*
X121751522Y-98225465D01*
X121719500Y-98427648D01*
X121719500Y-98632351D01*
X121751522Y-98834530D01*
X121751522Y-98834531D01*
X121763431Y-98871182D01*
X121769500Y-98909500D01*
X121769500Y-100690498D01*
X121763431Y-100728816D01*
X121751523Y-100765464D01*
X121719500Y-100967648D01*
X121719500Y-101172351D01*
X121751522Y-101374534D01*
X121814781Y-101569223D01*
X121878691Y-101694653D01*
X121904737Y-101745770D01*
X121907715Y-101751613D01*
X122028028Y-101917213D01*
X122172786Y-102061971D01*
X122272470Y-102134394D01*
X122338390Y-102182287D01*
X122429840Y-102228883D01*
X122431080Y-102229515D01*
X122481876Y-102277490D01*
X122498671Y-102345311D01*
X122476134Y-102411446D01*
X122431080Y-102450485D01*
X122338386Y-102497715D01*
X122172786Y-102618028D01*
X122028028Y-102762786D01*
X121907715Y-102928386D01*
X121814781Y-103110776D01*
X121751522Y-103305465D01*
X121719500Y-103507648D01*
X121719500Y-103712351D01*
X121751522Y-103914534D01*
X121814781Y-104109223D01*
X121869722Y-104217048D01*
X121899655Y-104275796D01*
X121907715Y-104291613D01*
X122028028Y-104457213D01*
X122172786Y-104601971D01*
X122327749Y-104714556D01*
X122338390Y-104722287D01*
X122429840Y-104768883D01*
X122431080Y-104769515D01*
X122481876Y-104817490D01*
X122498671Y-104885311D01*
X122476134Y-104951446D01*
X122431080Y-104990485D01*
X122338386Y-105037715D01*
X122172786Y-105158028D01*
X122028028Y-105302786D01*
X121907715Y-105468386D01*
X121814781Y-105650776D01*
X121751522Y-105845465D01*
X121719500Y-106047648D01*
X121719500Y-106252351D01*
X121751522Y-106454534D01*
X121814781Y-106649223D01*
X121907715Y-106831613D01*
X122028028Y-106997213D01*
X122172786Y-107141971D01*
X122327749Y-107254556D01*
X122338390Y-107262287D01*
X122429840Y-107308883D01*
X122431080Y-107309515D01*
X122481876Y-107357490D01*
X122498671Y-107425311D01*
X122476134Y-107491446D01*
X122431080Y-107530485D01*
X122338386Y-107577715D01*
X122172786Y-107698028D01*
X122028028Y-107842786D01*
X121907715Y-108008386D01*
X121814781Y-108190776D01*
X121751522Y-108385465D01*
X121719500Y-108587648D01*
X121719500Y-108792351D01*
X121751522Y-108994530D01*
X121751522Y-108994531D01*
X121751523Y-108994534D01*
X121755909Y-109008034D01*
X121763431Y-109031182D01*
X121769500Y-109069500D01*
X121769500Y-114646951D01*
X121749815Y-114713990D01*
X121733181Y-114734632D01*
X120586514Y-115881298D01*
X120525191Y-115914783D01*
X120455499Y-115909799D01*
X120399566Y-115867927D01*
X120388348Y-115849912D01*
X120372287Y-115818390D01*
X120372285Y-115818387D01*
X120372284Y-115818385D01*
X120251971Y-115652786D01*
X120107213Y-115508028D01*
X119941614Y-115387715D01*
X119935006Y-115384348D01*
X119848917Y-115340483D01*
X119798123Y-115292511D01*
X119781328Y-115224690D01*
X119803865Y-115158555D01*
X119848917Y-115119516D01*
X119941610Y-115072287D01*
X119966045Y-115054534D01*
X120107213Y-114951971D01*
X120107215Y-114951968D01*
X120107219Y-114951966D01*
X120251966Y-114807219D01*
X120251968Y-114807215D01*
X120251971Y-114807213D01*
X120331089Y-114698314D01*
X120372287Y-114641610D01*
X120465220Y-114459219D01*
X120528477Y-114264534D01*
X120560500Y-114062352D01*
X120560500Y-113857648D01*
X120557486Y-113838619D01*
X120528477Y-113655465D01*
X120490336Y-113538080D01*
X120465220Y-113460781D01*
X120465218Y-113460778D01*
X120465218Y-113460776D01*
X120421023Y-113374039D01*
X120372287Y-113278390D01*
X120345824Y-113241966D01*
X120251971Y-113112786D01*
X120107213Y-112968028D01*
X119941614Y-112847715D01*
X119935006Y-112844348D01*
X119848917Y-112800483D01*
X119798123Y-112752511D01*
X119781328Y-112684690D01*
X119803865Y-112618555D01*
X119848917Y-112579516D01*
X119941610Y-112532287D01*
X119962770Y-112516913D01*
X120107213Y-112411971D01*
X120107215Y-112411968D01*
X120107219Y-112411966D01*
X120251966Y-112267219D01*
X120251968Y-112267215D01*
X120251971Y-112267213D01*
X120342395Y-112142753D01*
X120372287Y-112101610D01*
X120465220Y-111919219D01*
X120528477Y-111724534D01*
X120560500Y-111522352D01*
X120560500Y-111317648D01*
X120528477Y-111115466D01*
X120465220Y-110920781D01*
X120465218Y-110920778D01*
X120465218Y-110920776D01*
X120431503Y-110854607D01*
X120372287Y-110738390D01*
X120343245Y-110698417D01*
X120251971Y-110572786D01*
X120107213Y-110428028D01*
X119941613Y-110307715D01*
X119941612Y-110307714D01*
X119941610Y-110307713D01*
X119884653Y-110278691D01*
X119759223Y-110214781D01*
X119564534Y-110151522D01*
X119389995Y-110123878D01*
X119362352Y-110119500D01*
X119157648Y-110119500D01*
X119133329Y-110123351D01*
X118955465Y-110151522D01*
X118760776Y-110214781D01*
X118578386Y-110307715D01*
X118412786Y-110428028D01*
X118268028Y-110572786D01*
X118147715Y-110738386D01*
X118054781Y-110920776D01*
X117991522Y-111115465D01*
X117959500Y-111317648D01*
X117959500Y-111522351D01*
X117991522Y-111724534D01*
X118054781Y-111919223D01*
X118147715Y-112101613D01*
X118268028Y-112267213D01*
X118412786Y-112411971D01*
X118567749Y-112524556D01*
X118578390Y-112532287D01*
X118669840Y-112578883D01*
X118671080Y-112579515D01*
X118721876Y-112627490D01*
X118738671Y-112695311D01*
X118716134Y-112761446D01*
X118671080Y-112800485D01*
X118578386Y-112847715D01*
X118412786Y-112968028D01*
X118268028Y-113112786D01*
X118147715Y-113278386D01*
X118054781Y-113460776D01*
X117991522Y-113655465D01*
X117959500Y-113857648D01*
X117959500Y-114062351D01*
X117991522Y-114264534D01*
X118054781Y-114459223D01*
X118118691Y-114584653D01*
X118134180Y-114615051D01*
X118147715Y-114641613D01*
X118268028Y-114807213D01*
X118412786Y-114951971D01*
X118553955Y-115054534D01*
X118578390Y-115072287D01*
X118667732Y-115117809D01*
X118671080Y-115119515D01*
X118721876Y-115167490D01*
X118738671Y-115235311D01*
X118716134Y-115301446D01*
X118671080Y-115340485D01*
X118578386Y-115387715D01*
X118412786Y-115508028D01*
X118268028Y-115652786D01*
X118147713Y-115818388D01*
X118131650Y-115849914D01*
X118083676Y-115900709D01*
X118015854Y-115917504D01*
X117949720Y-115894966D01*
X117933485Y-115881299D01*
X117336168Y-115283982D01*
X117302683Y-115222659D01*
X117299849Y-115196301D01*
X117299849Y-106048275D01*
X117277500Y-105907174D01*
X117277500Y-105907173D01*
X117269059Y-105853878D01*
X117269058Y-105853871D01*
X117226682Y-105723453D01*
X117208233Y-105666673D01*
X117208231Y-105666670D01*
X117208231Y-105666668D01*
X117149040Y-105550500D01*
X117118873Y-105491293D01*
X117003177Y-105332052D01*
X116863995Y-105192870D01*
X113706398Y-102035273D01*
X113672913Y-101973950D01*
X113671606Y-101928196D01*
X113698369Y-101759223D01*
X113700500Y-101745770D01*
X113700500Y-97492249D01*
X113720185Y-97425210D01*
X113750190Y-97392982D01*
X113807546Y-97350046D01*
X113893796Y-97234831D01*
X113944091Y-97099983D01*
X113950500Y-97040373D01*
X113950499Y-95039628D01*
X113944091Y-94980017D01*
X113941291Y-94972511D01*
X113893797Y-94845171D01*
X113893793Y-94845164D01*
X113807547Y-94729955D01*
X113807544Y-94729952D01*
X113692335Y-94643706D01*
X113692328Y-94643702D01*
X113664459Y-94633308D01*
X113608525Y-94591437D01*
X113584108Y-94525973D01*
X113598960Y-94457700D01*
X113607460Y-94444260D01*
X113740217Y-94261538D01*
X113844048Y-94057758D01*
X113865568Y-93991525D01*
X113914721Y-93840249D01*
X113914721Y-93840248D01*
X113914722Y-93840245D01*
X113950500Y-93614354D01*
X113950500Y-93385646D01*
X113914722Y-93159755D01*
X113914721Y-93159751D01*
X113914721Y-93159750D01*
X113844049Y-92942244D01*
X113844048Y-92942242D01*
X113740217Y-92738462D01*
X113605786Y-92553434D01*
X113444066Y-92391714D01*
X113259038Y-92257283D01*
X113235779Y-92245432D01*
X113055255Y-92153450D01*
X112837748Y-92082778D01*
X112611845Y-92046998D01*
X112607688Y-92046671D01*
X112542404Y-92021778D01*
X112529754Y-92010736D01*
X111785819Y-91266801D01*
X111752334Y-91205478D01*
X111749500Y-91179120D01*
X111749500Y-85320335D01*
X111769185Y-85253296D01*
X111785815Y-85232658D01*
X112081655Y-84936817D01*
X112142978Y-84903333D01*
X112169336Y-84900499D01*
X112697871Y-84900499D01*
X112697872Y-84900499D01*
X112757483Y-84894091D01*
X112892331Y-84843796D01*
X113007546Y-84757546D01*
X113093796Y-84642331D01*
X113121429Y-84568243D01*
X113123601Y-84562420D01*
X113165471Y-84506486D01*
X113230936Y-84482068D01*
X113299209Y-84496919D01*
X113327464Y-84518071D01*
X113377636Y-84568243D01*
X113377641Y-84568247D01*
X113410730Y-84592287D01*
X113555978Y-84697815D01*
X113684375Y-84763237D01*
X113752393Y-84797895D01*
X113752396Y-84797896D01*
X113857221Y-84831955D01*
X113962049Y-84866015D01*
X114179778Y-84900500D01*
X114179779Y-84900500D01*
X114400221Y-84900500D01*
X114400222Y-84900500D01*
X114617951Y-84866015D01*
X114827606Y-84797895D01*
X115024022Y-84697815D01*
X115202365Y-84568242D01*
X115358242Y-84412365D01*
X115487815Y-84234022D01*
X115587895Y-84037606D01*
X115656015Y-83827951D01*
X115690500Y-83610222D01*
X115690500Y-83389778D01*
X115656015Y-83172049D01*
X115594702Y-82983343D01*
X115587896Y-82962396D01*
X115587895Y-82962393D01*
X115531825Y-82852352D01*
X115487815Y-82765978D01*
X115423541Y-82677512D01*
X115358247Y-82587641D01*
X115358243Y-82587636D01*
X115202363Y-82431756D01*
X115202358Y-82431752D01*
X115024025Y-82302187D01*
X115024024Y-82302186D01*
X115024022Y-82302185D01*
X114961096Y-82270122D01*
X114827606Y-82202104D01*
X114827603Y-82202103D01*
X114617952Y-82133985D01*
X114509086Y-82116742D01*
X114400222Y-82099500D01*
X114179778Y-82099500D01*
X114107201Y-82110995D01*
X113962047Y-82133985D01*
X113752396Y-82202103D01*
X113752393Y-82202104D01*
X113555974Y-82302187D01*
X113377641Y-82431752D01*
X113377636Y-82431756D01*
X113327463Y-82481929D01*
X113266140Y-82515413D01*
X113196448Y-82510428D01*
X113140515Y-82468557D01*
X113123601Y-82437580D01*
X113093797Y-82357671D01*
X113093793Y-82357664D01*
X113007547Y-82242455D01*
X113007544Y-82242452D01*
X112892335Y-82156206D01*
X112892328Y-82156202D01*
X112757482Y-82105908D01*
X112757483Y-82105908D01*
X112697883Y-82099501D01*
X112697881Y-82099500D01*
X112697873Y-82099500D01*
X112697864Y-82099500D01*
X110802129Y-82099500D01*
X110802123Y-82099501D01*
X110742516Y-82105908D01*
X110607671Y-82156202D01*
X110607664Y-82156206D01*
X110492455Y-82242452D01*
X110492452Y-82242455D01*
X110406206Y-82357664D01*
X110406202Y-82357671D01*
X110355908Y-82492517D01*
X110349501Y-82552116D01*
X110349500Y-82552135D01*
X110349500Y-83080663D01*
X110329815Y-83147702D01*
X110313181Y-83168344D01*
X109545174Y-83936351D01*
X109545172Y-83936354D01*
X109531465Y-83955220D01*
X109429476Y-84095594D01*
X109339669Y-84271851D01*
X109338608Y-84275612D01*
X109279291Y-84458169D01*
X109279291Y-84458172D01*
X109248500Y-84652577D01*
X109248500Y-91846878D01*
X109279290Y-92041282D01*
X109340117Y-92228486D01*
X109395772Y-92337713D01*
X109429476Y-92403861D01*
X109545172Y-92563102D01*
X109545174Y-92563104D01*
X111058813Y-94076743D01*
X111079328Y-94103847D01*
X111080521Y-94105979D01*
X111159783Y-94261538D01*
X111193928Y-94308535D01*
X111197505Y-94314923D01*
X111203725Y-94342128D01*
X111213107Y-94368420D01*
X111211408Y-94375724D01*
X111213080Y-94383035D01*
X111203603Y-94409287D01*
X111197282Y-94436474D01*
X111191903Y-94441700D01*
X111189358Y-94448754D01*
X111167194Y-94465714D01*
X111147177Y-94485169D01*
X111139187Y-94487147D01*
X111133871Y-94491216D01*
X111117240Y-94492582D01*
X111089309Y-94499500D01*
X103882487Y-94499500D01*
X103823058Y-94484331D01*
X103817330Y-94481203D01*
X103682482Y-94430908D01*
X103682483Y-94430908D01*
X103622883Y-94424501D01*
X103622881Y-94424500D01*
X103622873Y-94424500D01*
X103622864Y-94424500D01*
X101877129Y-94424500D01*
X101877123Y-94424501D01*
X101817516Y-94430908D01*
X101682671Y-94481202D01*
X101682664Y-94481206D01*
X101567455Y-94567452D01*
X101567452Y-94567455D01*
X101481206Y-94682664D01*
X101481202Y-94682671D01*
X101430908Y-94817517D01*
X101424501Y-94877116D01*
X101424500Y-94877135D01*
X101424500Y-95255663D01*
X101404815Y-95322702D01*
X101388181Y-95343344D01*
X97846174Y-98885351D01*
X97846172Y-98885354D01*
X97828629Y-98909500D01*
X97730476Y-99044594D01*
X97641117Y-99219971D01*
X97590024Y-99377219D01*
X97590023Y-99377221D01*
X97580292Y-99407166D01*
X97580291Y-99407172D01*
X97549500Y-99601577D01*
X97250500Y-99601577D01*
X97250500Y-90565675D01*
X101424500Y-90565675D01*
X101424500Y-90774324D01*
X101457137Y-90980389D01*
X101521612Y-91178820D01*
X101566441Y-91266801D01*
X101616330Y-91364714D01*
X101738965Y-91533505D01*
X101886495Y-91681035D01*
X102055286Y-91803670D01*
X102140077Y-91846873D01*
X102241179Y-91898387D01*
X102241181Y-91898387D01*
X102241184Y-91898389D01*
X102334336Y-91928656D01*
X102439610Y-91962862D01*
X102645676Y-91995500D01*
X102645681Y-91995500D01*
X102854324Y-91995500D01*
X103060389Y-91962862D01*
X103108533Y-91947219D01*
X103258816Y-91898389D01*
X103444714Y-91803670D01*
X103613505Y-91681035D01*
X103761035Y-91533505D01*
X103883670Y-91364714D01*
X103978389Y-91178816D01*
X104042862Y-90980389D01*
X104075500Y-90774324D01*
X104075500Y-90565675D01*
X104042862Y-90359610D01*
X103995345Y-90213369D01*
X103978389Y-90161184D01*
X103978387Y-90161181D01*
X103978387Y-90161179D01*
X103928421Y-90063116D01*
X103883670Y-89975286D01*
X103761035Y-89806495D01*
X103613505Y-89658965D01*
X103444714Y-89536330D01*
X103412843Y-89520091D01*
X103258820Y-89441612D01*
X103060389Y-89377137D01*
X102854324Y-89344500D01*
X102854319Y-89344500D01*
X102645681Y-89344500D01*
X102645676Y-89344500D01*
X102439610Y-89377137D01*
X102241179Y-89441612D01*
X102055285Y-89536330D01*
X101886493Y-89658966D01*
X101738966Y-89806493D01*
X101616330Y-89975285D01*
X101521612Y-90161179D01*
X101457137Y-90359610D01*
X101424500Y-90565675D01*
X97250500Y-90565675D01*
X97250500Y-82647648D01*
X102949500Y-82647648D01*
X102949500Y-82852351D01*
X102981522Y-83054534D01*
X103044781Y-83249223D01*
X103108691Y-83374653D01*
X103116398Y-83389778D01*
X103137715Y-83431613D01*
X103258028Y-83597213D01*
X103402786Y-83741971D01*
X103557749Y-83854556D01*
X103568390Y-83862287D01*
X103684607Y-83921503D01*
X103750776Y-83955218D01*
X103750778Y-83955218D01*
X103750781Y-83955220D01*
X103824655Y-83979223D01*
X103945465Y-84018477D01*
X104046557Y-84034488D01*
X104147648Y-84050500D01*
X104147649Y-84050500D01*
X104352351Y-84050500D01*
X104352352Y-84050500D01*
X104554534Y-84018477D01*
X104749219Y-83955220D01*
X104931610Y-83862287D01*
X105038629Y-83784534D01*
X105097213Y-83741971D01*
X105097215Y-83741968D01*
X105097219Y-83741966D01*
X105241966Y-83597219D01*
X105241968Y-83597215D01*
X105241971Y-83597213D01*
X105294732Y-83524590D01*
X105362287Y-83431610D01*
X105455220Y-83249219D01*
X105518477Y-83054534D01*
X105550500Y-82852352D01*
X105550500Y-82647648D01*
X105518477Y-82445466D01*
X105514022Y-82431756D01*
X105471922Y-82302185D01*
X105455220Y-82250781D01*
X105455218Y-82250778D01*
X105455218Y-82250776D01*
X105421503Y-82184607D01*
X105362287Y-82068390D01*
X105349920Y-82051368D01*
X105241971Y-81902786D01*
X105097213Y-81758028D01*
X104931613Y-81637715D01*
X104931612Y-81637714D01*
X104931610Y-81637713D01*
X104874653Y-81608691D01*
X104749223Y-81544781D01*
X104554534Y-81481522D01*
X104379995Y-81453878D01*
X104352352Y-81449500D01*
X104147648Y-81449500D01*
X104123329Y-81453351D01*
X103945465Y-81481522D01*
X103750776Y-81544781D01*
X103568386Y-81637715D01*
X103402786Y-81758028D01*
X103258028Y-81902786D01*
X103137715Y-82068386D01*
X103044781Y-82250776D01*
X102981522Y-82445465D01*
X102949500Y-82647648D01*
X97250500Y-82647648D01*
X97250500Y-80837648D01*
X117959500Y-80837648D01*
X117959500Y-81042351D01*
X117991522Y-81244534D01*
X118054781Y-81439223D01*
X118147715Y-81621613D01*
X118268028Y-81787213D01*
X118412786Y-81931971D01*
X118567749Y-82044556D01*
X118578390Y-82052287D01*
X118669840Y-82098883D01*
X118671080Y-82099515D01*
X118721876Y-82147490D01*
X118738671Y-82215311D01*
X118716134Y-82281446D01*
X118671080Y-82320485D01*
X118578386Y-82367715D01*
X118412786Y-82488028D01*
X118268028Y-82632786D01*
X118147715Y-82798386D01*
X118054781Y-82980776D01*
X117991522Y-83175465D01*
X117959500Y-83377648D01*
X117959500Y-83582351D01*
X117991522Y-83784534D01*
X118054781Y-83979223D01*
X118147715Y-84161613D01*
X118268028Y-84327213D01*
X118412786Y-84471971D01*
X118567749Y-84584556D01*
X118578390Y-84592287D01*
X118669840Y-84638883D01*
X118671080Y-84639515D01*
X118721876Y-84687490D01*
X118738671Y-84755311D01*
X118716134Y-84821446D01*
X118671080Y-84860485D01*
X118578386Y-84907715D01*
X118412786Y-85028028D01*
X118268028Y-85172786D01*
X118147715Y-85338386D01*
X118054781Y-85520776D01*
X117991522Y-85715465D01*
X117959500Y-85917648D01*
X117959500Y-86122351D01*
X117991522Y-86324534D01*
X118054781Y-86519223D01*
X118147715Y-86701613D01*
X118268028Y-86867213D01*
X118412786Y-87011971D01*
X118567749Y-87124556D01*
X118578390Y-87132287D01*
X118669840Y-87178883D01*
X118671080Y-87179515D01*
X118721876Y-87227490D01*
X118738671Y-87295311D01*
X118716134Y-87361446D01*
X118671080Y-87400485D01*
X118578386Y-87447715D01*
X118412786Y-87568028D01*
X118268028Y-87712786D01*
X118147715Y-87878386D01*
X118054781Y-88060776D01*
X117991522Y-88255465D01*
X117959500Y-88457648D01*
X117959500Y-88662351D01*
X117991522Y-88864534D01*
X118054781Y-89059223D01*
X118118691Y-89184653D01*
X118126611Y-89200196D01*
X118147715Y-89241613D01*
X118268028Y-89407213D01*
X118412786Y-89551971D01*
X118560054Y-89658965D01*
X118578390Y-89672287D01*
X118669840Y-89718883D01*
X118671080Y-89719515D01*
X118721876Y-89767490D01*
X118738671Y-89835311D01*
X118716134Y-89901446D01*
X118671080Y-89940485D01*
X118578386Y-89987715D01*
X118412786Y-90108028D01*
X118268028Y-90252786D01*
X118147715Y-90418386D01*
X118054781Y-90600776D01*
X117991522Y-90795465D01*
X117959500Y-90997648D01*
X117959500Y-91202351D01*
X117991522Y-91404534D01*
X118054781Y-91599223D01*
X118080674Y-91650039D01*
X118146554Y-91779336D01*
X118147715Y-91781613D01*
X118268028Y-91947213D01*
X118412786Y-92091971D01*
X118558884Y-92198115D01*
X118578390Y-92212287D01*
X118669840Y-92258883D01*
X118671080Y-92259515D01*
X118721876Y-92307490D01*
X118738671Y-92375311D01*
X118716134Y-92441446D01*
X118671080Y-92480485D01*
X118578386Y-92527715D01*
X118412786Y-92648028D01*
X118268028Y-92792786D01*
X118147715Y-92958386D01*
X118054781Y-93140776D01*
X117991522Y-93335465D01*
X117966268Y-93494918D01*
X117959500Y-93537648D01*
X117959500Y-93742352D01*
X117963878Y-93769995D01*
X117991522Y-93944534D01*
X118054781Y-94139223D01*
X118117105Y-94261538D01*
X118142961Y-94312284D01*
X118147715Y-94321613D01*
X118268028Y-94487213D01*
X118412786Y-94631971D01*
X118541260Y-94725311D01*
X118578390Y-94752287D01*
X118643441Y-94785432D01*
X118671080Y-94799515D01*
X118721876Y-94847490D01*
X118738671Y-94915311D01*
X118716134Y-94981446D01*
X118671080Y-95020485D01*
X118578386Y-95067715D01*
X118412786Y-95188028D01*
X118268028Y-95332786D01*
X118147715Y-95498386D01*
X118054781Y-95680776D01*
X117991522Y-95875465D01*
X117971029Y-96004856D01*
X117959500Y-96077648D01*
X117959500Y-96282352D01*
X117963878Y-96309995D01*
X117991522Y-96484534D01*
X118054781Y-96679223D01*
X118147715Y-96861613D01*
X118268028Y-97027213D01*
X118412786Y-97171971D01*
X118532615Y-97259030D01*
X118578390Y-97292287D01*
X118668144Y-97338019D01*
X118671080Y-97339515D01*
X118721876Y-97387490D01*
X118738671Y-97455311D01*
X118716134Y-97521446D01*
X118671080Y-97560485D01*
X118578386Y-97607715D01*
X118412786Y-97728028D01*
X118268028Y-97872786D01*
X118147715Y-98038386D01*
X118054781Y-98220776D01*
X117991522Y-98415465D01*
X117959500Y-98617648D01*
X117959500Y-98822352D01*
X117963878Y-98849995D01*
X117991522Y-99024534D01*
X118054781Y-99219223D01*
X118147715Y-99401613D01*
X118268028Y-99567213D01*
X118412786Y-99711971D01*
X118567749Y-99824556D01*
X118578390Y-99832287D01*
X118669840Y-99878883D01*
X118671080Y-99879515D01*
X118721876Y-99927490D01*
X118738671Y-99995311D01*
X118716134Y-100061446D01*
X118671080Y-100100485D01*
X118578386Y-100147715D01*
X118412786Y-100268028D01*
X118268028Y-100412786D01*
X118147715Y-100578386D01*
X118054781Y-100760776D01*
X117991522Y-100955465D01*
X117959500Y-101157648D01*
X117959500Y-101362352D01*
X117962192Y-101379347D01*
X117991522Y-101564534D01*
X118054781Y-101759223D01*
X118147715Y-101941613D01*
X118268028Y-102107213D01*
X118412786Y-102251971D01*
X118541260Y-102345311D01*
X118578390Y-102372287D01*
X118643441Y-102405432D01*
X118671080Y-102419515D01*
X118721876Y-102467490D01*
X118738671Y-102535311D01*
X118716134Y-102601446D01*
X118671080Y-102640485D01*
X118578386Y-102687715D01*
X118412786Y-102808028D01*
X118268028Y-102952786D01*
X118147715Y-103118386D01*
X118054781Y-103300776D01*
X117991522Y-103495465D01*
X117965213Y-103661577D01*
X117959500Y-103697648D01*
X117959500Y-103902352D01*
X117963878Y-103929995D01*
X117991522Y-104104534D01*
X118054781Y-104299223D01*
X118116458Y-104420268D01*
X118145504Y-104477275D01*
X118147715Y-104481613D01*
X118268028Y-104647213D01*
X118412786Y-104791971D01*
X118541260Y-104885311D01*
X118578390Y-104912287D01*
X118651425Y-104949500D01*
X118671080Y-104959515D01*
X118721876Y-105007490D01*
X118738671Y-105075311D01*
X118716134Y-105141446D01*
X118671080Y-105180485D01*
X118578386Y-105227715D01*
X118412786Y-105348028D01*
X118268028Y-105492786D01*
X118147715Y-105658386D01*
X118054781Y-105840776D01*
X117991522Y-106035465D01*
X117959500Y-106237648D01*
X117959500Y-106442352D01*
X117963878Y-106469995D01*
X117991522Y-106644534D01*
X118054781Y-106839223D01*
X118147715Y-107021613D01*
X118268028Y-107187213D01*
X118412786Y-107331971D01*
X118541260Y-107425311D01*
X118578390Y-107452287D01*
X118643441Y-107485432D01*
X118760776Y-107545218D01*
X118760778Y-107545218D01*
X118760781Y-107545220D01*
X118860784Y-107577713D01*
X118955465Y-107608477D01*
X118974697Y-107611523D01*
X119157648Y-107640500D01*
X119157649Y-107640500D01*
X119362351Y-107640500D01*
X119362352Y-107640500D01*
X119564534Y-107608477D01*
X119759219Y-107545220D01*
X119941610Y-107452287D01*
X120034590Y-107384732D01*
X120107213Y-107331971D01*
X120107215Y-107331968D01*
X120107219Y-107331966D01*
X120251966Y-107187219D01*
X120251968Y-107187215D01*
X120251971Y-107187213D01*
X120316145Y-107098883D01*
X120372287Y-107021610D01*
X120465220Y-106839219D01*
X120528477Y-106644534D01*
X120560500Y-106442352D01*
X120560500Y-106237648D01*
X120538949Y-106101583D01*
X120528477Y-106035465D01*
X120485073Y-105901883D01*
X120465220Y-105840781D01*
X120465218Y-105840778D01*
X120465218Y-105840776D01*
X120404142Y-105720909D01*
X120372287Y-105658390D01*
X120345641Y-105621714D01*
X120251971Y-105492786D01*
X120107213Y-105348028D01*
X119941614Y-105227715D01*
X119935006Y-105224348D01*
X119848917Y-105180483D01*
X119798123Y-105132511D01*
X119781328Y-105064690D01*
X119803865Y-104998555D01*
X119848917Y-104959516D01*
X119941610Y-104912287D01*
X119994421Y-104873918D01*
X120107213Y-104791971D01*
X120107215Y-104791968D01*
X120107219Y-104791966D01*
X120251966Y-104647219D01*
X120251968Y-104647215D01*
X120251971Y-104647213D01*
X120304732Y-104574590D01*
X120372287Y-104481610D01*
X120465220Y-104299219D01*
X120528477Y-104104534D01*
X120560500Y-103902352D01*
X120560500Y-103697648D01*
X120531395Y-103513887D01*
X120528477Y-103495465D01*
X120493347Y-103387347D01*
X120465220Y-103300781D01*
X120465218Y-103300778D01*
X120465218Y-103300776D01*
X120421705Y-103215379D01*
X120372287Y-103118390D01*
X120354326Y-103093669D01*
X120251971Y-102952786D01*
X120107213Y-102808028D01*
X119941614Y-102687715D01*
X119935006Y-102684348D01*
X119848917Y-102640483D01*
X119798123Y-102592511D01*
X119781328Y-102524690D01*
X119803865Y-102458555D01*
X119848917Y-102419516D01*
X119941610Y-102372287D01*
X120014932Y-102319016D01*
X120107213Y-102251971D01*
X120107215Y-102251968D01*
X120107219Y-102251966D01*
X120251966Y-102107219D01*
X120251968Y-102107215D01*
X120251971Y-102107213D01*
X120320021Y-102013548D01*
X120372287Y-101941610D01*
X120465220Y-101759219D01*
X120528477Y-101564534D01*
X120560500Y-101362352D01*
X120560500Y-101157648D01*
X120539889Y-101027516D01*
X120528477Y-100955465D01*
X120483967Y-100818479D01*
X120465220Y-100760781D01*
X120465218Y-100760778D01*
X120465218Y-100760776D01*
X120417506Y-100667137D01*
X120372287Y-100578390D01*
X120364556Y-100567749D01*
X120251971Y-100412786D01*
X120107213Y-100268028D01*
X119941614Y-100147715D01*
X119935006Y-100144348D01*
X119848917Y-100100483D01*
X119798123Y-100052511D01*
X119781328Y-99984690D01*
X119803865Y-99918555D01*
X119848917Y-99879516D01*
X119941610Y-99832287D01*
X119962770Y-99816913D01*
X120107213Y-99711971D01*
X120107215Y-99711968D01*
X120107219Y-99711966D01*
X120251966Y-99567219D01*
X120251968Y-99567215D01*
X120251971Y-99567213D01*
X120304732Y-99494590D01*
X120372287Y-99401610D01*
X120465220Y-99219219D01*
X120528477Y-99024534D01*
X120560500Y-98822352D01*
X120560500Y-98617648D01*
X120528477Y-98415465D01*
X120465218Y-98220776D01*
X120431503Y-98154607D01*
X120372287Y-98038390D01*
X120364556Y-98027749D01*
X120251971Y-97872786D01*
X120107213Y-97728028D01*
X119941614Y-97607715D01*
X119885071Y-97578905D01*
X119848917Y-97560483D01*
X119798123Y-97512511D01*
X119781328Y-97444690D01*
X119803865Y-97378555D01*
X119848917Y-97339516D01*
X119941610Y-97292287D01*
X120020692Y-97234831D01*
X120107213Y-97171971D01*
X120107215Y-97171968D01*
X120107219Y-97171966D01*
X120251966Y-97027219D01*
X120251968Y-97027215D01*
X120251971Y-97027213D01*
X120304732Y-96954590D01*
X120372287Y-96861610D01*
X120465220Y-96679219D01*
X120528477Y-96484534D01*
X120560500Y-96282352D01*
X120560500Y-96077648D01*
X120548971Y-96004856D01*
X120528477Y-95875465D01*
X120491217Y-95760792D01*
X120465220Y-95680781D01*
X120465218Y-95680778D01*
X120465218Y-95680776D01*
X120431503Y-95614607D01*
X120372287Y-95498390D01*
X120364556Y-95487749D01*
X120251971Y-95332786D01*
X120107213Y-95188028D01*
X119941614Y-95067715D01*
X119879707Y-95036172D01*
X119848917Y-95020483D01*
X119798123Y-94972511D01*
X119781328Y-94904690D01*
X119803865Y-94838555D01*
X119848917Y-94799516D01*
X119941610Y-94752287D01*
X120037439Y-94682664D01*
X120107213Y-94631971D01*
X120107215Y-94631968D01*
X120107219Y-94631966D01*
X120251966Y-94487219D01*
X120251968Y-94487215D01*
X120251971Y-94487213D01*
X120327659Y-94383035D01*
X120372287Y-94321610D01*
X120465220Y-94139219D01*
X120528477Y-93944534D01*
X120560500Y-93742352D01*
X120560500Y-93537648D01*
X120536425Y-93385646D01*
X120528477Y-93335465D01*
X120465218Y-93140776D01*
X120431503Y-93074607D01*
X120372287Y-92958390D01*
X120326575Y-92895472D01*
X120251971Y-92792786D01*
X120107213Y-92648028D01*
X119941614Y-92527715D01*
X119935006Y-92524348D01*
X119848917Y-92480483D01*
X119798123Y-92432511D01*
X119781328Y-92364690D01*
X119803865Y-92298555D01*
X119848917Y-92259516D01*
X119941610Y-92212287D01*
X120028030Y-92149500D01*
X120107213Y-92091971D01*
X120107215Y-92091968D01*
X120107219Y-92091966D01*
X120251966Y-91947219D01*
X120251968Y-91947215D01*
X120251971Y-91947213D01*
X120324871Y-91846873D01*
X120372287Y-91781610D01*
X120465220Y-91599219D01*
X120528477Y-91404534D01*
X120560500Y-91202352D01*
X120560500Y-90997648D01*
X120528477Y-90795466D01*
X120528030Y-90794091D01*
X120465218Y-90600776D01*
X120430386Y-90532416D01*
X120372287Y-90418390D01*
X120329582Y-90359611D01*
X120251971Y-90252786D01*
X120107213Y-90108028D01*
X119941614Y-89987715D01*
X119921729Y-89977583D01*
X119848917Y-89940483D01*
X119798123Y-89892511D01*
X119781328Y-89824690D01*
X119803865Y-89758555D01*
X119848917Y-89719516D01*
X119941610Y-89672287D01*
X120013576Y-89620001D01*
X120107213Y-89551971D01*
X120107215Y-89551968D01*
X120107219Y-89551966D01*
X120251966Y-89407219D01*
X120251968Y-89407215D01*
X120251971Y-89407213D01*
X120304732Y-89334590D01*
X120372287Y-89241610D01*
X120465220Y-89059219D01*
X120528477Y-88864534D01*
X120560500Y-88662352D01*
X120560500Y-88457648D01*
X120548426Y-88381416D01*
X120528477Y-88255465D01*
X120471801Y-88081036D01*
X120465220Y-88060781D01*
X120465218Y-88060778D01*
X120465218Y-88060776D01*
X120431503Y-87994607D01*
X120372287Y-87878390D01*
X120319627Y-87805909D01*
X120251971Y-87712786D01*
X120107213Y-87568028D01*
X119941614Y-87447715D01*
X119935006Y-87444348D01*
X119848917Y-87400483D01*
X119798123Y-87352511D01*
X119781328Y-87284690D01*
X119803865Y-87218555D01*
X119848917Y-87179516D01*
X119941610Y-87132287D01*
X119962770Y-87116913D01*
X120107213Y-87011971D01*
X120107215Y-87011968D01*
X120107219Y-87011966D01*
X120251966Y-86867219D01*
X120251968Y-86867215D01*
X120251971Y-86867213D01*
X120304732Y-86794590D01*
X120372287Y-86701610D01*
X120465220Y-86519219D01*
X120528477Y-86324534D01*
X120560500Y-86122352D01*
X120560500Y-85917648D01*
X120528477Y-85715466D01*
X120465220Y-85520781D01*
X120465218Y-85520778D01*
X120465218Y-85520776D01*
X120431503Y-85454607D01*
X120372287Y-85338390D01*
X120321854Y-85268974D01*
X120251971Y-85172786D01*
X120107213Y-85028028D01*
X119941614Y-84907715D01*
X119914875Y-84894091D01*
X119848917Y-84860483D01*
X119798123Y-84812511D01*
X119781328Y-84744690D01*
X119803865Y-84678555D01*
X119848917Y-84639516D01*
X119941610Y-84592287D01*
X119962770Y-84576913D01*
X120107213Y-84471971D01*
X120107215Y-84471968D01*
X120107219Y-84471966D01*
X120251966Y-84327219D01*
X120251968Y-84327215D01*
X120251971Y-84327213D01*
X120319677Y-84234022D01*
X120372287Y-84161610D01*
X120465220Y-83979219D01*
X120528477Y-83784534D01*
X120560500Y-83582352D01*
X120560500Y-83377648D01*
X120528477Y-83175466D01*
X120524606Y-83163553D01*
X120465218Y-82980776D01*
X120399782Y-82852352D01*
X120372287Y-82798390D01*
X120364556Y-82787749D01*
X120251971Y-82632786D01*
X120107213Y-82488028D01*
X119941614Y-82367715D01*
X119921901Y-82357671D01*
X119848917Y-82320483D01*
X119798123Y-82272511D01*
X119781328Y-82204690D01*
X119803865Y-82138555D01*
X119848917Y-82099516D01*
X119941610Y-82052287D01*
X119962770Y-82036913D01*
X120107213Y-81931971D01*
X120107215Y-81931968D01*
X120107219Y-81931966D01*
X120251966Y-81787219D01*
X120251968Y-81787215D01*
X120251971Y-81787213D01*
X120304732Y-81714590D01*
X120372287Y-81621610D01*
X120465220Y-81439219D01*
X120528477Y-81244534D01*
X120560500Y-81042352D01*
X120560500Y-80837648D01*
X120528477Y-80635465D01*
X120465218Y-80440776D01*
X120431503Y-80374607D01*
X120372287Y-80258390D01*
X120356344Y-80236446D01*
X120251971Y-80092786D01*
X120107213Y-79948028D01*
X119941613Y-79827715D01*
X119941612Y-79827714D01*
X119941610Y-79827713D01*
X119884653Y-79798691D01*
X119759223Y-79734781D01*
X119564534Y-79671522D01*
X119389995Y-79643878D01*
X119362352Y-79639500D01*
X119157648Y-79639500D01*
X119133329Y-79643351D01*
X118955465Y-79671522D01*
X118760776Y-79734781D01*
X118578386Y-79827715D01*
X118412786Y-79948028D01*
X118268028Y-80092786D01*
X118147715Y-80258386D01*
X118054781Y-80440776D01*
X117991522Y-80635465D01*
X117959500Y-80837648D01*
X97250500Y-80837648D01*
X97250500Y-77897648D01*
X110199500Y-77897648D01*
X110199500Y-78102351D01*
X110231522Y-78304534D01*
X110294781Y-78499223D01*
X110387715Y-78681613D01*
X110508028Y-78847213D01*
X110652786Y-78991971D01*
X110807749Y-79104556D01*
X110818390Y-79112287D01*
X110934607Y-79171503D01*
X111000776Y-79205218D01*
X111000778Y-79205218D01*
X111000781Y-79205220D01*
X111105137Y-79239127D01*
X111195465Y-79268477D01*
X111296557Y-79284488D01*
X111397648Y-79300500D01*
X111397649Y-79300500D01*
X111602351Y-79300500D01*
X111602352Y-79300500D01*
X111804534Y-79268477D01*
X111999219Y-79205220D01*
X112181610Y-79112287D01*
X112274590Y-79044732D01*
X112347213Y-78991971D01*
X112347215Y-78991968D01*
X112347219Y-78991966D01*
X112491966Y-78847219D01*
X112491968Y-78847215D01*
X112491971Y-78847213D01*
X112544732Y-78774590D01*
X112612287Y-78681610D01*
X112705220Y-78499219D01*
X112768477Y-78304534D01*
X112800500Y-78102352D01*
X112800500Y-77897648D01*
X112768477Y-77695466D01*
X112705220Y-77500781D01*
X112705218Y-77500778D01*
X112705218Y-77500776D01*
X112669976Y-77431610D01*
X112612287Y-77318390D01*
X112562032Y-77249219D01*
X112491971Y-77152786D01*
X112347213Y-77008028D01*
X112181613Y-76887715D01*
X112181612Y-76887714D01*
X112181610Y-76887713D01*
X112112208Y-76852351D01*
X111999223Y-76794781D01*
X111804534Y-76731522D01*
X111629995Y-76703878D01*
X111602352Y-76699500D01*
X111397648Y-76699500D01*
X111373329Y-76703351D01*
X111195465Y-76731522D01*
X111000776Y-76794781D01*
X110818386Y-76887715D01*
X110652786Y-77008028D01*
X110508028Y-77152786D01*
X110387715Y-77318386D01*
X110294781Y-77500776D01*
X110231522Y-77695465D01*
X110199500Y-77897648D01*
X97250500Y-77897648D01*
X97250500Y-74643713D01*
X101689500Y-74643713D01*
X101689500Y-74856286D01*
X101722753Y-75066239D01*
X101788444Y-75268414D01*
X101884951Y-75457820D01*
X102009890Y-75629786D01*
X102160213Y-75780109D01*
X102332179Y-75905048D01*
X102332181Y-75905049D01*
X102332184Y-75905051D01*
X102521588Y-76001557D01*
X102723757Y-76067246D01*
X102933713Y-76100500D01*
X102933714Y-76100500D01*
X103146286Y-76100500D01*
X103146287Y-76100500D01*
X103356243Y-76067246D01*
X103558412Y-76001557D01*
X103747816Y-75905051D01*
X103769789Y-75889086D01*
X103919786Y-75780109D01*
X103919788Y-75780106D01*
X103919792Y-75780104D01*
X104070104Y-75629792D01*
X104070106Y-75629788D01*
X104070109Y-75629786D01*
X104195048Y-75457820D01*
X104195047Y-75457820D01*
X104195051Y-75457816D01*
X104199514Y-75449054D01*
X104247488Y-75398259D01*
X104315308Y-75381463D01*
X104381444Y-75403999D01*
X104420486Y-75449056D01*
X104424951Y-75457820D01*
X104549890Y-75629786D01*
X104700213Y-75780109D01*
X104872179Y-75905048D01*
X104872181Y-75905049D01*
X104872184Y-75905051D01*
X105061588Y-76001557D01*
X105263757Y-76067246D01*
X105473713Y-76100500D01*
X105473714Y-76100500D01*
X105686286Y-76100500D01*
X105686287Y-76100500D01*
X105896243Y-76067246D01*
X106098412Y-76001557D01*
X106287816Y-75905051D01*
X106309789Y-75889086D01*
X106459786Y-75780109D01*
X106459788Y-75780106D01*
X106459792Y-75780104D01*
X106610104Y-75629792D01*
X106610106Y-75629788D01*
X106610109Y-75629786D01*
X106735048Y-75457820D01*
X106735047Y-75457820D01*
X106735051Y-75457816D01*
X106831557Y-75268412D01*
X106897246Y-75066243D01*
X106930500Y-74856287D01*
X106930500Y-74643713D01*
X106897246Y-74433757D01*
X106831557Y-74231588D01*
X106735051Y-74042184D01*
X106735049Y-74042181D01*
X106735048Y-74042179D01*
X106610109Y-73870213D01*
X106459786Y-73719890D01*
X106287820Y-73594951D01*
X106098414Y-73498444D01*
X106098413Y-73498443D01*
X106098412Y-73498443D01*
X105896243Y-73432754D01*
X105896241Y-73432753D01*
X105896240Y-73432753D01*
X105734957Y-73407208D01*
X105686287Y-73399500D01*
X105473713Y-73399500D01*
X105425042Y-73407208D01*
X105263760Y-73432753D01*
X105061585Y-73498444D01*
X104872179Y-73594951D01*
X104700213Y-73719890D01*
X104549890Y-73870213D01*
X104424949Y-74042182D01*
X104420484Y-74050946D01*
X104372509Y-74101742D01*
X104304688Y-74118536D01*
X104238553Y-74095998D01*
X104199516Y-74050946D01*
X104195050Y-74042182D01*
X104070109Y-73870213D01*
X103919786Y-73719890D01*
X103747820Y-73594951D01*
X103558414Y-73498444D01*
X103558413Y-73498443D01*
X103558412Y-73498443D01*
X103356243Y-73432754D01*
X103356241Y-73432753D01*
X103356240Y-73432753D01*
X103194957Y-73407208D01*
X103146287Y-73399500D01*
X102933713Y-73399500D01*
X102885042Y-73407208D01*
X102723760Y-73432753D01*
X102521585Y-73498444D01*
X102332179Y-73594951D01*
X102160213Y-73719890D01*
X102009890Y-73870213D01*
X101884951Y-74042179D01*
X101788444Y-74231585D01*
X101722753Y-74433760D01*
X101689500Y-74643713D01*
X97250500Y-74643713D01*
X97250500Y-70893713D01*
X101689500Y-70893713D01*
X101689500Y-71106286D01*
X101722753Y-71316239D01*
X101722753Y-71316241D01*
X101722754Y-71316243D01*
X101787068Y-71514181D01*
X101788444Y-71518414D01*
X101884951Y-71707820D01*
X102009890Y-71879786D01*
X102160213Y-72030109D01*
X102332179Y-72155048D01*
X102332181Y-72155049D01*
X102332184Y-72155051D01*
X102521588Y-72251557D01*
X102723757Y-72317246D01*
X102933713Y-72350500D01*
X102933714Y-72350500D01*
X103146286Y-72350500D01*
X103146287Y-72350500D01*
X103356243Y-72317246D01*
X103558412Y-72251557D01*
X103747816Y-72155051D01*
X103822900Y-72100500D01*
X103919786Y-72030109D01*
X103919788Y-72030106D01*
X103919792Y-72030104D01*
X104070104Y-71879792D01*
X104070106Y-71879788D01*
X104070109Y-71879786D01*
X104195048Y-71707820D01*
X104195047Y-71707820D01*
X104195051Y-71707816D01*
X104199514Y-71699054D01*
X104247488Y-71648259D01*
X104315308Y-71631463D01*
X104381444Y-71653999D01*
X104420486Y-71699056D01*
X104424951Y-71707820D01*
X104549890Y-71879786D01*
X104700213Y-72030109D01*
X104872179Y-72155048D01*
X104872181Y-72155049D01*
X104872184Y-72155051D01*
X105061588Y-72251557D01*
X105263757Y-72317246D01*
X105473713Y-72350500D01*
X105473714Y-72350500D01*
X105686286Y-72350500D01*
X105686287Y-72350500D01*
X105896243Y-72317246D01*
X106098412Y-72251557D01*
X106287816Y-72155051D01*
X106362900Y-72100500D01*
X106459786Y-72030109D01*
X106459788Y-72030106D01*
X106459792Y-72030104D01*
X106610104Y-71879792D01*
X106610106Y-71879788D01*
X106610109Y-71879786D01*
X106735048Y-71707820D01*
X106735047Y-71707820D01*
X106735051Y-71707816D01*
X106831557Y-71518412D01*
X106897246Y-71316243D01*
X106930500Y-71106287D01*
X106930500Y-70893713D01*
X106897246Y-70683757D01*
X106831557Y-70481588D01*
X106735051Y-70292184D01*
X106735049Y-70292181D01*
X106735048Y-70292179D01*
X106610109Y-70120213D01*
X106459786Y-69969890D01*
X106287820Y-69844951D01*
X106098414Y-69748444D01*
X106098413Y-69748443D01*
X106098412Y-69748443D01*
X105896243Y-69682754D01*
X105896241Y-69682753D01*
X105896240Y-69682753D01*
X105734957Y-69657208D01*
X105686287Y-69649500D01*
X105473713Y-69649500D01*
X105425042Y-69657208D01*
X105263760Y-69682753D01*
X105061585Y-69748444D01*
X104872179Y-69844951D01*
X104700213Y-69969890D01*
X104549890Y-70120213D01*
X104424949Y-70292182D01*
X104420484Y-70300946D01*
X104372509Y-70351742D01*
X104304688Y-70368536D01*
X104238553Y-70345998D01*
X104199516Y-70300946D01*
X104195050Y-70292182D01*
X104070109Y-70120213D01*
X103919786Y-69969890D01*
X103747820Y-69844951D01*
X103558414Y-69748444D01*
X103558413Y-69748443D01*
X103558412Y-69748443D01*
X103356243Y-69682754D01*
X103356241Y-69682753D01*
X103356240Y-69682753D01*
X103194957Y-69657208D01*
X103146287Y-69649500D01*
X102933713Y-69649500D01*
X102885042Y-69657208D01*
X102723760Y-69682753D01*
X102521585Y-69748444D01*
X102332179Y-69844951D01*
X102160213Y-69969890D01*
X102009890Y-70120213D01*
X101884951Y-70292179D01*
X101788444Y-70481585D01*
X101722753Y-70683760D01*
X101689500Y-70893713D01*
X97250500Y-70893713D01*
X97250500Y-68124500D01*
X97270185Y-68057461D01*
X97322989Y-68011706D01*
X97374500Y-68000500D01*
X119250903Y-68000500D01*
X119317942Y-68020185D01*
G37*
%TD.AperFunction*%
%TD*%
M02*
