%TF.GenerationSoftware,KiCad,Pcbnew,9.0.7-9.0.7~ubuntu24.04.1*%
%TF.CreationDate,2026-02-19T19:46:41+05:30*%
%TF.ProjectId,Arduino-nano-compatible-shield,41726475-696e-46f2-9d6e-616e6f2d636f,rev?*%
%TF.SameCoordinates,Original*%
%TF.FileFunction,Soldermask,Top*%
%TF.FilePolarity,Negative*%
%FSLAX46Y46*%
G04 Gerber Fmt 4.6, Leading zero omitted, Abs format (unit mm)*
G04 Created by KiCad (PCBNEW 9.0.7-9.0.7~ubuntu24.04.1) date 2026-02-19 19:46:41*
%MOMM*%
%LPD*%
G01*
G04 APERTURE LIST*
G04 Aperture macros list*
%AMRoundRect*
0 Rectangle with rounded corners*
0 $1 Rounding radius*
0 $2 $3 $4 $5 $6 $7 $8 $9 X,Y pos of 4 corners*
0 Add a 4 corners polygon primitive as box body*
4,1,4,$2,$3,$4,$5,$6,$7,$8,$9,$2,$3,0*
0 Add four circle primitives for the rounded corners*
1,1,$1+$1,$2,$3*
1,1,$1+$1,$4,$5*
1,1,$1+$1,$6,$7*
1,1,$1+$1,$8,$9*
0 Add four rect primitives between the rounded corners*
20,1,$1+$1,$2,$3,$4,$5,0*
20,1,$1+$1,$4,$5,$6,$7,0*
20,1,$1+$1,$6,$7,$8,$9,0*
20,1,$1+$1,$8,$9,$2,$3,0*%
G04 Aperture macros list end*
%ADD10C,1.600000*%
%ADD11RoundRect,0.250000X-0.550000X0.550000X-0.550000X-0.550000X0.550000X-0.550000X0.550000X0.550000X0*%
%ADD12R,1.700000X1.700000*%
%ADD13C,1.700000*%
%ADD14R,2.000000X2.000000*%
%ADD15C,2.000000*%
%ADD16RoundRect,0.250000X-0.550000X-0.550000X0.550000X-0.550000X0.550000X0.550000X-0.550000X0.550000X0*%
%ADD17R,2.000000X1.905000*%
%ADD18O,2.000000X1.905000*%
%ADD19R,1.800000X1.800000*%
%ADD20C,1.800000*%
%ADD21RoundRect,0.102000X0.825000X-0.825000X0.825000X0.825000X-0.825000X0.825000X-0.825000X-0.825000X0*%
%ADD22C,1.854000*%
%ADD23RoundRect,0.102000X-0.825000X0.825000X-0.825000X-0.825000X0.825000X-0.825000X0.825000X0.825000X0*%
%ADD24R,1.600000X1.600000*%
%ADD25O,1.600000X1.600000*%
G04 APERTURE END LIST*
D10*
%TO.C,R1*%
X138800000Y-93200000D03*
X141340000Y-93200000D03*
%TD*%
D11*
%TO.C,C7*%
X112000000Y-102097349D03*
D10*
X112000000Y-105597349D03*
%TD*%
%TO.C,C3*%
X109500000Y-110000000D03*
X109500000Y-112500000D03*
%TD*%
%TO.C,C1*%
X109000000Y-78000000D03*
X111500000Y-78000000D03*
%TD*%
D12*
%TO.C,J8*%
X130500000Y-70750000D03*
D13*
X127960000Y-70750000D03*
X125420000Y-70750000D03*
X122880000Y-70750000D03*
%TD*%
D14*
%TO.C,BZ1*%
X145250000Y-89300000D03*
D15*
X145250000Y-81700000D03*
%TD*%
D16*
%TO.C,C2*%
X100750000Y-82750000D03*
D10*
X104250000Y-82750000D03*
%TD*%
D12*
%TO.C,J10*%
X100500000Y-74750000D03*
D13*
X103040000Y-74750000D03*
X105580000Y-74750000D03*
%TD*%
D10*
%TO.C,C4*%
X114250000Y-110000000D03*
X114250000Y-112500000D03*
%TD*%
D12*
%TO.C,J7*%
X153000000Y-121080000D03*
D13*
X153000000Y-118540000D03*
X153000000Y-116000000D03*
X153000000Y-113460000D03*
%TD*%
D17*
%TO.C,U2*%
X112450000Y-96040000D03*
D18*
X112450000Y-93500000D03*
X112450000Y-90960000D03*
%TD*%
D12*
%TO.C,J4*%
X140750000Y-70750000D03*
D13*
X138210000Y-70750000D03*
X135670000Y-70750000D03*
%TD*%
D10*
%TO.C,C5*%
X100900000Y-114750000D03*
X100900000Y-112250000D03*
%TD*%
%TO.C,C6*%
X149500000Y-76750000D03*
X152000000Y-76750000D03*
%TD*%
%TO.C,C8*%
X104250000Y-112250000D03*
X104250000Y-114750000D03*
%TD*%
D19*
%TO.C,D1*%
X111750000Y-83500000D03*
D20*
X114290000Y-83500000D03*
%TD*%
D16*
%TO.C,U1*%
X123020000Y-90910000D03*
D10*
X123020000Y-93450000D03*
X123020000Y-95990000D03*
X123020000Y-98530000D03*
X123020000Y-101070000D03*
X123020000Y-103610000D03*
X123020000Y-106150000D03*
X123020000Y-108690000D03*
X130640000Y-108690000D03*
X130640000Y-106150000D03*
X130640000Y-103610000D03*
X130640000Y-101070000D03*
X130640000Y-98530000D03*
X130640000Y-95990000D03*
X130640000Y-93450000D03*
X130640000Y-90910000D03*
%TD*%
D12*
%TO.C,J6*%
X151750000Y-70750000D03*
D13*
X149210000Y-70750000D03*
X146670000Y-70750000D03*
%TD*%
D12*
%TO.C,J9*%
X100500000Y-71000000D03*
D13*
X103040000Y-71000000D03*
X105580000Y-71000000D03*
%TD*%
D21*
%TO.C,J1*%
X102750000Y-107040000D03*
D22*
X102750000Y-101960000D03*
%TD*%
D21*
%TO.C,J3*%
X102750000Y-95750000D03*
D22*
X102750000Y-90670000D03*
%TD*%
D23*
%TO.C,J2*%
X149000000Y-101960000D03*
D22*
X149000000Y-107040000D03*
%TD*%
D12*
%TO.C,J5*%
X115250000Y-71000000D03*
D13*
X112710000Y-71000000D03*
X110170000Y-71000000D03*
%TD*%
D24*
%TO.C,A1*%
X134500000Y-116500000D03*
D25*
X134500000Y-113960000D03*
X134500000Y-111420000D03*
X134500000Y-108880000D03*
X134500000Y-106340000D03*
X134500000Y-103800000D03*
X134500000Y-101260000D03*
X134500000Y-98720000D03*
X134500000Y-96180000D03*
X134500000Y-93640000D03*
X134500000Y-91100000D03*
X134500000Y-88560000D03*
X134500000Y-86020000D03*
X134500000Y-83480000D03*
X134500000Y-80940000D03*
X119260000Y-80940000D03*
X119260000Y-83480000D03*
X119260000Y-86020000D03*
X119260000Y-88560000D03*
X119260000Y-91100000D03*
X119260000Y-93640000D03*
X119260000Y-96180000D03*
X119260000Y-98720000D03*
X119260000Y-101260000D03*
X119260000Y-103800000D03*
X119260000Y-106340000D03*
X119260000Y-108880000D03*
X119260000Y-111420000D03*
X119260000Y-113960000D03*
X119260000Y-116500000D03*
%TD*%
D12*
%TO.C,J11*%
X113080000Y-120750000D03*
D13*
X110540000Y-120750000D03*
X108000000Y-120750000D03*
X105460000Y-120750000D03*
%TD*%
M02*
