M48
; DRILL file {KiCad 9.0.7-9.0.7~ubuntu24.04.1} date 2026-02-19T19:46:44+0530
; FORMAT={-:-/ absolute / metric / decimal}
; #@! TF.CreationDate,2026-02-19T19:46:44+05:30
; #@! TF.GenerationSoftware,Kicad,Pcbnew,9.0.7-9.0.7~ubuntu24.04.1
; #@! TF.FileFunction,Plated,1,2,PTH
FMAT,2
METRIC
; #@! TA.AperFunction,Plated,PTH,ViaDrill
T1C0.300
; #@! TA.AperFunction,Plated,PTH,ComponentDrill
T2C0.800
; #@! TA.AperFunction,Plated,PTH,ComponentDrill
T3C0.900
; #@! TA.AperFunction,Plated,PTH,ComponentDrill
T4C1.000
; #@! TA.AperFunction,Plated,PTH,ComponentDrill
T5C1.100
%
G90
G05
T1
X119.376Y-70.224
X119.4Y-69.4
X124.859Y-94.512
X125.2Y-106.2
X137.4Y-104.8
T2
X100.75Y-82.75
X100.9Y-112.25
X100.9Y-114.75
X104.25Y-82.75
X104.25Y-112.25
X104.25Y-114.75
X109.0Y-78.0
X109.5Y-110.0
X109.5Y-112.5
X111.5Y-78.0
X112.0Y-102.097
X112.0Y-105.597
X114.25Y-110.0
X114.25Y-112.5
X123.02Y-90.91
X123.02Y-93.45
X123.02Y-95.99
X123.02Y-98.53
X123.02Y-101.07
X123.02Y-103.61
X123.02Y-106.15
X123.02Y-108.69
X130.64Y-90.91
X130.64Y-93.45
X130.64Y-95.99
X130.64Y-98.53
X130.64Y-101.07
X130.64Y-103.61
X130.64Y-106.15
X130.64Y-108.69
X138.8Y-93.2
X141.34Y-93.2
X149.5Y-76.75
X152.0Y-76.75
T3
X111.75Y-83.5
X114.29Y-83.5
T4
X100.5Y-71.0
X100.5Y-74.75
X103.04Y-71.0
X103.04Y-74.75
X105.46Y-120.75
X105.58Y-71.0
X105.58Y-74.75
X108.0Y-120.75
X110.17Y-71.0
X110.54Y-120.75
X112.71Y-71.0
X113.08Y-120.75
X115.25Y-71.0
X119.26Y-80.94
X119.26Y-83.48
X119.26Y-86.02
X119.26Y-88.56
X119.26Y-91.1
X119.26Y-93.64
X119.26Y-96.18
X119.26Y-98.72
X119.26Y-101.26
X119.26Y-103.8
X119.26Y-106.34
X119.26Y-108.88
X119.26Y-111.42
X119.26Y-113.96
X119.26Y-116.5
X122.88Y-70.75
X125.42Y-70.75
X127.96Y-70.75
X130.5Y-70.75
X134.5Y-80.94
X134.5Y-83.48
X134.5Y-86.02
X134.5Y-88.56
X134.5Y-91.1
X134.5Y-93.64
X134.5Y-96.18
X134.5Y-98.72
X134.5Y-101.26
X134.5Y-103.8
X134.5Y-106.34
X134.5Y-108.88
X134.5Y-111.42
X134.5Y-113.96
X134.5Y-116.5
X135.67Y-70.75
X138.21Y-70.75
X140.75Y-70.75
X145.25Y-81.7
X145.25Y-89.3
X146.67Y-70.75
X149.21Y-70.75
X151.75Y-70.75
X153.0Y-113.46
X153.0Y-116.0
X153.0Y-118.54
X153.0Y-121.08
T5
X102.75Y-90.67
X102.75Y-95.75
X102.75Y-101.96
X102.75Y-107.04
X112.45Y-90.96
X112.45Y-93.5
X112.45Y-96.04
X149.0Y-101.96
X149.0Y-107.04
M30
