%TF.GenerationSoftware,KiCad,Pcbnew,9.0.7-9.0.7~ubuntu24.04.1*%
%TF.CreationDate,2026-02-19T19:46:41+05:30*%
%TF.ProjectId,Arduino-nano-compatible-shield,41726475-696e-46f2-9d6e-616e6f2d636f,rev?*%
%TF.SameCoordinates,Original*%
%TF.FileFunction,Copper,L2,Bot*%
%TF.FilePolarity,Positive*%
%FSLAX46Y46*%
G04 Gerber Fmt 4.6, Leading zero omitted, Abs format (unit mm)*
G04 Created by KiCad (PCBNEW 9.0.7-9.0.7~ubuntu24.04.1) date 2026-02-19 19:46:41*
%MOMM*%
%LPD*%
G01*
G04 APERTURE LIST*
G04 Aperture macros list*
%AMRoundRect*
0 Rectangle with rounded corners*
0 $1 Rounding radius*
0 $2 $3 $4 $5 $6 $7 $8 $9 X,Y pos of 4 corners*
0 Add a 4 corners polygon primitive as box body*
4,1,4,$2,$3,$4,$5,$6,$7,$8,$9,$2,$3,0*
0 Add four circle primitives for the rounded corners*
1,1,$1+$1,$2,$3*
1,1,$1+$1,$4,$5*
1,1,$1+$1,$6,$7*
1,1,$1+$1,$8,$9*
0 Add four rect primitives between the rounded corners*
20,1,$1+$1,$2,$3,$4,$5,0*
20,1,$1+$1,$4,$5,$6,$7,0*
20,1,$1+$1,$6,$7,$8,$9,0*
20,1,$1+$1,$8,$9,$2,$3,0*%
G04 Aperture macros list end*
%TA.AperFunction,ComponentPad*%
%ADD10C,1.600000*%
%TD*%
%TA.AperFunction,ComponentPad*%
%ADD11RoundRect,0.250000X-0.550000X0.550000X-0.550000X-0.550000X0.550000X-0.550000X0.550000X0.550000X0*%
%TD*%
%TA.AperFunction,ComponentPad*%
%ADD12R,1.700000X1.700000*%
%TD*%
%TA.AperFunction,ComponentPad*%
%ADD13C,1.700000*%
%TD*%
%TA.AperFunction,ComponentPad*%
%ADD14R,2.000000X2.000000*%
%TD*%
%TA.AperFunction,ComponentPad*%
%ADD15C,2.000000*%
%TD*%
%TA.AperFunction,ComponentPad*%
%ADD16RoundRect,0.250000X-0.550000X-0.550000X0.550000X-0.550000X0.550000X0.550000X-0.550000X0.550000X0*%
%TD*%
%TA.AperFunction,ComponentPad*%
%ADD17R,2.000000X1.905000*%
%TD*%
%TA.AperFunction,ComponentPad*%
%ADD18O,2.000000X1.905000*%
%TD*%
%TA.AperFunction,ComponentPad*%
%ADD19R,1.800000X1.800000*%
%TD*%
%TA.AperFunction,ComponentPad*%
%ADD20C,1.800000*%
%TD*%
%TA.AperFunction,ComponentPad*%
%ADD21R,1.650000X1.650000*%
%TD*%
%TA.AperFunction,ComponentPad*%
%ADD22C,1.650000*%
%TD*%
%TA.AperFunction,ComponentPad*%
%ADD23R,1.600000X1.600000*%
%TD*%
%TA.AperFunction,ComponentPad*%
%ADD24O,1.600000X1.600000*%
%TD*%
%TA.AperFunction,ViaPad*%
%ADD25C,0.500000*%
%TD*%
%TA.AperFunction,ViaPad*%
%ADD26C,0.600000*%
%TD*%
%TA.AperFunction,Conductor*%
%ADD27C,1.500000*%
%TD*%
%TA.AperFunction,Conductor*%
%ADD28C,0.250000*%
%TD*%
%TA.AperFunction,Conductor*%
%ADD29C,0.200000*%
%TD*%
G04 APERTURE END LIST*
D10*
%TO.P,R1,1*%
%TO.N,Net-(A1-D10)*%
X138800000Y-93200000D03*
%TO.P,R1,2*%
%TO.N,Net-(BZ1-+)*%
X141340000Y-93200000D03*
%TD*%
D11*
%TO.P,C7,1*%
%TO.N,VIN*%
X112000000Y-102097349D03*
D10*
%TO.P,C7,2*%
%TO.N,GND*%
X112000000Y-105597349D03*
%TD*%
%TO.P,C3,1*%
%TO.N,VIN*%
X109500000Y-110000000D03*
%TO.P,C3,2*%
%TO.N,GND*%
X109500000Y-112500000D03*
%TD*%
%TO.P,C1,1*%
%TO.N,+5V*%
X109000000Y-78000000D03*
%TO.P,C1,2*%
%TO.N,GND*%
X111500000Y-78000000D03*
%TD*%
D12*
%TO.P,J8,1,Pin_1*%
%TO.N,+5V*%
X130500000Y-70750000D03*
D13*
%TO.P,J8,2,Pin_2*%
%TO.N,/A3*%
X127960000Y-70750000D03*
%TO.P,J8,3,Pin_3*%
%TO.N,/A6*%
X125420000Y-70750000D03*
%TO.P,J8,4,Pin_4*%
%TO.N,GND*%
X122880000Y-70750000D03*
%TD*%
D14*
%TO.P,BZ1,1,+*%
%TO.N,Net-(BZ1-+)*%
X145250000Y-89300000D03*
D15*
%TO.P,BZ1,2,-*%
%TO.N,GND*%
X145250000Y-81700000D03*
%TD*%
D16*
%TO.P,C2,1*%
%TO.N,+5V*%
X100750000Y-82750000D03*
D10*
%TO.P,C2,2*%
%TO.N,GND*%
X104250000Y-82750000D03*
%TD*%
D12*
%TO.P,J10,1,Pin_1*%
%TO.N,+5V*%
X100500000Y-74750000D03*
D13*
%TO.P,J10,2,Pin_2*%
%TO.N,GND*%
X103040000Y-74750000D03*
%TO.P,J10,3,Pin_3*%
%TO.N,/D9*%
X105580000Y-74750000D03*
%TD*%
D10*
%TO.P,C4,1*%
%TO.N,+5V*%
X114250000Y-110000000D03*
%TO.P,C4,2*%
%TO.N,GND*%
X114250000Y-112500000D03*
%TD*%
D12*
%TO.P,J7,1,Pin_1*%
%TO.N,+5V*%
X153000000Y-121080000D03*
D13*
%TO.P,J7,2,Pin_2*%
%TO.N,GND*%
X153000000Y-118540000D03*
%TO.P,J7,3,Pin_3*%
%TO.N,/D11*%
X153000000Y-116000000D03*
%TO.P,J7,4,Pin_4*%
%TO.N,/D12*%
X153000000Y-113460000D03*
%TD*%
D17*
%TO.P,U2,1,VI*%
%TO.N,VIN*%
X112450000Y-96040000D03*
D18*
%TO.P,U2,2,GND*%
%TO.N,GND*%
X112450000Y-93500000D03*
%TO.P,U2,3,VO*%
%TO.N,+5V*%
X112450000Y-90960000D03*
%TD*%
D12*
%TO.P,J4,1,Pin_1*%
%TO.N,+5V*%
X140750000Y-70750000D03*
D13*
%TO.P,J4,2,Pin_2*%
%TO.N,/A0*%
X138210000Y-70750000D03*
%TO.P,J4,3,Pin_3*%
%TO.N,GND*%
X135670000Y-70750000D03*
%TD*%
D10*
%TO.P,C5,1*%
%TO.N,GND*%
X100900000Y-114750000D03*
%TO.P,C5,2*%
%TO.N,VIN*%
X100900000Y-112250000D03*
%TD*%
%TO.P,C6,1*%
%TO.N,GND*%
X149500000Y-76750000D03*
%TO.P,C6,2*%
%TO.N,+5V*%
X152000000Y-76750000D03*
%TD*%
%TO.P,C8,1*%
%TO.N,VIN*%
X104250000Y-112250000D03*
%TO.P,C8,2*%
%TO.N,GND*%
X104250000Y-114750000D03*
%TD*%
D19*
%TO.P,D1,1,K*%
%TO.N,GND*%
X111750000Y-83500000D03*
D20*
%TO.P,D1,2,A*%
%TO.N,Net-(A1-SCK)*%
X114290000Y-83500000D03*
%TD*%
D16*
%TO.P,U1,1,EN1\u002C2*%
%TO.N,/D5*%
X123020000Y-90910000D03*
D10*
%TO.P,U1,2,1A*%
%TO.N,/D2*%
X123020000Y-93450000D03*
%TO.P,U1,3,1Y*%
%TO.N,Net-(J1-Pin_1)*%
X123020000Y-95990000D03*
%TO.P,U1,4,GND*%
%TO.N,GND*%
X123020000Y-98530000D03*
%TO.P,U1,5,GND*%
X123020000Y-101070000D03*
%TO.P,U1,6,2Y*%
%TO.N,Net-(J1-Pin_2)*%
X123020000Y-103610000D03*
%TO.P,U1,7,2A*%
%TO.N,/D7*%
X123020000Y-106150000D03*
%TO.P,U1,8,VCC2*%
%TO.N,VIN*%
X123020000Y-108690000D03*
%TO.P,U1,9,EN3\u002C4*%
%TO.N,/D3*%
X130640000Y-108690000D03*
%TO.P,U1,10,3A*%
%TO.N,/D8*%
X130640000Y-106150000D03*
%TO.P,U1,11,3Y*%
%TO.N,Net-(J2-Pin_1)*%
X130640000Y-103610000D03*
%TO.P,U1,12,GND*%
%TO.N,GND*%
X130640000Y-101070000D03*
%TO.P,U1,13,GND*%
X130640000Y-98530000D03*
%TO.P,U1,14,4Y*%
%TO.N,Net-(J2-Pin_2)*%
X130640000Y-95990000D03*
%TO.P,U1,15,4A*%
%TO.N,/D4*%
X130640000Y-93450000D03*
%TO.P,U1,16,VCC1*%
%TO.N,+5V*%
X130640000Y-90910000D03*
%TD*%
D12*
%TO.P,J6,1,Pin_1*%
%TO.N,+5V*%
X151750000Y-70750000D03*
D13*
%TO.P,J6,2,Pin_2*%
%TO.N,/A2*%
X149210000Y-70750000D03*
%TO.P,J6,3,Pin_3*%
%TO.N,GND*%
X146670000Y-70750000D03*
%TD*%
D12*
%TO.P,J9,1,Pin_1*%
%TO.N,+5V*%
X100500000Y-71000000D03*
D13*
%TO.P,J9,2,Pin_2*%
%TO.N,GND*%
X103040000Y-71000000D03*
%TO.P,J9,3,Pin_3*%
%TO.N,/D6*%
X105580000Y-71000000D03*
%TD*%
D21*
%TO.P,J1,1,Pin_1*%
%TO.N,Net-(J1-Pin_1)*%
X102750000Y-107040000D03*
D22*
%TO.P,J1,2,Pin_2*%
%TO.N,Net-(J1-Pin_2)*%
X102750000Y-101960000D03*
%TD*%
D21*
%TO.P,J3,1,Pin_1*%
%TO.N,VIN*%
X102750000Y-95750000D03*
D22*
%TO.P,J3,2,Pin_2*%
%TO.N,GND*%
X102750000Y-90670000D03*
%TD*%
D21*
%TO.P,J2,1,Pin_1*%
%TO.N,Net-(J2-Pin_1)*%
X149000000Y-101960000D03*
D22*
%TO.P,J2,2,Pin_2*%
%TO.N,Net-(J2-Pin_2)*%
X149000000Y-107040000D03*
%TD*%
D12*
%TO.P,J5,1,Pin_1*%
%TO.N,+5V*%
X115250000Y-71000000D03*
D13*
%TO.P,J5,2,Pin_2*%
%TO.N,/A1*%
X112710000Y-71000000D03*
%TO.P,J5,3,Pin_3*%
%TO.N,GND*%
X110170000Y-71000000D03*
%TD*%
D23*
%TO.P,A1,1,TX1*%
%TO.N,unconnected-(A1-TX1-Pad1)*%
X134500000Y-116500000D03*
D24*
%TO.P,A1,2,RX1*%
%TO.N,unconnected-(A1-RX1-Pad2)*%
X134500000Y-113960000D03*
%TO.P,A1,3,~{RESET}*%
%TO.N,unconnected-(A1-~{RESET}-Pad3)*%
X134500000Y-111420000D03*
%TO.P,A1,4,GND*%
%TO.N,GND*%
X134500000Y-108880000D03*
%TO.P,A1,5,D2*%
%TO.N,/D2*%
X134500000Y-106340000D03*
%TO.P,A1,6,D3*%
%TO.N,/D3*%
X134500000Y-103800000D03*
%TO.P,A1,7,D4*%
%TO.N,/D4*%
X134500000Y-101260000D03*
%TO.P,A1,8,D5*%
%TO.N,/D5*%
X134500000Y-98720000D03*
%TO.P,A1,9,D6*%
%TO.N,/D6*%
X134500000Y-96180000D03*
%TO.P,A1,10,D7*%
%TO.N,/D7*%
X134500000Y-93640000D03*
%TO.P,A1,11,D8*%
%TO.N,/D8*%
X134500000Y-91100000D03*
%TO.P,A1,12,D9*%
%TO.N,/D9*%
X134500000Y-88560000D03*
%TO.P,A1,13,D10*%
%TO.N,Net-(A1-D10)*%
X134500000Y-86020000D03*
%TO.P,A1,14,MOSI*%
%TO.N,/D11*%
X134500000Y-83480000D03*
%TO.P,A1,15,MISO*%
%TO.N,/D12*%
X134500000Y-80940000D03*
%TO.P,A1,16,SCK*%
%TO.N,Net-(A1-SCK)*%
X119260000Y-80940000D03*
%TO.P,A1,17,3V3*%
%TO.N,unconnected-(A1-3V3-Pad17)*%
X119260000Y-83480000D03*
%TO.P,A1,18,AREF*%
%TO.N,unconnected-(A1-AREF-Pad18)*%
X119260000Y-86020000D03*
%TO.P,A1,19,A0*%
%TO.N,/A0*%
X119260000Y-88560000D03*
%TO.P,A1,20,A1*%
%TO.N,/A1*%
X119260000Y-91100000D03*
%TO.P,A1,21,A2*%
%TO.N,/A2*%
X119260000Y-93640000D03*
%TO.P,A1,22,A3*%
%TO.N,/A3*%
X119260000Y-96180000D03*
%TO.P,A1,23,SDA/A4*%
%TO.N,/A4*%
X119260000Y-98720000D03*
%TO.P,A1,24,SCL/A5*%
%TO.N,/A5*%
X119260000Y-101260000D03*
%TO.P,A1,25,A6*%
%TO.N,/A6*%
X119260000Y-103800000D03*
%TO.P,A1,26,A7*%
%TO.N,unconnected-(A1-A7-Pad26)*%
X119260000Y-106340000D03*
%TO.P,A1,27,+5V*%
%TO.N,+5V*%
X119260000Y-108880000D03*
%TO.P,A1,28,~{RESET}*%
%TO.N,unconnected-(A1-~{RESET}-Pad28)*%
X119260000Y-111420000D03*
%TO.P,A1,29,GND*%
%TO.N,GND*%
X119260000Y-113960000D03*
%TO.P,A1,30,VIN*%
%TO.N,unconnected-(A1-VIN-Pad30)*%
X119260000Y-116500000D03*
%TD*%
D12*
%TO.P,J11,1,Pin_1*%
%TO.N,+5V*%
X113080000Y-120750000D03*
D13*
%TO.P,J11,2,Pin_2*%
%TO.N,GND*%
X110540000Y-120750000D03*
%TO.P,J11,3,Pin_3*%
%TO.N,/A5*%
X108000000Y-120750000D03*
%TO.P,J11,4,Pin_4*%
%TO.N,/A4*%
X105460000Y-120750000D03*
%TD*%
D25*
%TO.N,GND*%
X124859409Y-94511591D03*
D26*
%TO.N,/A2*%
X119375735Y-70224265D03*
%TO.N,/A0*%
X119400000Y-69400000D03*
D25*
%TO.N,/D3*%
X137400000Y-104800000D03*
%TO.N,Net-(J1-Pin_1)*%
X125200000Y-106200000D03*
%TD*%
D27*
%TO.N,GND*%
X114250000Y-112500000D02*
X117800000Y-112500000D01*
D28*
X128877818Y-98530000D02*
X124859409Y-94511591D01*
D27*
X117800000Y-112500000D02*
X119260000Y-113960000D01*
D28*
X130640000Y-98530000D02*
X128877818Y-98530000D01*
D27*
X109500000Y-112500000D02*
X109600000Y-112600000D01*
D29*
%TO.N,/A2*%
X118159000Y-89016050D02*
X118159000Y-87765950D01*
X119141950Y-89999000D02*
X118159000Y-89016050D01*
X120599000Y-71447530D02*
X119375735Y-70224265D01*
X118159000Y-87765950D02*
X118803950Y-87121000D01*
X119716050Y-89999000D02*
X119141950Y-89999000D01*
X119716050Y-87121000D02*
X120599000Y-86238050D01*
X120361000Y-92539000D02*
X120361000Y-90643950D01*
X118803950Y-87121000D02*
X119716050Y-87121000D01*
X120599000Y-86238050D02*
X120599000Y-71447530D01*
X120361000Y-90643950D02*
X119716050Y-89999000D01*
X119260000Y-93640000D02*
X120361000Y-92539000D01*
%TO.N,/A6*%
X125420000Y-70750000D02*
X121919000Y-74251000D01*
X121919000Y-101141000D02*
X119260000Y-103800000D01*
X121919000Y-74251000D02*
X121919000Y-101141000D01*
D28*
%TO.N,/D12*%
X134500000Y-82100000D02*
X134500000Y-80940000D01*
X134754000Y-82354000D02*
X134500000Y-82100000D01*
X134977297Y-84595107D02*
X134966405Y-84606000D01*
X134966405Y-84606000D02*
X134033595Y-84606000D01*
X153725000Y-103342810D02*
X134977297Y-84595107D01*
X134033595Y-84606000D02*
X133374000Y-83946405D01*
X133374000Y-83013595D02*
X134033595Y-82354000D01*
X134033595Y-82354000D02*
X134754000Y-82354000D01*
X153000000Y-113460000D02*
X153000000Y-113400000D01*
X133374000Y-83946405D02*
X133374000Y-83013595D01*
X153725000Y-112675000D02*
X153725000Y-103342810D01*
X153000000Y-113400000D02*
X153725000Y-112675000D01*
D29*
%TO.N,/D5*%
X123020000Y-90910000D02*
X129539000Y-97429000D01*
X133209000Y-97429000D02*
X134500000Y-98720000D01*
X129539000Y-97429000D02*
X133209000Y-97429000D01*
%TO.N,/A3*%
X124269000Y-71226760D02*
X121518000Y-73977760D01*
X121518000Y-73977760D02*
X121518000Y-93922000D01*
X127960000Y-70750000D02*
X126809000Y-69599000D01*
X124943240Y-69599000D02*
X124269000Y-70273240D01*
X126809000Y-69599000D02*
X124943240Y-69599000D01*
X124269000Y-70273240D02*
X124269000Y-71226760D01*
X121518000Y-93922000D02*
X119260000Y-96180000D01*
D28*
%TO.N,/D11*%
X154176000Y-103156000D02*
X154176000Y-114824000D01*
X134500000Y-83480000D02*
X154176000Y-103156000D01*
X154176000Y-114824000D02*
X153000000Y-116000000D01*
D29*
%TO.N,/D9*%
X104429000Y-73599000D02*
X104429000Y-70523240D01*
X104429000Y-70523240D02*
X106552240Y-68400000D01*
X133401000Y-71683000D02*
X132142000Y-72942000D01*
X132142000Y-72942000D02*
X132142000Y-86202000D01*
X131019100Y-68400000D02*
X133401000Y-70781900D01*
X133401000Y-70781900D02*
X133401000Y-71683000D01*
X105580000Y-74750000D02*
X104429000Y-73599000D01*
X106552240Y-68400000D02*
X131019100Y-68400000D01*
X132142000Y-86202000D02*
X134500000Y-88560000D01*
%TO.N,/D7*%
X123020000Y-106150000D02*
X124311000Y-107441000D01*
X134956050Y-107441000D02*
X135601000Y-106796050D01*
X135601000Y-94741000D02*
X134500000Y-93640000D01*
X135601000Y-106796050D02*
X135601000Y-94741000D01*
X124311000Y-107441000D02*
X134956050Y-107441000D01*
%TO.N,/D2*%
X133399000Y-105239000D02*
X134500000Y-106340000D01*
X123020000Y-93450000D02*
X129539000Y-99969000D01*
X133399000Y-102271950D02*
X133399000Y-105239000D01*
X131096050Y-99969000D02*
X133399000Y-102271950D01*
X129539000Y-99969000D02*
X131096050Y-99969000D01*
%TO.N,/A0*%
X119400000Y-69400000D02*
X121000000Y-71000000D01*
X121000000Y-86820000D02*
X119260000Y-88560000D01*
X121000000Y-71000000D02*
X121000000Y-86820000D01*
D27*
%TO.N,+5V*%
X118140000Y-110000000D02*
X119260000Y-108880000D01*
X114250000Y-110000000D02*
X118140000Y-110000000D01*
D28*
%TO.N,/A4*%
X105460000Y-120750000D02*
X106636000Y-119574000D01*
X111800000Y-117000000D02*
X111800000Y-107389754D01*
X113000000Y-104980000D02*
X119260000Y-98720000D01*
X111800000Y-107389754D02*
X113126000Y-106063754D01*
X113126000Y-105130944D02*
X113000000Y-105004944D01*
X113126000Y-106063754D02*
X113126000Y-105130944D01*
X113000000Y-105004944D02*
X113000000Y-104980000D01*
X109226000Y-119574000D02*
X111800000Y-117000000D01*
X106636000Y-119574000D02*
X109226000Y-119574000D01*
D29*
%TO.N,/A1*%
X112710000Y-71000000D02*
X112951000Y-71241000D01*
X112951000Y-71241000D02*
X112951000Y-84791000D01*
X112951000Y-84791000D02*
X119260000Y-91100000D01*
%TO.N,/D6*%
X130852000Y-68800000D02*
X133000000Y-70948000D01*
X133000000Y-71200000D02*
X131741000Y-72459000D01*
X133000000Y-70948000D02*
X133000000Y-71200000D01*
X131741000Y-72459000D02*
X131741000Y-93421000D01*
X107780000Y-68800000D02*
X130852000Y-68800000D01*
X131741000Y-93421000D02*
X134500000Y-96180000D01*
X105580000Y-71000000D02*
X107780000Y-68800000D01*
D27*
%TO.N,Net-(A1-SCK)*%
X114290000Y-83500000D02*
X116700000Y-83500000D01*
X116700000Y-83500000D02*
X119260000Y-80940000D01*
D28*
%TO.N,/D3*%
X130640000Y-108690000D02*
X130640000Y-116142000D01*
X136251000Y-118251000D02*
X137400000Y-117102000D01*
X137400000Y-117102000D02*
X137400000Y-104800000D01*
X130640000Y-116142000D02*
X132749000Y-118251000D01*
X132749000Y-118251000D02*
X136251000Y-118251000D01*
%TO.N,/A5*%
X108850000Y-120750000D02*
X112400000Y-117200000D01*
X108000000Y-120750000D02*
X108850000Y-120750000D01*
X112400000Y-117200000D02*
X112400000Y-108120000D01*
X112400000Y-108120000D02*
X119260000Y-101260000D01*
D27*
%TO.N,Net-(J1-Pin_1)*%
X123020000Y-95990000D02*
X125200000Y-98170000D01*
X125200000Y-98170000D02*
X125200000Y-106200000D01*
%TO.N,Net-(J1-Pin_2)*%
X98001000Y-106709000D02*
X98001000Y-120800000D01*
X100601000Y-123400000D02*
X119600000Y-123400000D01*
X121011000Y-121989000D02*
X121011000Y-105619000D01*
X98001000Y-120800000D02*
X100601000Y-123400000D01*
X102750000Y-101960000D02*
X98001000Y-106709000D01*
X121011000Y-105619000D02*
X123020000Y-103610000D01*
X119600000Y-123400000D02*
X121011000Y-121989000D01*
%TD*%
%TA.AperFunction,Conductor*%
%TO.N,GND*%
G36*
X155192539Y-68020185D02*
G01*
X155238294Y-68072989D01*
X155249500Y-68124500D01*
X155249500Y-124125500D01*
X155229815Y-124192539D01*
X155177011Y-124238294D01*
X155125500Y-124249500D01*
X120818336Y-124249500D01*
X120751297Y-124229815D01*
X120705542Y-124177011D01*
X120695598Y-124107853D01*
X120724623Y-124044297D01*
X120730655Y-124037819D01*
X121964828Y-122803646D01*
X122080524Y-122644405D01*
X122169883Y-122469026D01*
X122169884Y-122469025D01*
X122214902Y-122330476D01*
X122230709Y-122281827D01*
X122248052Y-122172328D01*
X122261500Y-122087422D01*
X122261500Y-120182135D01*
X151649500Y-120182135D01*
X151649500Y-121977870D01*
X151649501Y-121977876D01*
X151655908Y-122037483D01*
X151706202Y-122172328D01*
X151706206Y-122172335D01*
X151792452Y-122287544D01*
X151792455Y-122287547D01*
X151907664Y-122373793D01*
X151907671Y-122373797D01*
X152042517Y-122424091D01*
X152042516Y-122424091D01*
X152049444Y-122424835D01*
X152102127Y-122430500D01*
X153897872Y-122430499D01*
X153957483Y-122424091D01*
X154092331Y-122373796D01*
X154207546Y-122287546D01*
X154293796Y-122172331D01*
X154344091Y-122037483D01*
X154350500Y-121977873D01*
X154350499Y-120182128D01*
X154344091Y-120122517D01*
X154293796Y-119987669D01*
X154293795Y-119987668D01*
X154293793Y-119987664D01*
X154207547Y-119872455D01*
X154207544Y-119872452D01*
X154092335Y-119786206D01*
X154092328Y-119786202D01*
X153957482Y-119735908D01*
X153957483Y-119735908D01*
X153897883Y-119729501D01*
X153897881Y-119729500D01*
X153897873Y-119729500D01*
X153897864Y-119729500D01*
X152102129Y-119729500D01*
X152102123Y-119729501D01*
X152042516Y-119735908D01*
X151907671Y-119786202D01*
X151907664Y-119786206D01*
X151792455Y-119872452D01*
X151792452Y-119872455D01*
X151706206Y-119987664D01*
X151706202Y-119987671D01*
X151655908Y-120122517D01*
X151649501Y-120182116D01*
X151649501Y-120182123D01*
X151649500Y-120182135D01*
X122261500Y-120182135D01*
X122261500Y-109965459D01*
X122281185Y-109898420D01*
X122333989Y-109852665D01*
X122403147Y-109842721D01*
X122441796Y-109854975D01*
X122520774Y-109895217D01*
X122520777Y-109895217D01*
X122520781Y-109895220D01*
X122655245Y-109938910D01*
X122715465Y-109958477D01*
X122816557Y-109974488D01*
X122917648Y-109990500D01*
X122917649Y-109990500D01*
X123122351Y-109990500D01*
X123122352Y-109990500D01*
X123324534Y-109958477D01*
X123519219Y-109895220D01*
X123701610Y-109802287D01*
X123848638Y-109695466D01*
X123867213Y-109681971D01*
X123867215Y-109681968D01*
X123867219Y-109681966D01*
X124011966Y-109537219D01*
X124011968Y-109537215D01*
X124011971Y-109537213D01*
X124064732Y-109464590D01*
X124132287Y-109371610D01*
X124225220Y-109189219D01*
X124288477Y-108994534D01*
X124320500Y-108792352D01*
X124320500Y-108587648D01*
X124288477Y-108385466D01*
X124288476Y-108385464D01*
X124250436Y-108268389D01*
X124229455Y-108203817D01*
X124228652Y-108175698D01*
X124224649Y-108147856D01*
X124227668Y-108141243D01*
X124227461Y-108133978D01*
X124241986Y-108109890D01*
X124253672Y-108084300D01*
X124259787Y-108080369D01*
X124263541Y-108074145D01*
X124288788Y-108061731D01*
X124312450Y-108046525D01*
X124322721Y-108045047D01*
X124326242Y-108043317D01*
X124347385Y-108041501D01*
X124390058Y-108041501D01*
X124390061Y-108041500D01*
X124397668Y-108041500D01*
X129312613Y-108041500D01*
X129379652Y-108061185D01*
X129425407Y-108113989D01*
X129435351Y-108183147D01*
X129430544Y-108203818D01*
X129371523Y-108385461D01*
X129371523Y-108385464D01*
X129339500Y-108587648D01*
X129339500Y-108792351D01*
X129371522Y-108994534D01*
X129434781Y-109189223D01*
X129527715Y-109371613D01*
X129648028Y-109537213D01*
X129648034Y-109537219D01*
X129792781Y-109681966D01*
X129958390Y-109802287D01*
X129958394Y-109802289D01*
X129962332Y-109805150D01*
X129961111Y-109806829D01*
X130002155Y-109852177D01*
X130014500Y-109906114D01*
X130014500Y-116203611D01*
X130038535Y-116324444D01*
X130038540Y-116324461D01*
X130085685Y-116438281D01*
X130085687Y-116438284D01*
X130085688Y-116438286D01*
X130109495Y-116473914D01*
X130154142Y-116540733D01*
X130241267Y-116627858D01*
X130241269Y-116627859D01*
X130251686Y-116638276D01*
X132350262Y-118736854D01*
X132350265Y-118736857D01*
X132401490Y-118771084D01*
X132452714Y-118805311D01*
X132566548Y-118852463D01*
X132687388Y-118876499D01*
X132687392Y-118876500D01*
X132687393Y-118876500D01*
X136312607Y-118876500D01*
X136373029Y-118864481D01*
X136433452Y-118852463D01*
X136466792Y-118838652D01*
X136547286Y-118805312D01*
X136598509Y-118771084D01*
X136649733Y-118736858D01*
X136736858Y-118649733D01*
X136736858Y-118649731D01*
X136747066Y-118639524D01*
X136747067Y-118639521D01*
X137885857Y-117500734D01*
X137886014Y-117500500D01*
X137886079Y-117500404D01*
X137954307Y-117398292D01*
X137954314Y-117398280D01*
X137975189Y-117347883D01*
X138001463Y-117284452D01*
X138013481Y-117224029D01*
X138025500Y-117163607D01*
X138025500Y-117040394D01*
X138025500Y-106935675D01*
X147674500Y-106935675D01*
X147674500Y-107144324D01*
X147707137Y-107350389D01*
X147771612Y-107548820D01*
X147839189Y-107681446D01*
X147866330Y-107734714D01*
X147988965Y-107903505D01*
X148136495Y-108051035D01*
X148305286Y-108173670D01*
X148364459Y-108203820D01*
X148491179Y-108268387D01*
X148491181Y-108268387D01*
X148491184Y-108268389D01*
X148597545Y-108302948D01*
X148689610Y-108332862D01*
X148895676Y-108365500D01*
X148895681Y-108365500D01*
X149104324Y-108365500D01*
X149310389Y-108332862D01*
X149508816Y-108268389D01*
X149694714Y-108173670D01*
X149863505Y-108051035D01*
X150011035Y-107903505D01*
X150133670Y-107734714D01*
X150228389Y-107548816D01*
X150292862Y-107350389D01*
X150296385Y-107328143D01*
X150325500Y-107144324D01*
X150325500Y-106935675D01*
X150292862Y-106729610D01*
X150228387Y-106531179D01*
X150133669Y-106345285D01*
X150099617Y-106298417D01*
X150011035Y-106176495D01*
X149863505Y-106028965D01*
X149694714Y-105906330D01*
X149650712Y-105883910D01*
X149508820Y-105811612D01*
X149310389Y-105747137D01*
X149104324Y-105714500D01*
X149104319Y-105714500D01*
X148895681Y-105714500D01*
X148895676Y-105714500D01*
X148689610Y-105747137D01*
X148491179Y-105811612D01*
X148305285Y-105906330D01*
X148136493Y-106028966D01*
X147988966Y-106176493D01*
X147866330Y-106345285D01*
X147771612Y-106531179D01*
X147707137Y-106729610D01*
X147674500Y-106935675D01*
X138025500Y-106935675D01*
X138025500Y-105252351D01*
X138045185Y-105185312D01*
X138046398Y-105183460D01*
X138051392Y-105175986D01*
X138065084Y-105155495D01*
X138121658Y-105018913D01*
X138150500Y-104873918D01*
X138150500Y-104726082D01*
X138150500Y-104726079D01*
X138121659Y-104581092D01*
X138121658Y-104581091D01*
X138121658Y-104581087D01*
X138085645Y-104494143D01*
X138065087Y-104444511D01*
X138065080Y-104444498D01*
X137982951Y-104321584D01*
X137982948Y-104321580D01*
X137878419Y-104217051D01*
X137878415Y-104217048D01*
X137755501Y-104134919D01*
X137755488Y-104134912D01*
X137618917Y-104078343D01*
X137618907Y-104078340D01*
X137473920Y-104049500D01*
X137473918Y-104049500D01*
X137326082Y-104049500D01*
X137326080Y-104049500D01*
X137181092Y-104078340D01*
X137181082Y-104078343D01*
X137044511Y-104134912D01*
X137044498Y-104134919D01*
X136921584Y-104217048D01*
X136921580Y-104217051D01*
X136817051Y-104321580D01*
X136817048Y-104321584D01*
X136734919Y-104444498D01*
X136734912Y-104444511D01*
X136678343Y-104581082D01*
X136678340Y-104581092D01*
X136649500Y-104726079D01*
X136649500Y-104873918D01*
X136678340Y-105018907D01*
X136678343Y-105018917D01*
X136734913Y-105155490D01*
X136734914Y-105155492D01*
X136753602Y-105183460D01*
X136774480Y-105250138D01*
X136774500Y-105252351D01*
X136774500Y-116791547D01*
X136754815Y-116858586D01*
X136738181Y-116879228D01*
X136028229Y-117589181D01*
X136001301Y-117603884D01*
X135975483Y-117620477D01*
X135969282Y-117621368D01*
X135966906Y-117622666D01*
X135940548Y-117625500D01*
X135891369Y-117625500D01*
X135824330Y-117605815D01*
X135778575Y-117553011D01*
X135768631Y-117483853D01*
X135775187Y-117458166D01*
X135794091Y-117407483D01*
X135800500Y-117347873D01*
X135800499Y-115652128D01*
X135794091Y-115592517D01*
X135743796Y-115457669D01*
X135743795Y-115457668D01*
X135743793Y-115457664D01*
X135657547Y-115342455D01*
X135657544Y-115342452D01*
X135542335Y-115256206D01*
X135542328Y-115256202D01*
X135407482Y-115205908D01*
X135407483Y-115205908D01*
X135370560Y-115201939D01*
X135306009Y-115175201D01*
X135266160Y-115117809D01*
X135263667Y-115047984D01*
X135299319Y-114987895D01*
X135310930Y-114978331D01*
X135347219Y-114951966D01*
X135491966Y-114807219D01*
X135491968Y-114807215D01*
X135491971Y-114807213D01*
X135561468Y-114711557D01*
X135612287Y-114641610D01*
X135705220Y-114459219D01*
X135768477Y-114264534D01*
X135800500Y-114062352D01*
X135800500Y-113857648D01*
X135768477Y-113655466D01*
X135705220Y-113460781D01*
X135705218Y-113460778D01*
X135705218Y-113460776D01*
X135671503Y-113394607D01*
X135612287Y-113278390D01*
X135585824Y-113241966D01*
X135491971Y-113112786D01*
X135347213Y-112968028D01*
X135181614Y-112847715D01*
X135175006Y-112844348D01*
X135088917Y-112800483D01*
X135038123Y-112752511D01*
X135021328Y-112684690D01*
X135043865Y-112618555D01*
X135088917Y-112579516D01*
X135181610Y-112532287D01*
X135202770Y-112516913D01*
X135347213Y-112411971D01*
X135347215Y-112411968D01*
X135347219Y-112411966D01*
X135491966Y-112267219D01*
X135491968Y-112267215D01*
X135491971Y-112267213D01*
X135544732Y-112194590D01*
X135612287Y-112101610D01*
X135705220Y-111919219D01*
X135768477Y-111724534D01*
X135800500Y-111522352D01*
X135800500Y-111317648D01*
X135797784Y-111300500D01*
X135768477Y-111115465D01*
X135705218Y-110920776D01*
X135651364Y-110815083D01*
X135612287Y-110738390D01*
X135604556Y-110727749D01*
X135491971Y-110572786D01*
X135347213Y-110428028D01*
X135181613Y-110307715D01*
X135181612Y-110307714D01*
X135181610Y-110307713D01*
X135124653Y-110278691D01*
X134999223Y-110214781D01*
X134804534Y-110151522D01*
X134629995Y-110123878D01*
X134602352Y-110119500D01*
X134397648Y-110119500D01*
X134373329Y-110123351D01*
X134195465Y-110151522D01*
X134000776Y-110214781D01*
X133818386Y-110307715D01*
X133652786Y-110428028D01*
X133508028Y-110572786D01*
X133387715Y-110738386D01*
X133294781Y-110920776D01*
X133231522Y-111115465D01*
X133199500Y-111317648D01*
X133199500Y-111522351D01*
X133231522Y-111724534D01*
X133294781Y-111919223D01*
X133358691Y-112044653D01*
X133386023Y-112098294D01*
X133387715Y-112101613D01*
X133508028Y-112267213D01*
X133652786Y-112411971D01*
X133807749Y-112524556D01*
X133818390Y-112532287D01*
X133909840Y-112578883D01*
X133911080Y-112579515D01*
X133961876Y-112627490D01*
X133978671Y-112695311D01*
X133956134Y-112761446D01*
X133911080Y-112800485D01*
X133818386Y-112847715D01*
X133652786Y-112968028D01*
X133508028Y-113112786D01*
X133387715Y-113278386D01*
X133294781Y-113460776D01*
X133231522Y-113655465D01*
X133199500Y-113857648D01*
X133199500Y-114062351D01*
X133231522Y-114264534D01*
X133294781Y-114459223D01*
X133358691Y-114584653D01*
X133374180Y-114615051D01*
X133387715Y-114641613D01*
X133508028Y-114807213D01*
X133652784Y-114951969D01*
X133689068Y-114978330D01*
X133731735Y-115033659D01*
X133737715Y-115103273D01*
X133705109Y-115165068D01*
X133644271Y-115199426D01*
X133629440Y-115201938D01*
X133592519Y-115205907D01*
X133457671Y-115256202D01*
X133457664Y-115256206D01*
X133342455Y-115342452D01*
X133342452Y-115342455D01*
X133256206Y-115457664D01*
X133256202Y-115457671D01*
X133205908Y-115592517D01*
X133199501Y-115652116D01*
X133199501Y-115652123D01*
X133199500Y-115652135D01*
X133199500Y-117347870D01*
X133199501Y-117347876D01*
X133205908Y-117407481D01*
X133224813Y-117458166D01*
X133227002Y-117488776D01*
X133231369Y-117519147D01*
X133229471Y-117523302D01*
X133229797Y-117527858D01*
X133215093Y-117554784D01*
X133202344Y-117582703D01*
X133198500Y-117585173D01*
X133196312Y-117589181D01*
X133169384Y-117603884D01*
X133143566Y-117620477D01*
X133137365Y-117621368D01*
X133134989Y-117622666D01*
X133108631Y-117625500D01*
X133059453Y-117625500D01*
X132992414Y-117605815D01*
X132971772Y-117589181D01*
X131301819Y-115919228D01*
X131268334Y-115857905D01*
X131265500Y-115831547D01*
X131265500Y-109906114D01*
X131285185Y-109839075D01*
X131318575Y-109806398D01*
X131317668Y-109805150D01*
X131321605Y-109802289D01*
X131321610Y-109802287D01*
X131487219Y-109681966D01*
X131631966Y-109537219D01*
X131631968Y-109537215D01*
X131631971Y-109537213D01*
X131684732Y-109464590D01*
X131752287Y-109371610D01*
X131845220Y-109189219D01*
X131908477Y-108994534D01*
X131940500Y-108792352D01*
X131940500Y-108587648D01*
X131908477Y-108385466D01*
X131908476Y-108385462D01*
X131908476Y-108385461D01*
X131849456Y-108203818D01*
X131847461Y-108133977D01*
X131883541Y-108074144D01*
X131946242Y-108043316D01*
X131967387Y-108041500D01*
X134869381Y-108041500D01*
X134869397Y-108041501D01*
X134876993Y-108041501D01*
X135035104Y-108041501D01*
X135035107Y-108041501D01*
X135187835Y-108000577D01*
X135258982Y-107959500D01*
X135324766Y-107921520D01*
X135436570Y-107809716D01*
X135436570Y-107809714D01*
X135446774Y-107799511D01*
X135446778Y-107799506D01*
X135959506Y-107286778D01*
X135959511Y-107286774D01*
X135969714Y-107276570D01*
X135969716Y-107276570D01*
X136081520Y-107164766D01*
X136147491Y-107050500D01*
X136160577Y-107027835D01*
X136201501Y-106875107D01*
X136201501Y-106716993D01*
X136201501Y-106709398D01*
X136201500Y-106709380D01*
X136201500Y-94661945D01*
X136201499Y-94661941D01*
X136200306Y-94657490D01*
X136185452Y-94602051D01*
X136160577Y-94509215D01*
X136131639Y-94459095D01*
X136081520Y-94372284D01*
X135969716Y-94260480D01*
X135969715Y-94260479D01*
X135965385Y-94256149D01*
X135965374Y-94256139D01*
X135794077Y-94084842D01*
X135760592Y-94023519D01*
X135763828Y-93958841D01*
X135766953Y-93949223D01*
X135768477Y-93944534D01*
X135800500Y-93742352D01*
X135800500Y-93537648D01*
X135772220Y-93359097D01*
X135768477Y-93335465D01*
X135732068Y-93223410D01*
X135705220Y-93140781D01*
X135705218Y-93140778D01*
X135705218Y-93140776D01*
X135655609Y-93043414D01*
X135612287Y-92958390D01*
X135604556Y-92947749D01*
X135491971Y-92792786D01*
X135347213Y-92648028D01*
X135181614Y-92527715D01*
X135175006Y-92524348D01*
X135088917Y-92480483D01*
X135038123Y-92432511D01*
X135021328Y-92364690D01*
X135043865Y-92298555D01*
X135088917Y-92259516D01*
X135181610Y-92212287D01*
X135228146Y-92178477D01*
X135347213Y-92091971D01*
X135347215Y-92091968D01*
X135347219Y-92091966D01*
X135491966Y-91947219D01*
X135491968Y-91947215D01*
X135491971Y-91947213D01*
X135544732Y-91874590D01*
X135612287Y-91781610D01*
X135705220Y-91599219D01*
X135768477Y-91404534D01*
X135800500Y-91202352D01*
X135800500Y-90997648D01*
X135776425Y-90845646D01*
X135768477Y-90795465D01*
X135705218Y-90600776D01*
X135671503Y-90534607D01*
X135612287Y-90418390D01*
X135600555Y-90402242D01*
X135491971Y-90252786D01*
X135347213Y-90108028D01*
X135181614Y-89987715D01*
X135175006Y-89984348D01*
X135088917Y-89940483D01*
X135038123Y-89892511D01*
X135021328Y-89824690D01*
X135043865Y-89758555D01*
X135088917Y-89719516D01*
X135181610Y-89672287D01*
X135253576Y-89620001D01*
X135347213Y-89551971D01*
X135347215Y-89551968D01*
X135347219Y-89551966D01*
X135491966Y-89407219D01*
X135491968Y-89407215D01*
X135491971Y-89407213D01*
X135544732Y-89334590D01*
X135612287Y-89241610D01*
X135705220Y-89059219D01*
X135768477Y-88864534D01*
X135800500Y-88662352D01*
X135800500Y-88457648D01*
X135782439Y-88343616D01*
X135768477Y-88255465D01*
X135722888Y-88115157D01*
X135705220Y-88060781D01*
X135705218Y-88060778D01*
X135705218Y-88060776D01*
X135655609Y-87963415D01*
X135612287Y-87878390D01*
X135595300Y-87855009D01*
X135491971Y-87712786D01*
X135347213Y-87568028D01*
X135181614Y-87447715D01*
X135141663Y-87427359D01*
X135088917Y-87400483D01*
X135038123Y-87352511D01*
X135021328Y-87284690D01*
X135043865Y-87218555D01*
X135088917Y-87179516D01*
X135181610Y-87132287D01*
X135202770Y-87116913D01*
X135347213Y-87011971D01*
X135347215Y-87011968D01*
X135347219Y-87011966D01*
X135491966Y-86867219D01*
X135491968Y-86867215D01*
X135491971Y-86867213D01*
X135579271Y-86747053D01*
X135612287Y-86701610D01*
X135705220Y-86519219D01*
X135719106Y-86476479D01*
X135758543Y-86418806D01*
X135822902Y-86391607D01*
X135891748Y-86403521D01*
X135924718Y-86427118D01*
X141203214Y-91705614D01*
X141236699Y-91766937D01*
X141231715Y-91836629D01*
X141189843Y-91892562D01*
X141134932Y-91915768D01*
X141035464Y-91931523D01*
X140840776Y-91994781D01*
X140658386Y-92087715D01*
X140492786Y-92208028D01*
X140348028Y-92352786D01*
X140227715Y-92518386D01*
X140180485Y-92611080D01*
X140132510Y-92661876D01*
X140064689Y-92678671D01*
X139998554Y-92656134D01*
X139959515Y-92611080D01*
X139955286Y-92602781D01*
X139912287Y-92518390D01*
X139884748Y-92480485D01*
X139791971Y-92352786D01*
X139647213Y-92208028D01*
X139481613Y-92087715D01*
X139481612Y-92087714D01*
X139481610Y-92087713D01*
X139424653Y-92058691D01*
X139299223Y-91994781D01*
X139104534Y-91931522D01*
X138917921Y-91901966D01*
X138902352Y-91899500D01*
X138697648Y-91899500D01*
X138682079Y-91901966D01*
X138495465Y-91931522D01*
X138300776Y-91994781D01*
X138118386Y-92087715D01*
X137952786Y-92208028D01*
X137808028Y-92352786D01*
X137687715Y-92518386D01*
X137594781Y-92700776D01*
X137531522Y-92895465D01*
X137499500Y-93097648D01*
X137499500Y-93302351D01*
X137531522Y-93504534D01*
X137594781Y-93699223D01*
X137687715Y-93881613D01*
X137808028Y-94047213D01*
X137952786Y-94191971D01*
X138107749Y-94304556D01*
X138118390Y-94312287D01*
X138234607Y-94371503D01*
X138300776Y-94405218D01*
X138300778Y-94405218D01*
X138300781Y-94405220D01*
X138360119Y-94424500D01*
X138495465Y-94468477D01*
X138575807Y-94481202D01*
X138697648Y-94500500D01*
X138697649Y-94500500D01*
X138902351Y-94500500D01*
X138902352Y-94500500D01*
X139104534Y-94468477D01*
X139299219Y-94405220D01*
X139481610Y-94312287D01*
X139574590Y-94244732D01*
X139647213Y-94191971D01*
X139647215Y-94191968D01*
X139647219Y-94191966D01*
X139791966Y-94047219D01*
X139791968Y-94047215D01*
X139791971Y-94047213D01*
X139912284Y-93881614D01*
X139912285Y-93881613D01*
X139912287Y-93881610D01*
X139959516Y-93788917D01*
X140007489Y-93738123D01*
X140075310Y-93721328D01*
X140141445Y-93743865D01*
X140180483Y-93788917D01*
X140210121Y-93847084D01*
X140227715Y-93881614D01*
X140348028Y-94047213D01*
X140492786Y-94191971D01*
X140647749Y-94304556D01*
X140658390Y-94312287D01*
X140774607Y-94371503D01*
X140840776Y-94405218D01*
X140840778Y-94405218D01*
X140840781Y-94405220D01*
X140900119Y-94424500D01*
X141035465Y-94468477D01*
X141115807Y-94481202D01*
X141237648Y-94500500D01*
X141237649Y-94500500D01*
X141442351Y-94500500D01*
X141442352Y-94500500D01*
X141644534Y-94468477D01*
X141839219Y-94405220D01*
X142021610Y-94312287D01*
X142114590Y-94244732D01*
X142187213Y-94191971D01*
X142187215Y-94191968D01*
X142187219Y-94191966D01*
X142331966Y-94047219D01*
X142331968Y-94047215D01*
X142331971Y-94047213D01*
X142396176Y-93958841D01*
X142452287Y-93881610D01*
X142545220Y-93699219D01*
X142608477Y-93504534D01*
X142624231Y-93405067D01*
X142654160Y-93341933D01*
X142713472Y-93305002D01*
X142783334Y-93306000D01*
X142834385Y-93336785D01*
X149920419Y-100422819D01*
X149953904Y-100484142D01*
X149948920Y-100553834D01*
X149907048Y-100609767D01*
X149841584Y-100634184D01*
X149832738Y-100634500D01*
X148127129Y-100634500D01*
X148127123Y-100634501D01*
X148067516Y-100640908D01*
X147932671Y-100691202D01*
X147932664Y-100691206D01*
X147817455Y-100777452D01*
X147817452Y-100777455D01*
X147731206Y-100892664D01*
X147731202Y-100892671D01*
X147680908Y-101027517D01*
X147674501Y-101087116D01*
X147674500Y-101087135D01*
X147674500Y-102832870D01*
X147674501Y-102832876D01*
X147680908Y-102892483D01*
X147731202Y-103027328D01*
X147731206Y-103027335D01*
X147817452Y-103142544D01*
X147817455Y-103142547D01*
X147932664Y-103228793D01*
X147932671Y-103228797D01*
X148067517Y-103279091D01*
X148067516Y-103279091D01*
X148074444Y-103279835D01*
X148127127Y-103285500D01*
X149872872Y-103285499D01*
X149932483Y-103279091D01*
X150067331Y-103228796D01*
X150182546Y-103142546D01*
X150268796Y-103027331D01*
X150319091Y-102892483D01*
X150325500Y-102832873D01*
X150325499Y-101127260D01*
X150345184Y-101060222D01*
X150397987Y-101014467D01*
X150467146Y-101004523D01*
X150530702Y-101033548D01*
X150537180Y-101039580D01*
X153063181Y-103565581D01*
X153096666Y-103626904D01*
X153099500Y-103653262D01*
X153099500Y-111985500D01*
X153079815Y-112052539D01*
X153027011Y-112098294D01*
X152975500Y-112109500D01*
X152893713Y-112109500D01*
X152845042Y-112117208D01*
X152683760Y-112142753D01*
X152481585Y-112208444D01*
X152292179Y-112304951D01*
X152120213Y-112429890D01*
X151969890Y-112580213D01*
X151844951Y-112752179D01*
X151748444Y-112941585D01*
X151682753Y-113143760D01*
X151649500Y-113353713D01*
X151649500Y-113566286D01*
X151663624Y-113655465D01*
X151682754Y-113776243D01*
X151709204Y-113857648D01*
X151748444Y-113978414D01*
X151844951Y-114167820D01*
X151969890Y-114339786D01*
X152120213Y-114490109D01*
X152292182Y-114615050D01*
X152300946Y-114619516D01*
X152351742Y-114667491D01*
X152368536Y-114735312D01*
X152345998Y-114801447D01*
X152300946Y-114840484D01*
X152292182Y-114844949D01*
X152120213Y-114969890D01*
X151969890Y-115120213D01*
X151844951Y-115292179D01*
X151748444Y-115481585D01*
X151682753Y-115683760D01*
X151649500Y-115893713D01*
X151649500Y-116106286D01*
X151663624Y-116195465D01*
X151682754Y-116316243D01*
X151731972Y-116467721D01*
X151748444Y-116518414D01*
X151844951Y-116707820D01*
X151969890Y-116879786D01*
X152120213Y-117030109D01*
X152292179Y-117155048D01*
X152292181Y-117155049D01*
X152292184Y-117155051D01*
X152481588Y-117251557D01*
X152683757Y-117317246D01*
X152893713Y-117350500D01*
X152893714Y-117350500D01*
X153106286Y-117350500D01*
X153106287Y-117350500D01*
X153316243Y-117317246D01*
X153518412Y-117251557D01*
X153707816Y-117155051D01*
X153730744Y-117138393D01*
X153879786Y-117030109D01*
X153879788Y-117030106D01*
X153879792Y-117030104D01*
X154030104Y-116879792D01*
X154030106Y-116879788D01*
X154030109Y-116879786D01*
X154155048Y-116707820D01*
X154155047Y-116707820D01*
X154155051Y-116707816D01*
X154251557Y-116518412D01*
X154317246Y-116316243D01*
X154350500Y-116106287D01*
X154350500Y-115893713D01*
X154317246Y-115683757D01*
X154312179Y-115668162D01*
X154310182Y-115598321D01*
X154342426Y-115542162D01*
X154574729Y-115309860D01*
X154574733Y-115309858D01*
X154661858Y-115222733D01*
X154700287Y-115165220D01*
X154730312Y-115120286D01*
X154777463Y-115006451D01*
X154801500Y-114885607D01*
X154801500Y-114762393D01*
X154801500Y-103094394D01*
X154777463Y-102973548D01*
X154758758Y-102928390D01*
X154758757Y-102928387D01*
X154730315Y-102859720D01*
X154730313Y-102859717D01*
X154730312Y-102859714D01*
X154687307Y-102795354D01*
X154661858Y-102757267D01*
X154574733Y-102670142D01*
X154574729Y-102670139D01*
X140156725Y-88252135D01*
X143749500Y-88252135D01*
X143749500Y-90347870D01*
X143749501Y-90347876D01*
X143755908Y-90407483D01*
X143806202Y-90542328D01*
X143806206Y-90542335D01*
X143892452Y-90657544D01*
X143892455Y-90657547D01*
X144007664Y-90743793D01*
X144007671Y-90743797D01*
X144142517Y-90794091D01*
X144142516Y-90794091D01*
X144149444Y-90794835D01*
X144202127Y-90800500D01*
X146297872Y-90800499D01*
X146357483Y-90794091D01*
X146492331Y-90743796D01*
X146607546Y-90657546D01*
X146693796Y-90542331D01*
X146744091Y-90407483D01*
X146750500Y-90347873D01*
X146750499Y-88252128D01*
X146744091Y-88192517D01*
X146736183Y-88171315D01*
X146693797Y-88057671D01*
X146693793Y-88057664D01*
X146607547Y-87942455D01*
X146607544Y-87942452D01*
X146492335Y-87856206D01*
X146492328Y-87856202D01*
X146357482Y-87805908D01*
X146357483Y-87805908D01*
X146297883Y-87799501D01*
X146297881Y-87799500D01*
X146297873Y-87799500D01*
X146297864Y-87799500D01*
X144202129Y-87799500D01*
X144202123Y-87799501D01*
X144142516Y-87805908D01*
X144007671Y-87856202D01*
X144007664Y-87856206D01*
X143892455Y-87942452D01*
X143892452Y-87942455D01*
X143806206Y-88057664D01*
X143806202Y-88057671D01*
X143755908Y-88192517D01*
X143749739Y-88249903D01*
X143749501Y-88252123D01*
X143749500Y-88252135D01*
X140156725Y-88252135D01*
X135802218Y-83897628D01*
X135768733Y-83836305D01*
X135769241Y-83789588D01*
X135767715Y-83789347D01*
X135794642Y-83619336D01*
X135800500Y-83582352D01*
X135800500Y-83377648D01*
X135768477Y-83175466D01*
X135705220Y-82980781D01*
X135705218Y-82980778D01*
X135705218Y-82980776D01*
X135671503Y-82914607D01*
X135612287Y-82798390D01*
X135553379Y-82717309D01*
X135491971Y-82632786D01*
X135408994Y-82549809D01*
X135375509Y-82488486D01*
X135372684Y-82460629D01*
X135372822Y-82449177D01*
X135379500Y-82415606D01*
X135379500Y-82292394D01*
X135377522Y-82282452D01*
X135357045Y-82179500D01*
X135355463Y-82171548D01*
X135346534Y-82149991D01*
X135314480Y-82072606D01*
X135307011Y-82003137D01*
X135338286Y-81940657D01*
X135344035Y-81935149D01*
X135347215Y-81931968D01*
X135347219Y-81931966D01*
X135491966Y-81787219D01*
X135491968Y-81787215D01*
X135491971Y-81787213D01*
X135544732Y-81714590D01*
X135612287Y-81621610D01*
X135705220Y-81439219D01*
X135768477Y-81244534D01*
X135800500Y-81042352D01*
X135800500Y-80837648D01*
X135768477Y-80635466D01*
X135705220Y-80440781D01*
X135705218Y-80440778D01*
X135705218Y-80440776D01*
X135638696Y-80310221D01*
X135612287Y-80258390D01*
X135604556Y-80247749D01*
X135491971Y-80092786D01*
X135347213Y-79948028D01*
X135181613Y-79827715D01*
X135181612Y-79827714D01*
X135181610Y-79827713D01*
X135124653Y-79798691D01*
X134999223Y-79734781D01*
X134804534Y-79671522D01*
X134629995Y-79643878D01*
X134602352Y-79639500D01*
X134397648Y-79639500D01*
X134373329Y-79643351D01*
X134195465Y-79671522D01*
X134000776Y-79734781D01*
X133818386Y-79827715D01*
X133652786Y-79948028D01*
X133508028Y-80092786D01*
X133387715Y-80258386D01*
X133294781Y-80440776D01*
X133231522Y-80635465D01*
X133199500Y-80837648D01*
X133199500Y-81042351D01*
X133231522Y-81244534D01*
X133294781Y-81439223D01*
X133387715Y-81621613D01*
X133508028Y-81787213D01*
X133524228Y-81803413D01*
X133557713Y-81864736D01*
X133552729Y-81934428D01*
X133524228Y-81978775D01*
X132975270Y-82527734D01*
X132975265Y-82527739D01*
X132954179Y-82548824D01*
X132892855Y-82582308D01*
X132823164Y-82577322D01*
X132767231Y-82535449D01*
X132742816Y-82469984D01*
X132742500Y-82461141D01*
X132742500Y-76647648D01*
X150699500Y-76647648D01*
X150699500Y-76852351D01*
X150731522Y-77054534D01*
X150794781Y-77249223D01*
X150887715Y-77431613D01*
X151008028Y-77597213D01*
X151152786Y-77741971D01*
X151307749Y-77854556D01*
X151318390Y-77862287D01*
X151434607Y-77921503D01*
X151500776Y-77955218D01*
X151500778Y-77955218D01*
X151500781Y-77955220D01*
X151605137Y-77989127D01*
X151695465Y-78018477D01*
X151796557Y-78034488D01*
X151897648Y-78050500D01*
X151897649Y-78050500D01*
X152102351Y-78050500D01*
X152102352Y-78050500D01*
X152304534Y-78018477D01*
X152499219Y-77955220D01*
X152681610Y-77862287D01*
X152774590Y-77794732D01*
X152847213Y-77741971D01*
X152847215Y-77741968D01*
X152847219Y-77741966D01*
X152991966Y-77597219D01*
X152991968Y-77597215D01*
X152991971Y-77597213D01*
X153062035Y-77500776D01*
X153112287Y-77431610D01*
X153205220Y-77249219D01*
X153268477Y-77054534D01*
X153300500Y-76852352D01*
X153300500Y-76647648D01*
X153268477Y-76445466D01*
X153205220Y-76250781D01*
X153205218Y-76250778D01*
X153205218Y-76250776D01*
X153171503Y-76184607D01*
X153112287Y-76068390D01*
X153094419Y-76043796D01*
X152991971Y-75902786D01*
X152847213Y-75758028D01*
X152681613Y-75637715D01*
X152681612Y-75637714D01*
X152681610Y-75637713D01*
X152624653Y-75608691D01*
X152499223Y-75544781D01*
X152304534Y-75481522D01*
X152129995Y-75453878D01*
X152102352Y-75449500D01*
X151897648Y-75449500D01*
X151873329Y-75453351D01*
X151695465Y-75481522D01*
X151500776Y-75544781D01*
X151318386Y-75637715D01*
X151152786Y-75758028D01*
X151008028Y-75902786D01*
X150887715Y-76068386D01*
X150794781Y-76250776D01*
X150731522Y-76445465D01*
X150699500Y-76647648D01*
X132742500Y-76647648D01*
X132742500Y-73242096D01*
X132762185Y-73175057D01*
X132778814Y-73154419D01*
X133759506Y-72173727D01*
X133759511Y-72173724D01*
X133769714Y-72163520D01*
X133769716Y-72163520D01*
X133881520Y-72051716D01*
X133952919Y-71928049D01*
X133960577Y-71914785D01*
X134001501Y-71762057D01*
X134001501Y-71603943D01*
X134001501Y-71596348D01*
X134001500Y-71596330D01*
X134001500Y-70702843D01*
X134001499Y-70702839D01*
X133992953Y-70670943D01*
X133992951Y-70670935D01*
X133985657Y-70643713D01*
X136859500Y-70643713D01*
X136859500Y-70856286D01*
X136892581Y-71065154D01*
X136892754Y-71066243D01*
X136895274Y-71074000D01*
X136958444Y-71268414D01*
X137054951Y-71457820D01*
X137179890Y-71629786D01*
X137330213Y-71780109D01*
X137502179Y-71905048D01*
X137502181Y-71905049D01*
X137502184Y-71905051D01*
X137691588Y-72001557D01*
X137893757Y-72067246D01*
X138103713Y-72100500D01*
X138103714Y-72100500D01*
X138316286Y-72100500D01*
X138316287Y-72100500D01*
X138526243Y-72067246D01*
X138728412Y-72001557D01*
X138917816Y-71905051D01*
X139089792Y-71780104D01*
X139203329Y-71666566D01*
X139264648Y-71633084D01*
X139334340Y-71638068D01*
X139390274Y-71679939D01*
X139407189Y-71710917D01*
X139456202Y-71842328D01*
X139456206Y-71842335D01*
X139542452Y-71957544D01*
X139542455Y-71957547D01*
X139657664Y-72043793D01*
X139657671Y-72043797D01*
X139792517Y-72094091D01*
X139792516Y-72094091D01*
X139799444Y-72094835D01*
X139852127Y-72100500D01*
X141647872Y-72100499D01*
X141707483Y-72094091D01*
X141842331Y-72043796D01*
X141957546Y-71957546D01*
X142043796Y-71842331D01*
X142094091Y-71707483D01*
X142100500Y-71647873D01*
X142100499Y-70643713D01*
X147859500Y-70643713D01*
X147859500Y-70856286D01*
X147892581Y-71065154D01*
X147892754Y-71066243D01*
X147895274Y-71074000D01*
X147958444Y-71268414D01*
X148054951Y-71457820D01*
X148179890Y-71629786D01*
X148330213Y-71780109D01*
X148502179Y-71905048D01*
X148502181Y-71905049D01*
X148502184Y-71905051D01*
X148691588Y-72001557D01*
X148893757Y-72067246D01*
X149103713Y-72100500D01*
X149103714Y-72100500D01*
X149316286Y-72100500D01*
X149316287Y-72100500D01*
X149526243Y-72067246D01*
X149728412Y-72001557D01*
X149917816Y-71905051D01*
X150089792Y-71780104D01*
X150203329Y-71666566D01*
X150264648Y-71633084D01*
X150334340Y-71638068D01*
X150390274Y-71679939D01*
X150407189Y-71710917D01*
X150456202Y-71842328D01*
X150456206Y-71842335D01*
X150542452Y-71957544D01*
X150542455Y-71957547D01*
X150657664Y-72043793D01*
X150657671Y-72043797D01*
X150792517Y-72094091D01*
X150792516Y-72094091D01*
X150799444Y-72094835D01*
X150852127Y-72100500D01*
X152647872Y-72100499D01*
X152707483Y-72094091D01*
X152842331Y-72043796D01*
X152957546Y-71957546D01*
X153043796Y-71842331D01*
X153094091Y-71707483D01*
X153100500Y-71647873D01*
X153100499Y-69852128D01*
X153094091Y-69792517D01*
X153092810Y-69789083D01*
X153043797Y-69657671D01*
X153043793Y-69657664D01*
X152957547Y-69542455D01*
X152957544Y-69542452D01*
X152842335Y-69456206D01*
X152842328Y-69456202D01*
X152707482Y-69405908D01*
X152707483Y-69405908D01*
X152647883Y-69399501D01*
X152647881Y-69399500D01*
X152647873Y-69399500D01*
X152647864Y-69399500D01*
X150852129Y-69399500D01*
X150852123Y-69399501D01*
X150792516Y-69405908D01*
X150657671Y-69456202D01*
X150657664Y-69456206D01*
X150542455Y-69542452D01*
X150542452Y-69542455D01*
X150456206Y-69657664D01*
X150456203Y-69657669D01*
X150407189Y-69789083D01*
X150365317Y-69845016D01*
X150299853Y-69869433D01*
X150231580Y-69854581D01*
X150203326Y-69833430D01*
X150089786Y-69719890D01*
X149917820Y-69594951D01*
X149728414Y-69498444D01*
X149728413Y-69498443D01*
X149728412Y-69498443D01*
X149526243Y-69432754D01*
X149526241Y-69432753D01*
X149526240Y-69432753D01*
X149364957Y-69407208D01*
X149316287Y-69399500D01*
X149103713Y-69399500D01*
X149055042Y-69407208D01*
X148893760Y-69432753D01*
X148691585Y-69498444D01*
X148502179Y-69594951D01*
X148330213Y-69719890D01*
X148179890Y-69870213D01*
X148054951Y-70042179D01*
X147958444Y-70231585D01*
X147892753Y-70433760D01*
X147859500Y-70643713D01*
X142100499Y-70643713D01*
X142100499Y-69852128D01*
X142094091Y-69792517D01*
X142092810Y-69789083D01*
X142043797Y-69657671D01*
X142043793Y-69657664D01*
X141957547Y-69542455D01*
X141957544Y-69542452D01*
X141842335Y-69456206D01*
X141842328Y-69456202D01*
X141707482Y-69405908D01*
X141707483Y-69405908D01*
X141647883Y-69399501D01*
X141647881Y-69399500D01*
X141647873Y-69399500D01*
X141647864Y-69399500D01*
X139852129Y-69399500D01*
X139852123Y-69399501D01*
X139792516Y-69405908D01*
X139657671Y-69456202D01*
X139657664Y-69456206D01*
X139542455Y-69542452D01*
X139542452Y-69542455D01*
X139456206Y-69657664D01*
X139456203Y-69657669D01*
X139407189Y-69789083D01*
X139365317Y-69845016D01*
X139299853Y-69869433D01*
X139231580Y-69854581D01*
X139203326Y-69833430D01*
X139089786Y-69719890D01*
X138917820Y-69594951D01*
X138728414Y-69498444D01*
X138728413Y-69498443D01*
X138728412Y-69498443D01*
X138526243Y-69432754D01*
X138526241Y-69432753D01*
X138526240Y-69432753D01*
X138364957Y-69407208D01*
X138316287Y-69399500D01*
X138103713Y-69399500D01*
X138055042Y-69407208D01*
X137893760Y-69432753D01*
X137691585Y-69498444D01*
X137502179Y-69594951D01*
X137330213Y-69719890D01*
X137179890Y-69870213D01*
X137054951Y-70042179D01*
X136958444Y-70231585D01*
X136892753Y-70433760D01*
X136859500Y-70643713D01*
X133985657Y-70643713D01*
X133974868Y-70603450D01*
X133960577Y-70550115D01*
X133931639Y-70499995D01*
X133881520Y-70413184D01*
X133769716Y-70301380D01*
X133769715Y-70301379D01*
X133765385Y-70297049D01*
X133765374Y-70297039D01*
X131680516Y-68212181D01*
X131647031Y-68150858D01*
X131652015Y-68081166D01*
X131693887Y-68025233D01*
X131759351Y-68000816D01*
X131768197Y-68000500D01*
X155125500Y-68000500D01*
X155192539Y-68020185D01*
G37*
%TD.AperFunction*%
%TA.AperFunction,Conductor*%
G36*
X105870181Y-68020185D02*
G01*
X105915936Y-68072989D01*
X105925880Y-68142147D01*
X105896855Y-68205703D01*
X105890823Y-68212181D01*
X103948481Y-70154522D01*
X103948480Y-70154524D01*
X103903988Y-70231588D01*
X103898361Y-70241334D01*
X103898359Y-70241336D01*
X103869425Y-70291449D01*
X103869424Y-70291450D01*
X103853544Y-70350712D01*
X103828499Y-70444183D01*
X103828499Y-70444185D01*
X103828499Y-70612286D01*
X103828500Y-70612299D01*
X103828500Y-73512330D01*
X103828499Y-73512348D01*
X103828499Y-73678054D01*
X103828498Y-73678054D01*
X103869423Y-73830785D01*
X103881745Y-73852127D01*
X103948477Y-73967712D01*
X103948481Y-73967717D01*
X104067349Y-74086585D01*
X104067355Y-74086590D01*
X104246241Y-74265476D01*
X104279726Y-74326799D01*
X104276492Y-74391473D01*
X104262753Y-74433757D01*
X104229500Y-74643713D01*
X104229500Y-74856286D01*
X104262753Y-75066239D01*
X104328444Y-75268414D01*
X104424951Y-75457820D01*
X104549890Y-75629786D01*
X104700213Y-75780109D01*
X104872179Y-75905048D01*
X104872181Y-75905049D01*
X104872184Y-75905051D01*
X105061588Y-76001557D01*
X105263757Y-76067246D01*
X105473713Y-76100500D01*
X105473714Y-76100500D01*
X105686286Y-76100500D01*
X105686287Y-76100500D01*
X105896243Y-76067246D01*
X106098412Y-76001557D01*
X106287816Y-75905051D01*
X106374138Y-75842335D01*
X106459786Y-75780109D01*
X106459788Y-75780106D01*
X106459792Y-75780104D01*
X106610104Y-75629792D01*
X106610106Y-75629788D01*
X106610109Y-75629786D01*
X106735048Y-75457820D01*
X106735047Y-75457820D01*
X106735051Y-75457816D01*
X106831557Y-75268412D01*
X106897246Y-75066243D01*
X106930500Y-74856287D01*
X106930500Y-74643713D01*
X106897246Y-74433757D01*
X106831557Y-74231588D01*
X106735051Y-74042184D01*
X106735049Y-74042181D01*
X106735048Y-74042179D01*
X106610109Y-73870213D01*
X106459786Y-73719890D01*
X106287820Y-73594951D01*
X106098414Y-73498444D01*
X106098413Y-73498443D01*
X106098412Y-73498443D01*
X105896243Y-73432754D01*
X105896241Y-73432753D01*
X105896240Y-73432753D01*
X105734957Y-73407208D01*
X105686287Y-73399500D01*
X105473713Y-73399500D01*
X105445006Y-73404046D01*
X105263757Y-73432753D01*
X105221473Y-73446492D01*
X105206260Y-73446926D01*
X105192003Y-73452244D01*
X105172048Y-73447903D01*
X105151632Y-73448486D01*
X105137545Y-73440397D01*
X105123730Y-73437392D01*
X105095476Y-73416241D01*
X105065819Y-73386584D01*
X105032334Y-73325261D01*
X105029500Y-73298903D01*
X105029500Y-72411802D01*
X105049185Y-72344763D01*
X105101989Y-72299008D01*
X105171147Y-72289064D01*
X105191812Y-72293869D01*
X105263757Y-72317246D01*
X105473713Y-72350500D01*
X105473714Y-72350500D01*
X105686286Y-72350500D01*
X105686287Y-72350500D01*
X105896243Y-72317246D01*
X106098412Y-72251557D01*
X106287816Y-72155051D01*
X106362901Y-72100499D01*
X106459786Y-72030109D01*
X106459788Y-72030106D01*
X106459792Y-72030104D01*
X106610104Y-71879792D01*
X106610106Y-71879788D01*
X106610109Y-71879786D01*
X106735048Y-71707820D01*
X106735047Y-71707820D01*
X106735051Y-71707816D01*
X106831557Y-71518412D01*
X106897246Y-71316243D01*
X106930500Y-71106287D01*
X106930500Y-70893713D01*
X106897246Y-70683757D01*
X106883506Y-70641473D01*
X106881512Y-70571635D01*
X106913755Y-70515478D01*
X107992416Y-69436819D01*
X108053739Y-69403334D01*
X108080097Y-69400500D01*
X118482152Y-69400500D01*
X118549191Y-69420185D01*
X118594946Y-69472989D01*
X118603769Y-69500308D01*
X118630261Y-69633491D01*
X118630264Y-69633501D01*
X118672948Y-69736551D01*
X118680417Y-69806021D01*
X118667755Y-69842438D01*
X118666343Y-69845080D01*
X118605999Y-69990763D01*
X118605996Y-69990775D01*
X118575235Y-70145418D01*
X118575235Y-70303111D01*
X118605996Y-70457754D01*
X118605999Y-70457766D01*
X118666337Y-70603437D01*
X118666344Y-70603450D01*
X118753945Y-70734553D01*
X118753948Y-70734557D01*
X118865442Y-70846051D01*
X118865446Y-70846054D01*
X118996549Y-70933655D01*
X118996562Y-70933662D01*
X119103663Y-70978024D01*
X119142238Y-70994002D01*
X119206882Y-71006860D01*
X119297584Y-71024903D01*
X119359495Y-71057288D01*
X119361074Y-71058839D01*
X119962181Y-71659946D01*
X119995666Y-71721269D01*
X119998500Y-71747627D01*
X119998500Y-79654349D01*
X119978815Y-79721388D01*
X119926011Y-79767143D01*
X119856853Y-79777087D01*
X119818206Y-79764834D01*
X119759226Y-79734782D01*
X119564534Y-79671522D01*
X119389995Y-79643878D01*
X119362352Y-79639500D01*
X119157648Y-79639500D01*
X119133329Y-79643351D01*
X118955465Y-79671522D01*
X118760776Y-79734781D01*
X118578386Y-79827715D01*
X118412786Y-79948028D01*
X118268028Y-80092786D01*
X118147714Y-80258386D01*
X118130217Y-80292725D01*
X118107415Y-80324108D01*
X116218345Y-82213181D01*
X116157022Y-82246666D01*
X116130664Y-82249500D01*
X114950394Y-82249500D01*
X114894099Y-82235985D01*
X114827606Y-82202104D01*
X114827603Y-82202103D01*
X114617952Y-82133985D01*
X114416732Y-82102115D01*
X114400222Y-82099500D01*
X114179778Y-82099500D01*
X114163268Y-82102115D01*
X113962047Y-82133985D01*
X113752396Y-82202103D01*
X113752392Y-82202105D01*
X113731793Y-82212601D01*
X113663123Y-82225496D01*
X113598383Y-82199218D01*
X113558127Y-82142111D01*
X113551500Y-82102115D01*
X113551500Y-72119758D01*
X113560145Y-72090314D01*
X113566668Y-72060332D01*
X113570422Y-72055316D01*
X113571185Y-72052719D01*
X113587818Y-72032077D01*
X113589788Y-72030106D01*
X113589792Y-72030104D01*
X113703329Y-71916566D01*
X113764648Y-71883084D01*
X113834340Y-71888068D01*
X113890274Y-71929939D01*
X113907189Y-71960917D01*
X113956202Y-72092328D01*
X113956206Y-72092335D01*
X114042452Y-72207544D01*
X114042455Y-72207547D01*
X114157664Y-72293793D01*
X114157671Y-72293797D01*
X114292517Y-72344091D01*
X114292516Y-72344091D01*
X114298767Y-72344763D01*
X114352127Y-72350500D01*
X116147872Y-72350499D01*
X116207483Y-72344091D01*
X116342331Y-72293796D01*
X116457546Y-72207546D01*
X116543796Y-72092331D01*
X116594091Y-71957483D01*
X116600500Y-71897873D01*
X116600499Y-70102128D01*
X116594091Y-70042517D01*
X116593694Y-70041453D01*
X116543797Y-69907671D01*
X116543793Y-69907664D01*
X116457547Y-69792455D01*
X116457544Y-69792452D01*
X116342335Y-69706206D01*
X116342328Y-69706202D01*
X116207482Y-69655908D01*
X116207483Y-69655908D01*
X116147883Y-69649501D01*
X116147881Y-69649500D01*
X116147873Y-69649500D01*
X116147864Y-69649500D01*
X114352129Y-69649500D01*
X114352123Y-69649501D01*
X114292516Y-69655908D01*
X114157671Y-69706202D01*
X114157664Y-69706206D01*
X114042455Y-69792452D01*
X114042452Y-69792455D01*
X113956206Y-69907664D01*
X113956203Y-69907669D01*
X113907189Y-70039083D01*
X113865317Y-70095016D01*
X113799853Y-70119433D01*
X113731580Y-70104581D01*
X113703326Y-70083430D01*
X113589786Y-69969890D01*
X113417820Y-69844951D01*
X113228414Y-69748444D01*
X113228413Y-69748443D01*
X113228412Y-69748443D01*
X113026243Y-69682754D01*
X113026241Y-69682753D01*
X113026240Y-69682753D01*
X112864957Y-69657208D01*
X112816287Y-69649500D01*
X112603713Y-69649500D01*
X112555042Y-69657208D01*
X112393760Y-69682753D01*
X112191585Y-69748444D01*
X112002179Y-69844951D01*
X111830213Y-69969890D01*
X111679890Y-70120213D01*
X111554951Y-70292179D01*
X111458444Y-70481585D01*
X111392753Y-70683760D01*
X111359500Y-70893713D01*
X111359500Y-71106286D01*
X111385178Y-71268414D01*
X111392754Y-71316243D01*
X111438755Y-71457820D01*
X111458444Y-71518414D01*
X111554951Y-71707820D01*
X111679890Y-71879786D01*
X111830213Y-72030109D01*
X112002179Y-72155048D01*
X112002181Y-72155049D01*
X112002184Y-72155051D01*
X112191588Y-72251557D01*
X112264818Y-72275350D01*
X112322492Y-72314786D01*
X112349692Y-72379144D01*
X112350500Y-72393281D01*
X112350500Y-84704330D01*
X112350499Y-84704348D01*
X112350499Y-84870054D01*
X112350498Y-84870054D01*
X112391422Y-85022783D01*
X112394455Y-85028035D01*
X112394458Y-85028042D01*
X112470475Y-85159709D01*
X112470481Y-85159717D01*
X112589349Y-85278585D01*
X112589355Y-85278590D01*
X117965922Y-90655157D01*
X117999407Y-90716480D01*
X117996173Y-90781155D01*
X117991522Y-90795468D01*
X117983575Y-90845646D01*
X117959500Y-90997648D01*
X117959500Y-91202352D01*
X117963878Y-91229995D01*
X117991522Y-91404534D01*
X118054781Y-91599223D01*
X118147715Y-91781613D01*
X118268028Y-91947213D01*
X118412786Y-92091971D01*
X118541260Y-92185311D01*
X118578390Y-92212287D01*
X118643441Y-92245432D01*
X118671080Y-92259515D01*
X118721876Y-92307490D01*
X118738671Y-92375311D01*
X118716134Y-92441446D01*
X118671080Y-92480485D01*
X118578386Y-92527715D01*
X118412786Y-92648028D01*
X118268028Y-92792786D01*
X118147715Y-92958386D01*
X118054781Y-93140776D01*
X117991522Y-93335465D01*
X117966268Y-93494918D01*
X117959500Y-93537648D01*
X117959500Y-93742352D01*
X117963696Y-93768841D01*
X117991522Y-93944534D01*
X118054781Y-94139223D01*
X118095144Y-94218438D01*
X118142961Y-94312284D01*
X118147715Y-94321613D01*
X118268028Y-94487213D01*
X118412786Y-94631971D01*
X118541260Y-94725311D01*
X118578390Y-94752287D01*
X118643441Y-94785432D01*
X118671080Y-94799515D01*
X118721876Y-94847490D01*
X118738671Y-94915311D01*
X118716134Y-94981446D01*
X118671080Y-95020485D01*
X118578386Y-95067715D01*
X118412786Y-95188028D01*
X118268028Y-95332786D01*
X118147715Y-95498386D01*
X118054781Y-95680776D01*
X117991522Y-95875465D01*
X117959500Y-96077648D01*
X117959500Y-96282352D01*
X117963878Y-96309995D01*
X117991522Y-96484534D01*
X118054781Y-96679223D01*
X118109035Y-96785700D01*
X118143931Y-96854188D01*
X118147715Y-96861613D01*
X118268028Y-97027213D01*
X118412786Y-97171971D01*
X118567749Y-97284556D01*
X118578390Y-97292287D01*
X118669840Y-97338883D01*
X118671080Y-97339515D01*
X118721876Y-97387490D01*
X118738671Y-97455311D01*
X118716134Y-97521446D01*
X118671080Y-97560485D01*
X118578386Y-97607715D01*
X118412786Y-97728028D01*
X118268028Y-97872786D01*
X118147715Y-98038386D01*
X118054781Y-98220776D01*
X117991522Y-98415465D01*
X117959500Y-98617648D01*
X117959500Y-98822351D01*
X117992285Y-99029346D01*
X117990252Y-99029667D01*
X117987165Y-99090834D01*
X117957781Y-99137627D01*
X115239734Y-101855675D01*
X112601270Y-104494139D01*
X112601267Y-104494142D01*
X112575724Y-104519685D01*
X112514140Y-104581268D01*
X112500311Y-104601966D01*
X112489900Y-104617548D01*
X112472190Y-104644051D01*
X112445687Y-104683714D01*
X112445685Y-104683718D01*
X112414718Y-104758479D01*
X112414719Y-104758480D01*
X112404739Y-104782574D01*
X112404737Y-104782579D01*
X112400850Y-104791966D01*
X112398537Y-104797549D01*
X112383347Y-104873918D01*
X112382950Y-104875913D01*
X112382942Y-104875948D01*
X112374500Y-104918389D01*
X112374500Y-104918394D01*
X112374500Y-104943337D01*
X112374500Y-105066551D01*
X112375489Y-105071523D01*
X112398537Y-105187396D01*
X112409834Y-105214669D01*
X112413371Y-105223208D01*
X112413373Y-105223216D01*
X112445685Y-105301225D01*
X112445687Y-105301228D01*
X112445688Y-105301230D01*
X112448392Y-105305276D01*
X112448395Y-105305281D01*
X112448397Y-105305284D01*
X112479601Y-105351983D01*
X112500480Y-105418660D01*
X112500500Y-105420875D01*
X112500500Y-105753301D01*
X112480815Y-105820340D01*
X112464181Y-105840982D01*
X111862812Y-106442351D01*
X111401270Y-106903893D01*
X111401267Y-106903896D01*
X111369488Y-106935675D01*
X111314142Y-106991020D01*
X111292656Y-107023176D01*
X111292651Y-107023184D01*
X111289544Y-107027835D01*
X111245688Y-107093468D01*
X111220687Y-107153828D01*
X111218167Y-107159910D01*
X111218165Y-107159915D01*
X111198538Y-107207299D01*
X111198535Y-107207309D01*
X111174500Y-107328143D01*
X111174500Y-116689547D01*
X111154815Y-116756586D01*
X111138181Y-116777228D01*
X109003229Y-118912181D01*
X108941906Y-118945666D01*
X108915548Y-118948500D01*
X106574389Y-118948500D01*
X106513971Y-118960518D01*
X106476259Y-118968019D01*
X106453550Y-118972536D01*
X106453548Y-118972537D01*
X106420207Y-118986347D01*
X106339719Y-119019684D01*
X106339705Y-119019692D01*
X106237272Y-119088138D01*
X106237264Y-119088144D01*
X106150139Y-119175270D01*
X105917837Y-119407571D01*
X105856514Y-119441056D01*
X105791838Y-119437821D01*
X105784219Y-119435345D01*
X105776241Y-119432753D01*
X105605797Y-119405757D01*
X105566287Y-119399500D01*
X105353713Y-119399500D01*
X105305042Y-119407208D01*
X105143760Y-119432753D01*
X104941585Y-119498444D01*
X104752179Y-119594951D01*
X104580213Y-119719890D01*
X104429890Y-119870213D01*
X104304951Y-120042179D01*
X104208444Y-120231585D01*
X104142753Y-120433760D01*
X104109500Y-120643713D01*
X104109500Y-120856287D01*
X104142754Y-121066243D01*
X104200616Y-121244324D01*
X104208444Y-121268414D01*
X104304951Y-121457820D01*
X104429890Y-121629786D01*
X104580213Y-121780109D01*
X104752182Y-121905050D01*
X104771739Y-121915015D01*
X104822536Y-121962989D01*
X104839331Y-122030810D01*
X104816794Y-122096945D01*
X104762079Y-122140397D01*
X104715445Y-122149500D01*
X101170336Y-122149500D01*
X101103297Y-122129815D01*
X101082655Y-122113181D01*
X99287819Y-120318345D01*
X99254334Y-120257022D01*
X99251500Y-120230664D01*
X99251500Y-112147648D01*
X99599500Y-112147648D01*
X99599500Y-112352351D01*
X99631522Y-112554534D01*
X99694781Y-112749223D01*
X99787715Y-112931613D01*
X99908028Y-113097213D01*
X100052786Y-113241971D01*
X100206589Y-113353713D01*
X100218390Y-113362287D01*
X100334607Y-113421503D01*
X100400776Y-113455218D01*
X100400778Y-113455218D01*
X100400781Y-113455220D01*
X100505137Y-113489127D01*
X100595465Y-113518477D01*
X100696557Y-113534488D01*
X100797648Y-113550500D01*
X100797649Y-113550500D01*
X101002351Y-113550500D01*
X101002352Y-113550500D01*
X101204534Y-113518477D01*
X101399219Y-113455220D01*
X101581610Y-113362287D01*
X101674590Y-113294732D01*
X101747213Y-113241971D01*
X101747215Y-113241968D01*
X101747219Y-113241966D01*
X101891966Y-113097219D01*
X101891968Y-113097215D01*
X101891971Y-113097213D01*
X101944732Y-113024590D01*
X102012287Y-112931610D01*
X102105220Y-112749219D01*
X102168477Y-112554534D01*
X102200500Y-112352352D01*
X102200500Y-112147648D01*
X102949500Y-112147648D01*
X102949500Y-112352351D01*
X102981522Y-112554534D01*
X103044781Y-112749223D01*
X103137715Y-112931613D01*
X103258028Y-113097213D01*
X103402786Y-113241971D01*
X103556589Y-113353713D01*
X103568390Y-113362287D01*
X103684607Y-113421503D01*
X103750776Y-113455218D01*
X103750778Y-113455218D01*
X103750781Y-113455220D01*
X103855137Y-113489127D01*
X103945465Y-113518477D01*
X104046557Y-113534488D01*
X104147648Y-113550500D01*
X104147649Y-113550500D01*
X104352351Y-113550500D01*
X104352352Y-113550500D01*
X104554534Y-113518477D01*
X104749219Y-113455220D01*
X104931610Y-113362287D01*
X105024590Y-113294732D01*
X105097213Y-113241971D01*
X105097215Y-113241968D01*
X105097219Y-113241966D01*
X105241966Y-113097219D01*
X105241968Y-113097215D01*
X105241971Y-113097213D01*
X105294732Y-113024590D01*
X105362287Y-112931610D01*
X105455220Y-112749219D01*
X105518477Y-112554534D01*
X105550500Y-112352352D01*
X105550500Y-112147648D01*
X105518477Y-111945466D01*
X105455220Y-111750781D01*
X105455218Y-111750778D01*
X105455218Y-111750776D01*
X105421503Y-111684607D01*
X105362287Y-111568390D01*
X105328838Y-111522351D01*
X105241971Y-111402786D01*
X105097213Y-111258028D01*
X104931613Y-111137715D01*
X104931612Y-111137714D01*
X104931610Y-111137713D01*
X104874653Y-111108691D01*
X104749223Y-111044781D01*
X104554534Y-110981522D01*
X104379995Y-110953878D01*
X104352352Y-110949500D01*
X104147648Y-110949500D01*
X104123329Y-110953351D01*
X103945465Y-110981522D01*
X103750776Y-111044781D01*
X103568386Y-111137715D01*
X103402786Y-111258028D01*
X103258028Y-111402786D01*
X103137715Y-111568386D01*
X103044781Y-111750776D01*
X102981522Y-111945465D01*
X102949500Y-112147648D01*
X102200500Y-112147648D01*
X102168477Y-111945466D01*
X102105220Y-111750781D01*
X102105218Y-111750778D01*
X102105218Y-111750776D01*
X102071503Y-111684607D01*
X102012287Y-111568390D01*
X101978838Y-111522351D01*
X101891971Y-111402786D01*
X101747213Y-111258028D01*
X101581613Y-111137715D01*
X101581612Y-111137714D01*
X101581610Y-111137713D01*
X101524653Y-111108691D01*
X101399223Y-111044781D01*
X101204534Y-110981522D01*
X101029995Y-110953878D01*
X101002352Y-110949500D01*
X100797648Y-110949500D01*
X100773329Y-110953351D01*
X100595465Y-110981522D01*
X100400776Y-111044781D01*
X100218386Y-111137715D01*
X100052786Y-111258028D01*
X99908028Y-111402786D01*
X99787715Y-111568386D01*
X99694781Y-111750776D01*
X99631522Y-111945465D01*
X99599500Y-112147648D01*
X99251500Y-112147648D01*
X99251500Y-109897648D01*
X108199500Y-109897648D01*
X108199500Y-110102351D01*
X108231522Y-110304534D01*
X108294781Y-110499223D01*
X108387715Y-110681613D01*
X108508028Y-110847213D01*
X108652786Y-110991971D01*
X108807749Y-111104556D01*
X108818390Y-111112287D01*
X108934607Y-111171503D01*
X109000776Y-111205218D01*
X109000778Y-111205218D01*
X109000781Y-111205220D01*
X109105137Y-111239127D01*
X109195465Y-111268477D01*
X109296557Y-111284488D01*
X109397648Y-111300500D01*
X109397649Y-111300500D01*
X109602351Y-111300500D01*
X109602352Y-111300500D01*
X109804534Y-111268477D01*
X109999219Y-111205220D01*
X110181610Y-111112287D01*
X110274590Y-111044732D01*
X110347213Y-110991971D01*
X110347215Y-110991968D01*
X110347219Y-110991966D01*
X110491966Y-110847219D01*
X110491968Y-110847215D01*
X110491971Y-110847213D01*
X110571037Y-110738386D01*
X110612287Y-110681610D01*
X110705220Y-110499219D01*
X110768477Y-110304534D01*
X110800500Y-110102352D01*
X110800500Y-109897648D01*
X110789924Y-109830876D01*
X110768477Y-109695465D01*
X110705218Y-109500776D01*
X110671503Y-109434607D01*
X110612287Y-109318390D01*
X110604556Y-109307749D01*
X110491971Y-109152786D01*
X110347213Y-109008028D01*
X110181613Y-108887715D01*
X110181612Y-108887714D01*
X110181610Y-108887713D01*
X110124653Y-108858691D01*
X109999223Y-108794781D01*
X109804534Y-108731522D01*
X109629995Y-108703878D01*
X109602352Y-108699500D01*
X109397648Y-108699500D01*
X109373329Y-108703351D01*
X109195465Y-108731522D01*
X109000776Y-108794781D01*
X108818386Y-108887715D01*
X108652786Y-109008028D01*
X108508028Y-109152786D01*
X108387715Y-109318386D01*
X108294781Y-109500776D01*
X108231522Y-109695465D01*
X108199500Y-109897648D01*
X99251500Y-109897648D01*
X99251500Y-107278335D01*
X99271185Y-107211296D01*
X99287814Y-107190659D01*
X100311338Y-106167135D01*
X101424500Y-106167135D01*
X101424500Y-107912870D01*
X101424501Y-107912876D01*
X101430908Y-107972483D01*
X101481202Y-108107328D01*
X101481206Y-108107335D01*
X101567452Y-108222544D01*
X101567455Y-108222547D01*
X101682664Y-108308793D01*
X101682671Y-108308797D01*
X101817517Y-108359091D01*
X101817516Y-108359091D01*
X101824444Y-108359835D01*
X101877127Y-108365500D01*
X103622872Y-108365499D01*
X103682483Y-108359091D01*
X103817331Y-108308796D01*
X103932546Y-108222546D01*
X104018796Y-108107331D01*
X104069091Y-107972483D01*
X104075500Y-107912873D01*
X104075499Y-106167128D01*
X104069091Y-106107517D01*
X104046761Y-106047648D01*
X104018797Y-105972671D01*
X104018793Y-105972664D01*
X103932547Y-105857455D01*
X103932544Y-105857452D01*
X103817335Y-105771206D01*
X103817328Y-105771202D01*
X103682482Y-105720908D01*
X103682483Y-105720908D01*
X103622883Y-105714501D01*
X103622881Y-105714500D01*
X103622873Y-105714500D01*
X103622864Y-105714500D01*
X101877129Y-105714500D01*
X101877123Y-105714501D01*
X101817516Y-105720908D01*
X101682671Y-105771202D01*
X101682664Y-105771206D01*
X101567455Y-105857452D01*
X101567452Y-105857455D01*
X101481206Y-105972664D01*
X101481202Y-105972671D01*
X101430908Y-106107517D01*
X101424501Y-106167116D01*
X101424501Y-106167123D01*
X101424500Y-106167135D01*
X100311338Y-106167135D01*
X103308683Y-103169789D01*
X103340061Y-103146992D01*
X103444714Y-103093670D01*
X103613505Y-102971035D01*
X103761035Y-102823505D01*
X103883670Y-102654714D01*
X103978389Y-102468816D01*
X104042862Y-102270389D01*
X104075500Y-102064324D01*
X104075500Y-101855675D01*
X104047299Y-101677627D01*
X104042862Y-101649611D01*
X104042861Y-101649607D01*
X104042861Y-101649606D01*
X104004811Y-101532501D01*
X103993383Y-101497332D01*
X110699500Y-101497332D01*
X110699500Y-102697350D01*
X110699501Y-102697367D01*
X110710000Y-102800145D01*
X110710001Y-102800148D01*
X110752496Y-102928387D01*
X110765186Y-102966683D01*
X110857288Y-103116005D01*
X110981344Y-103240061D01*
X111130666Y-103332163D01*
X111297203Y-103387348D01*
X111399991Y-103397849D01*
X112600008Y-103397848D01*
X112702797Y-103387348D01*
X112869334Y-103332163D01*
X113018656Y-103240061D01*
X113142712Y-103116005D01*
X113234814Y-102966683D01*
X113289999Y-102800146D01*
X113300500Y-102697358D01*
X113300499Y-101497341D01*
X113289999Y-101394552D01*
X113234814Y-101228015D01*
X113142712Y-101078693D01*
X113018656Y-100954637D01*
X112869334Y-100862535D01*
X112702797Y-100807350D01*
X112702795Y-100807349D01*
X112600010Y-100796849D01*
X111399998Y-100796849D01*
X111399981Y-100796850D01*
X111297203Y-100807349D01*
X111297200Y-100807350D01*
X111130668Y-100862534D01*
X111130663Y-100862536D01*
X110981342Y-100954638D01*
X110857289Y-101078691D01*
X110765187Y-101228012D01*
X110765185Y-101228017D01*
X110752834Y-101265290D01*
X110710001Y-101394552D01*
X110710001Y-101394553D01*
X110710000Y-101394553D01*
X110699500Y-101497332D01*
X103993383Y-101497332D01*
X103990556Y-101488631D01*
X103978389Y-101451184D01*
X103978387Y-101451181D01*
X103978387Y-101451179D01*
X103883669Y-101265285D01*
X103856592Y-101228017D01*
X103761035Y-101096495D01*
X103613505Y-100948965D01*
X103444714Y-100826330D01*
X103258820Y-100731612D01*
X103060389Y-100667137D01*
X102854324Y-100634500D01*
X102854319Y-100634500D01*
X102645681Y-100634500D01*
X102645676Y-100634500D01*
X102439610Y-100667137D01*
X102241179Y-100731612D01*
X102055285Y-100826330D01*
X101886493Y-100948966D01*
X101738966Y-101096493D01*
X101616326Y-101265290D01*
X101563008Y-101369933D01*
X101540205Y-101401319D01*
X97462181Y-105479344D01*
X97400858Y-105512829D01*
X97331166Y-105507845D01*
X97275233Y-105465973D01*
X97250816Y-105400509D01*
X97250500Y-105391663D01*
X97250500Y-94877135D01*
X101424500Y-94877135D01*
X101424500Y-96622870D01*
X101424501Y-96622876D01*
X101430908Y-96682483D01*
X101481202Y-96817328D01*
X101481206Y-96817335D01*
X101567452Y-96932544D01*
X101567455Y-96932547D01*
X101682664Y-97018793D01*
X101682671Y-97018797D01*
X101817517Y-97069091D01*
X101817516Y-97069091D01*
X101824444Y-97069835D01*
X101877127Y-97075500D01*
X103622872Y-97075499D01*
X103682483Y-97069091D01*
X103817331Y-97018796D01*
X103932546Y-96932546D01*
X104018796Y-96817331D01*
X104069091Y-96682483D01*
X104075500Y-96622873D01*
X104075499Y-95039635D01*
X110949500Y-95039635D01*
X110949500Y-97040370D01*
X110949501Y-97040376D01*
X110955908Y-97099983D01*
X111006202Y-97234828D01*
X111006206Y-97234835D01*
X111092452Y-97350044D01*
X111092455Y-97350047D01*
X111207664Y-97436293D01*
X111207671Y-97436297D01*
X111342517Y-97486591D01*
X111342516Y-97486591D01*
X111349444Y-97487335D01*
X111402127Y-97493000D01*
X113497872Y-97492999D01*
X113557483Y-97486591D01*
X113692331Y-97436296D01*
X113807546Y-97350046D01*
X113893796Y-97234831D01*
X113944091Y-97099983D01*
X113950500Y-97040373D01*
X113950499Y-95039628D01*
X113944091Y-94980017D01*
X113929036Y-94939653D01*
X113893797Y-94845171D01*
X113893793Y-94845164D01*
X113807547Y-94729955D01*
X113807544Y-94729952D01*
X113692335Y-94643706D01*
X113692328Y-94643702D01*
X113557482Y-94593408D01*
X113557483Y-94593408D01*
X113497883Y-94587001D01*
X113497881Y-94587000D01*
X113497873Y-94587000D01*
X113497864Y-94587000D01*
X111402129Y-94587000D01*
X111402123Y-94587001D01*
X111342516Y-94593408D01*
X111207671Y-94643702D01*
X111207664Y-94643706D01*
X111092455Y-94729952D01*
X111092452Y-94729955D01*
X111006206Y-94845164D01*
X111006202Y-94845171D01*
X110955908Y-94980017D01*
X110951558Y-95020485D01*
X110949501Y-95039623D01*
X110949500Y-95039635D01*
X104075499Y-95039635D01*
X104075499Y-94877128D01*
X104069091Y-94817517D01*
X104059367Y-94791446D01*
X104018797Y-94682671D01*
X104018793Y-94682664D01*
X103932547Y-94567455D01*
X103932544Y-94567452D01*
X103817335Y-94481206D01*
X103817328Y-94481202D01*
X103682482Y-94430908D01*
X103682483Y-94430908D01*
X103622883Y-94424501D01*
X103622881Y-94424500D01*
X103622873Y-94424500D01*
X103622864Y-94424500D01*
X101877129Y-94424500D01*
X101877123Y-94424501D01*
X101817516Y-94430908D01*
X101682671Y-94481202D01*
X101682664Y-94481206D01*
X101567455Y-94567452D01*
X101567452Y-94567455D01*
X101481206Y-94682664D01*
X101481202Y-94682671D01*
X101430908Y-94817517D01*
X101424501Y-94877116D01*
X101424501Y-94877123D01*
X101424500Y-94877135D01*
X97250500Y-94877135D01*
X97250500Y-90845646D01*
X110949500Y-90845646D01*
X110949500Y-91074353D01*
X110985278Y-91300246D01*
X110985278Y-91300249D01*
X111055950Y-91517755D01*
X111055952Y-91517758D01*
X111159783Y-91721538D01*
X111294214Y-91906566D01*
X111455934Y-92068286D01*
X111640962Y-92202717D01*
X111813217Y-92290485D01*
X111844744Y-92306549D01*
X112062251Y-92377221D01*
X112062252Y-92377221D01*
X112062255Y-92377222D01*
X112288146Y-92413000D01*
X112288147Y-92413000D01*
X112611853Y-92413000D01*
X112611854Y-92413000D01*
X112837745Y-92377222D01*
X112837748Y-92377221D01*
X112837749Y-92377221D01*
X113055255Y-92306549D01*
X113055255Y-92306548D01*
X113055258Y-92306548D01*
X113259038Y-92202717D01*
X113444066Y-92068286D01*
X113605786Y-91906566D01*
X113740217Y-91721538D01*
X113844048Y-91517758D01*
X113903020Y-91336260D01*
X113914721Y-91300249D01*
X113914721Y-91300248D01*
X113914722Y-91300245D01*
X113950500Y-91074354D01*
X113950500Y-90845646D01*
X113914722Y-90619755D01*
X113914721Y-90619751D01*
X113914721Y-90619750D01*
X113844049Y-90402244D01*
X113816347Y-90347876D01*
X113740217Y-90198462D01*
X113605786Y-90013434D01*
X113444066Y-89851714D01*
X113259038Y-89717283D01*
X113235779Y-89705432D01*
X113055255Y-89613450D01*
X112837748Y-89542778D01*
X112668326Y-89515944D01*
X112611854Y-89507000D01*
X112288146Y-89507000D01*
X112212849Y-89518926D01*
X112062253Y-89542778D01*
X112062250Y-89542778D01*
X111844744Y-89613450D01*
X111640961Y-89717283D01*
X111571858Y-89767490D01*
X111455934Y-89851714D01*
X111455932Y-89851716D01*
X111455931Y-89851716D01*
X111294216Y-90013431D01*
X111294216Y-90013432D01*
X111294214Y-90013434D01*
X111266301Y-90051853D01*
X111159783Y-90198461D01*
X111055950Y-90402244D01*
X110985278Y-90619750D01*
X110985278Y-90619753D01*
X110949500Y-90845646D01*
X97250500Y-90845646D01*
X97250500Y-82149983D01*
X99449500Y-82149983D01*
X99449500Y-83350001D01*
X99449501Y-83350018D01*
X99460000Y-83452796D01*
X99460001Y-83452799D01*
X99502931Y-83582351D01*
X99515186Y-83619334D01*
X99607288Y-83768656D01*
X99731344Y-83892712D01*
X99880666Y-83984814D01*
X100047203Y-84039999D01*
X100149991Y-84050500D01*
X101350008Y-84050499D01*
X101452797Y-84039999D01*
X101619334Y-83984814D01*
X101768656Y-83892712D01*
X101892712Y-83768656D01*
X101984814Y-83619334D01*
X102039999Y-83452797D01*
X102050500Y-83350009D01*
X102050499Y-82149992D01*
X102039999Y-82047203D01*
X101984814Y-81880666D01*
X101892712Y-81731344D01*
X101768656Y-81607288D01*
X101619334Y-81515186D01*
X101452797Y-81460001D01*
X101452795Y-81460000D01*
X101350010Y-81449500D01*
X100149998Y-81449500D01*
X100149981Y-81449501D01*
X100047203Y-81460000D01*
X100047200Y-81460001D01*
X99880668Y-81515185D01*
X99880663Y-81515187D01*
X99731342Y-81607289D01*
X99607289Y-81731342D01*
X99515187Y-81880663D01*
X99515186Y-81880666D01*
X99460001Y-82047203D01*
X99460001Y-82047204D01*
X99460000Y-82047204D01*
X99449500Y-82149983D01*
X97250500Y-82149983D01*
X97250500Y-77897648D01*
X107699500Y-77897648D01*
X107699500Y-78102351D01*
X107731522Y-78304534D01*
X107794781Y-78499223D01*
X107887715Y-78681613D01*
X108008028Y-78847213D01*
X108152786Y-78991971D01*
X108307749Y-79104556D01*
X108318390Y-79112287D01*
X108434607Y-79171503D01*
X108500776Y-79205218D01*
X108500778Y-79205218D01*
X108500781Y-79205220D01*
X108605137Y-79239127D01*
X108695465Y-79268477D01*
X108796557Y-79284488D01*
X108897648Y-79300500D01*
X108897649Y-79300500D01*
X109102351Y-79300500D01*
X109102352Y-79300500D01*
X109304534Y-79268477D01*
X109499219Y-79205220D01*
X109681610Y-79112287D01*
X109774590Y-79044732D01*
X109847213Y-78991971D01*
X109847215Y-78991968D01*
X109847219Y-78991966D01*
X109991966Y-78847219D01*
X109991968Y-78847215D01*
X109991971Y-78847213D01*
X110044732Y-78774590D01*
X110112287Y-78681610D01*
X110205220Y-78499219D01*
X110268477Y-78304534D01*
X110300500Y-78102352D01*
X110300500Y-77897648D01*
X110268477Y-77695466D01*
X110205220Y-77500781D01*
X110205218Y-77500778D01*
X110205218Y-77500776D01*
X110169976Y-77431610D01*
X110112287Y-77318390D01*
X110062032Y-77249219D01*
X109991971Y-77152786D01*
X109847213Y-77008028D01*
X109681613Y-76887715D01*
X109681612Y-76887714D01*
X109681610Y-76887713D01*
X109612208Y-76852351D01*
X109499223Y-76794781D01*
X109304534Y-76731522D01*
X109129995Y-76703878D01*
X109102352Y-76699500D01*
X108897648Y-76699500D01*
X108873329Y-76703351D01*
X108695465Y-76731522D01*
X108500776Y-76794781D01*
X108318386Y-76887715D01*
X108152786Y-77008028D01*
X108008028Y-77152786D01*
X107887715Y-77318386D01*
X107794781Y-77500776D01*
X107731522Y-77695465D01*
X107699500Y-77897648D01*
X97250500Y-77897648D01*
X97250500Y-73852127D01*
X99149500Y-73852127D01*
X99149500Y-75647870D01*
X99149501Y-75647876D01*
X99155908Y-75707483D01*
X99206202Y-75842328D01*
X99206206Y-75842335D01*
X99292452Y-75957544D01*
X99292455Y-75957547D01*
X99407664Y-76043793D01*
X99407671Y-76043797D01*
X99542517Y-76094091D01*
X99542516Y-76094091D01*
X99549444Y-76094835D01*
X99602127Y-76100500D01*
X101397872Y-76100499D01*
X101457483Y-76094091D01*
X101592331Y-76043796D01*
X101707546Y-75957546D01*
X101793796Y-75842331D01*
X101844091Y-75707483D01*
X101850500Y-75647873D01*
X101850499Y-73852128D01*
X101844091Y-73792517D01*
X101793796Y-73657669D01*
X101793795Y-73657668D01*
X101793793Y-73657664D01*
X101707547Y-73542455D01*
X101707544Y-73542452D01*
X101592335Y-73456206D01*
X101592328Y-73456202D01*
X101457482Y-73405908D01*
X101457483Y-73405908D01*
X101397883Y-73399501D01*
X101397881Y-73399500D01*
X101397873Y-73399500D01*
X101397864Y-73399500D01*
X99602129Y-73399500D01*
X99602123Y-73399501D01*
X99542516Y-73405908D01*
X99407671Y-73456202D01*
X99407664Y-73456206D01*
X99292455Y-73542452D01*
X99292452Y-73542455D01*
X99206206Y-73657664D01*
X99206202Y-73657671D01*
X99155908Y-73792517D01*
X99149501Y-73852116D01*
X99149500Y-73852127D01*
X97250500Y-73852127D01*
X97250500Y-70102135D01*
X99149500Y-70102135D01*
X99149500Y-71897870D01*
X99149501Y-71897876D01*
X99155908Y-71957483D01*
X99206202Y-72092328D01*
X99206206Y-72092335D01*
X99292452Y-72207544D01*
X99292455Y-72207547D01*
X99407664Y-72293793D01*
X99407671Y-72293797D01*
X99542517Y-72344091D01*
X99542516Y-72344091D01*
X99548767Y-72344763D01*
X99602127Y-72350500D01*
X101397872Y-72350499D01*
X101457483Y-72344091D01*
X101592331Y-72293796D01*
X101707546Y-72207546D01*
X101793796Y-72092331D01*
X101844091Y-71957483D01*
X101850500Y-71897873D01*
X101850499Y-70102128D01*
X101844091Y-70042517D01*
X101843694Y-70041453D01*
X101793797Y-69907671D01*
X101793793Y-69907664D01*
X101707547Y-69792455D01*
X101707544Y-69792452D01*
X101592335Y-69706206D01*
X101592328Y-69706202D01*
X101457482Y-69655908D01*
X101457483Y-69655908D01*
X101397883Y-69649501D01*
X101397881Y-69649500D01*
X101397873Y-69649500D01*
X101397864Y-69649500D01*
X99602129Y-69649500D01*
X99602123Y-69649501D01*
X99542516Y-69655908D01*
X99407671Y-69706202D01*
X99407664Y-69706206D01*
X99292455Y-69792452D01*
X99292452Y-69792455D01*
X99206206Y-69907664D01*
X99206202Y-69907671D01*
X99155908Y-70042517D01*
X99149501Y-70102116D01*
X99149501Y-70102123D01*
X99149500Y-70102135D01*
X97250500Y-70102135D01*
X97250500Y-68124500D01*
X97270185Y-68057461D01*
X97322989Y-68011706D01*
X97374500Y-68000500D01*
X105803142Y-68000500D01*
X105870181Y-68020185D01*
G37*
%TD.AperFunction*%
%TA.AperFunction,Conductor*%
G36*
X113163525Y-110786578D02*
G01*
X113167147Y-110786058D01*
X113195838Y-110799160D01*
X113225224Y-110810603D01*
X113228679Y-110814158D01*
X113230703Y-110815083D01*
X113249821Y-110835914D01*
X113258033Y-110847218D01*
X113402786Y-110991971D01*
X113557749Y-111104556D01*
X113568390Y-111112287D01*
X113684607Y-111171503D01*
X113750776Y-111205218D01*
X113750778Y-111205218D01*
X113750781Y-111205220D01*
X113855137Y-111239127D01*
X113945465Y-111268477D01*
X114046557Y-111284488D01*
X114147648Y-111300500D01*
X114147649Y-111300500D01*
X114352351Y-111300500D01*
X114352352Y-111300500D01*
X114554534Y-111268477D01*
X114586693Y-111258028D01*
X114591184Y-111256569D01*
X114629502Y-111250500D01*
X117835500Y-111250500D01*
X117902539Y-111270185D01*
X117948294Y-111322989D01*
X117959500Y-111374500D01*
X117959500Y-111522351D01*
X117991522Y-111724534D01*
X118054781Y-111919223D01*
X118118691Y-112044653D01*
X118146023Y-112098294D01*
X118147715Y-112101613D01*
X118268028Y-112267213D01*
X118412786Y-112411971D01*
X118567749Y-112524556D01*
X118578390Y-112532287D01*
X118671080Y-112579515D01*
X118760776Y-112625218D01*
X118760778Y-112625218D01*
X118760781Y-112625220D01*
X118865137Y-112659127D01*
X118955465Y-112688477D01*
X118974697Y-112691523D01*
X119157648Y-112720500D01*
X119157649Y-112720500D01*
X119362351Y-112720500D01*
X119362352Y-112720500D01*
X119564534Y-112688477D01*
X119564539Y-112688475D01*
X119564541Y-112688475D01*
X119598180Y-112677545D01*
X119668021Y-112675548D01*
X119727854Y-112711628D01*
X119758684Y-112774328D01*
X119760500Y-112795475D01*
X119760500Y-115124524D01*
X119740815Y-115191563D01*
X119688011Y-115237318D01*
X119618853Y-115247262D01*
X119598183Y-115242455D01*
X119564542Y-115231524D01*
X119564535Y-115231523D01*
X119402816Y-115205909D01*
X119362352Y-115199500D01*
X119157648Y-115199500D01*
X119142249Y-115201939D01*
X118955465Y-115231522D01*
X118760776Y-115294781D01*
X118578386Y-115387715D01*
X118412786Y-115508028D01*
X118268028Y-115652786D01*
X118147715Y-115818386D01*
X118054781Y-116000776D01*
X117991522Y-116195465D01*
X117959500Y-116397648D01*
X117959500Y-116602351D01*
X117991522Y-116804534D01*
X118054781Y-116999223D01*
X118118691Y-117124653D01*
X118138539Y-117163606D01*
X118147715Y-117181613D01*
X118268028Y-117347213D01*
X118412786Y-117491971D01*
X118541070Y-117585173D01*
X118578390Y-117612287D01*
X118694607Y-117671503D01*
X118760776Y-117705218D01*
X118760778Y-117705218D01*
X118760781Y-117705220D01*
X118865137Y-117739127D01*
X118955465Y-117768477D01*
X119056557Y-117784488D01*
X119157648Y-117800500D01*
X119157649Y-117800500D01*
X119362351Y-117800500D01*
X119362352Y-117800500D01*
X119564534Y-117768477D01*
X119564539Y-117768475D01*
X119564541Y-117768475D01*
X119598180Y-117757545D01*
X119668021Y-117755548D01*
X119727854Y-117791628D01*
X119758684Y-117854328D01*
X119760500Y-117875475D01*
X119760500Y-121419664D01*
X119740815Y-121486703D01*
X119724181Y-121507345D01*
X119118345Y-122113181D01*
X119057022Y-122146666D01*
X119030664Y-122149500D01*
X114391571Y-122149500D01*
X114324532Y-122129815D01*
X114278777Y-122077011D01*
X114268833Y-122007853D01*
X114292305Y-121951189D01*
X114373793Y-121842335D01*
X114373792Y-121842335D01*
X114373796Y-121842331D01*
X114424091Y-121707483D01*
X114430500Y-121647873D01*
X114430499Y-119852128D01*
X114424091Y-119792517D01*
X114421737Y-119786206D01*
X114373797Y-119657671D01*
X114373793Y-119657664D01*
X114287547Y-119542455D01*
X114287544Y-119542452D01*
X114172335Y-119456206D01*
X114172328Y-119456202D01*
X114037482Y-119405908D01*
X114037483Y-119405908D01*
X113977883Y-119399501D01*
X113977881Y-119399500D01*
X113977873Y-119399500D01*
X113977864Y-119399500D01*
X112182129Y-119399500D01*
X112182123Y-119399501D01*
X112122516Y-119405908D01*
X111987671Y-119456202D01*
X111987664Y-119456206D01*
X111872455Y-119542452D01*
X111872452Y-119542455D01*
X111786206Y-119657664D01*
X111786202Y-119657671D01*
X111735908Y-119792517D01*
X111729501Y-119852116D01*
X111729501Y-119852123D01*
X111729500Y-119852135D01*
X111729500Y-121647870D01*
X111729501Y-121647876D01*
X111735908Y-121707483D01*
X111786202Y-121842328D01*
X111786206Y-121842335D01*
X111867695Y-121951189D01*
X111892113Y-122016653D01*
X111877262Y-122084926D01*
X111827857Y-122134332D01*
X111768429Y-122149500D01*
X108744555Y-122149500D01*
X108677516Y-122129815D01*
X108631761Y-122077011D01*
X108621817Y-122007853D01*
X108650842Y-121944297D01*
X108688261Y-121915015D01*
X108694796Y-121911684D01*
X108707816Y-121905051D01*
X108794138Y-121842335D01*
X108879786Y-121780109D01*
X108879788Y-121780106D01*
X108879792Y-121780104D01*
X109030104Y-121629792D01*
X109030106Y-121629788D01*
X109030109Y-121629786D01*
X109155048Y-121457820D01*
X109155047Y-121457820D01*
X109155051Y-121457816D01*
X109251557Y-121268412D01*
X109259384Y-121244319D01*
X109266370Y-121232919D01*
X109268482Y-121223212D01*
X109289628Y-121194962D01*
X109335858Y-121148733D01*
X109335860Y-121148729D01*
X112798729Y-117685860D01*
X112798733Y-117685858D01*
X112885858Y-117598733D01*
X112923545Y-117542331D01*
X112954312Y-117496286D01*
X112994904Y-117398286D01*
X113001463Y-117382452D01*
X113014433Y-117317246D01*
X113020957Y-117284450D01*
X113020957Y-117284444D01*
X113025500Y-117261609D01*
X113025500Y-110908796D01*
X113034385Y-110878534D01*
X113041530Y-110847818D01*
X113044154Y-110845267D01*
X113045185Y-110841757D01*
X113069014Y-110821108D01*
X113091637Y-110799124D01*
X113095224Y-110798397D01*
X113097989Y-110796002D01*
X113129196Y-110791514D01*
X113160115Y-110785251D01*
X113163525Y-110786578D01*
G37*
%TD.AperFunction*%
%TA.AperFunction,Conductor*%
G36*
X126633882Y-97917675D02*
G01*
X126656022Y-97935257D01*
X129054139Y-100333374D01*
X129054149Y-100333385D01*
X129058479Y-100337715D01*
X129058480Y-100337716D01*
X129170284Y-100449520D01*
X129228033Y-100482861D01*
X129307215Y-100528577D01*
X129459942Y-100569500D01*
X129459943Y-100569500D01*
X130795953Y-100569500D01*
X130862992Y-100589185D01*
X130883634Y-100605819D01*
X132762181Y-102484366D01*
X132795666Y-102545689D01*
X132798500Y-102572047D01*
X132798500Y-105152330D01*
X132798499Y-105152348D01*
X132798499Y-105318054D01*
X132798498Y-105318054D01*
X132798499Y-105318057D01*
X132839423Y-105470785D01*
X132868174Y-105520583D01*
X132868174Y-105520584D01*
X132918475Y-105607709D01*
X132918481Y-105607717D01*
X133037349Y-105726585D01*
X133037355Y-105726590D01*
X133205922Y-105895157D01*
X133239407Y-105956480D01*
X133236173Y-106021155D01*
X133231522Y-106035468D01*
X133210669Y-106167128D01*
X133199500Y-106237648D01*
X133199500Y-106442352D01*
X133213569Y-106531179D01*
X133231523Y-106644535D01*
X133231524Y-106644542D01*
X133242455Y-106678183D01*
X133244450Y-106748024D01*
X133208369Y-106807856D01*
X133145668Y-106838684D01*
X133124524Y-106840500D01*
X131950107Y-106840500D01*
X131883068Y-106820815D01*
X131837313Y-106768011D01*
X131827369Y-106698853D01*
X131839624Y-106660202D01*
X131845217Y-106649224D01*
X131845220Y-106649219D01*
X131908477Y-106454534D01*
X131940500Y-106252352D01*
X131940500Y-106047648D01*
X131918117Y-105906330D01*
X131908477Y-105845465D01*
X131865924Y-105714501D01*
X131845220Y-105650781D01*
X131845218Y-105650778D01*
X131845218Y-105650776D01*
X131778881Y-105520584D01*
X131752287Y-105468390D01*
X131717766Y-105420875D01*
X131631971Y-105302786D01*
X131487213Y-105158028D01*
X131321614Y-105037715D01*
X131315006Y-105034348D01*
X131228917Y-104990483D01*
X131178123Y-104942511D01*
X131161328Y-104874690D01*
X131183865Y-104808555D01*
X131228917Y-104769516D01*
X131321610Y-104722287D01*
X131374702Y-104683714D01*
X131487213Y-104601971D01*
X131487215Y-104601968D01*
X131487219Y-104601966D01*
X131631966Y-104457219D01*
X131631968Y-104457215D01*
X131631971Y-104457213D01*
X131684732Y-104384590D01*
X131752287Y-104291610D01*
X131845220Y-104109219D01*
X131908477Y-103914534D01*
X131940500Y-103712352D01*
X131940500Y-103507648D01*
X131916347Y-103355156D01*
X131908477Y-103305465D01*
X131864394Y-103169792D01*
X131845220Y-103110781D01*
X131845218Y-103110778D01*
X131845218Y-103110776D01*
X131802700Y-103027331D01*
X131752287Y-102928390D01*
X131702396Y-102859720D01*
X131631971Y-102762786D01*
X131487213Y-102618028D01*
X131321613Y-102497715D01*
X131321612Y-102497714D01*
X131321610Y-102497713D01*
X131257839Y-102465220D01*
X131139223Y-102404781D01*
X130944534Y-102341522D01*
X130769995Y-102313878D01*
X130742352Y-102309500D01*
X130537648Y-102309500D01*
X130513329Y-102313351D01*
X130335465Y-102341522D01*
X130140776Y-102404781D01*
X129958386Y-102497715D01*
X129792786Y-102618028D01*
X129648028Y-102762786D01*
X129527715Y-102928386D01*
X129434781Y-103110776D01*
X129371522Y-103305465D01*
X129339500Y-103507648D01*
X129339500Y-103712351D01*
X129371522Y-103914534D01*
X129434781Y-104109223D01*
X129527715Y-104291613D01*
X129648028Y-104457213D01*
X129792786Y-104601971D01*
X129947749Y-104714556D01*
X129958390Y-104722287D01*
X130029421Y-104758479D01*
X130051080Y-104769515D01*
X130101876Y-104817490D01*
X130118671Y-104885311D01*
X130096134Y-104951446D01*
X130051080Y-104990485D01*
X129958386Y-105037715D01*
X129792786Y-105158028D01*
X129648028Y-105302786D01*
X129527715Y-105468386D01*
X129434781Y-105650776D01*
X129371522Y-105845465D01*
X129339500Y-106047648D01*
X129339500Y-106252351D01*
X129371522Y-106454534D01*
X129396426Y-106531179D01*
X129433260Y-106644542D01*
X129434782Y-106649224D01*
X129440376Y-106660202D01*
X129453274Y-106728871D01*
X129427000Y-106793612D01*
X129369894Y-106833871D01*
X129329893Y-106840500D01*
X126477414Y-106840500D01*
X126410375Y-106820815D01*
X126364620Y-106768011D01*
X126354676Y-106698853D01*
X126359483Y-106678181D01*
X126368894Y-106649219D01*
X126419709Y-106492826D01*
X126427703Y-106442352D01*
X126450500Y-106298422D01*
X126450500Y-98071580D01*
X126445868Y-98042338D01*
X126454822Y-97973044D01*
X126499817Y-97919592D01*
X126566568Y-97898951D01*
X126633882Y-97917675D01*
G37*
%TD.AperFunction*%
%TA.AperFunction,Conductor*%
G36*
X122724703Y-97463623D02*
G01*
X122731181Y-97469655D01*
X123913181Y-98651655D01*
X123946666Y-98712978D01*
X123949500Y-98739336D01*
X123949500Y-102434451D01*
X123929815Y-102501490D01*
X123877011Y-102547245D01*
X123807853Y-102557189D01*
X123752615Y-102534770D01*
X123701609Y-102497712D01*
X123519223Y-102404781D01*
X123324534Y-102341522D01*
X123149995Y-102313878D01*
X123122352Y-102309500D01*
X122917648Y-102309500D01*
X122893329Y-102313351D01*
X122715465Y-102341522D01*
X122520776Y-102404781D01*
X122338386Y-102497715D01*
X122172786Y-102618028D01*
X122028028Y-102762786D01*
X121907714Y-102928386D01*
X121890216Y-102962727D01*
X121867414Y-102994110D01*
X120755327Y-104106197D01*
X120694004Y-104139682D01*
X120624312Y-104134698D01*
X120568379Y-104092826D01*
X120543962Y-104027362D01*
X120545172Y-103999122D01*
X120560500Y-103902352D01*
X120560500Y-103697648D01*
X120539582Y-103565581D01*
X120528478Y-103495472D01*
X120528477Y-103495471D01*
X120528477Y-103495466D01*
X120523825Y-103481151D01*
X120521832Y-103411312D01*
X120554075Y-103355158D01*
X122277506Y-101631728D01*
X122277511Y-101631724D01*
X122287714Y-101621520D01*
X122287716Y-101621520D01*
X122399520Y-101509716D01*
X122421256Y-101472068D01*
X122464084Y-101397888D01*
X122464085Y-101397886D01*
X122470121Y-101387431D01*
X122478577Y-101372785D01*
X122519501Y-101220057D01*
X122519501Y-101061943D01*
X122519501Y-101054348D01*
X122519500Y-101054330D01*
X122519500Y-97557336D01*
X122539185Y-97490297D01*
X122591989Y-97444542D01*
X122661147Y-97434598D01*
X122724703Y-97463623D01*
G37*
%TD.AperFunction*%
%TA.AperFunction,Conductor*%
G36*
X124525703Y-93265384D02*
G01*
X124532181Y-93271416D01*
X129054139Y-97793374D01*
X129054149Y-97793385D01*
X129058479Y-97797715D01*
X129058480Y-97797716D01*
X129170284Y-97909520D01*
X129228033Y-97942861D01*
X129307215Y-97988577D01*
X129459942Y-98029500D01*
X129459943Y-98029500D01*
X132908903Y-98029500D01*
X132975942Y-98049185D01*
X132996584Y-98065819D01*
X133205922Y-98275157D01*
X133239407Y-98336480D01*
X133236173Y-98401155D01*
X133231522Y-98415468D01*
X133199500Y-98617648D01*
X133199500Y-98822351D01*
X133231522Y-99024534D01*
X133294781Y-99219223D01*
X133387715Y-99401613D01*
X133508028Y-99567213D01*
X133652786Y-99711971D01*
X133807749Y-99824556D01*
X133818390Y-99832287D01*
X133909840Y-99878883D01*
X133911080Y-99879515D01*
X133961876Y-99927490D01*
X133978671Y-99995311D01*
X133956134Y-100061446D01*
X133911080Y-100100485D01*
X133818386Y-100147715D01*
X133652786Y-100268028D01*
X133508028Y-100412786D01*
X133387715Y-100578386D01*
X133294781Y-100760776D01*
X133231523Y-100955462D01*
X133228605Y-100973887D01*
X133198673Y-101037021D01*
X133139360Y-101073950D01*
X133069497Y-101072950D01*
X133018451Y-101042166D01*
X131583640Y-99607355D01*
X131583638Y-99607352D01*
X131464767Y-99488481D01*
X131464766Y-99488480D01*
X131377954Y-99438360D01*
X131377954Y-99438359D01*
X131377950Y-99438358D01*
X131327835Y-99409423D01*
X131175107Y-99368499D01*
X131016993Y-99368499D01*
X131009397Y-99368499D01*
X131009381Y-99368500D01*
X129839097Y-99368500D01*
X129772058Y-99348815D01*
X129751416Y-99332181D01*
X124314077Y-93894842D01*
X124280592Y-93833519D01*
X124283828Y-93768841D01*
X124288477Y-93754534D01*
X124320500Y-93552352D01*
X124320500Y-93359097D01*
X124340185Y-93292058D01*
X124392989Y-93246303D01*
X124462147Y-93236359D01*
X124525703Y-93265384D01*
G37*
%TD.AperFunction*%
%TA.AperFunction,Conductor*%
G36*
X124060181Y-69420185D02*
G01*
X124105936Y-69472989D01*
X124115880Y-69542147D01*
X124086855Y-69605703D01*
X124080823Y-69612181D01*
X123788481Y-69904522D01*
X123788479Y-69904524D01*
X123761951Y-69950473D01*
X123750738Y-69969896D01*
X123709423Y-70041455D01*
X123668499Y-70194183D01*
X123668499Y-70194185D01*
X123668499Y-70362286D01*
X123668500Y-70362299D01*
X123668500Y-70926662D01*
X123648815Y-70993701D01*
X123632181Y-71014343D01*
X121812181Y-72834343D01*
X121750858Y-72867828D01*
X121681166Y-72862844D01*
X121625233Y-72820972D01*
X121600816Y-72755508D01*
X121600500Y-72746662D01*
X121600500Y-71089060D01*
X121600501Y-71089047D01*
X121600501Y-70920944D01*
X121600501Y-70920943D01*
X121559577Y-70768216D01*
X121540144Y-70734557D01*
X121480524Y-70631290D01*
X121480518Y-70631282D01*
X120994654Y-70145418D01*
X120461415Y-69612180D01*
X120427931Y-69550858D01*
X120432915Y-69481166D01*
X120474787Y-69425233D01*
X120540251Y-69400816D01*
X120549097Y-69400500D01*
X123993142Y-69400500D01*
X124060181Y-69420185D01*
G37*
%TD.AperFunction*%
%TD*%
M02*
