%TF.GenerationSoftware,KiCad,Pcbnew,9.0.7-9.0.7~ubuntu24.04.1*%
%TF.CreationDate,2026-02-19T19:46:41+05:30*%
%TF.ProjectId,Arduino-nano-compatible-shield,41726475-696e-46f2-9d6e-616e6f2d636f,rev?*%
%TF.SameCoordinates,Original*%
%TF.FileFunction,Legend,Bot*%
%TF.FilePolarity,Positive*%
%FSLAX46Y46*%
G04 Gerber Fmt 4.6, Leading zero omitted, Abs format (unit mm)*
G04 Created by KiCad (PCBNEW 9.0.7-9.0.7~ubuntu24.04.1) date 2026-02-19 19:46:41*
%MOMM*%
%LPD*%
G01*
G04 APERTURE LIST*
%ADD10C,1.250000*%
G04 APERTURE END LIST*
D10*
X113110965Y-91111190D02*
X115015727Y-91111190D01*
X115015727Y-91111190D02*
X115968108Y-91587380D01*
X115968108Y-91587380D02*
X116444298Y-92063571D01*
X116444298Y-92063571D02*
X117396679Y-93492142D01*
X117396679Y-93492142D02*
X117872870Y-95396904D01*
X117872870Y-95396904D02*
X117872870Y-99206428D01*
X117872870Y-99206428D02*
X117396679Y-100158809D01*
X117396679Y-100158809D02*
X116920489Y-100635000D01*
X116920489Y-100635000D02*
X115968108Y-101111190D01*
X115968108Y-101111190D02*
X114063346Y-101111190D01*
X114063346Y-101111190D02*
X113110965Y-100635000D01*
X113110965Y-100635000D02*
X112634774Y-100158809D01*
X112634774Y-100158809D02*
X112158584Y-99206428D01*
X112158584Y-99206428D02*
X112158584Y-96825476D01*
X112158584Y-96825476D02*
X112634774Y-95873095D01*
X112634774Y-95873095D02*
X113110965Y-95396904D01*
X113110965Y-95396904D02*
X114063346Y-94920714D01*
X114063346Y-94920714D02*
X115968108Y-94920714D01*
X115968108Y-94920714D02*
X116920489Y-95396904D01*
X116920489Y-95396904D02*
X117396679Y-95873095D01*
X117396679Y-95873095D02*
X117872870Y-96825476D01*
X110549060Y-93311190D02*
X103882393Y-93311190D01*
X103882393Y-93311190D02*
X108168108Y-103311190D01*
X112636120Y-73679510D02*
X113112310Y-73679510D01*
X113112310Y-73679510D02*
X114064691Y-73203320D01*
X114064691Y-73203320D02*
X114540881Y-72727129D01*
X106921834Y-73203320D02*
X107398024Y-73679510D01*
X107398024Y-73679510D02*
X107874215Y-73203320D01*
X107874215Y-73203320D02*
X107398024Y-72727129D01*
X107398024Y-72727129D02*
X106921834Y-73203320D01*
X106921834Y-73203320D02*
X107874215Y-73203320D01*
X113112310Y-77965225D02*
X103112310Y-77965225D01*
X103112310Y-77965225D02*
X103112310Y-80346177D01*
X103112310Y-80346177D02*
X103588500Y-81774749D01*
X103588500Y-81774749D02*
X104540881Y-82727130D01*
X104540881Y-82727130D02*
X105493262Y-83203320D01*
X105493262Y-83203320D02*
X107398024Y-83679511D01*
X107398024Y-83679511D02*
X108826596Y-83679511D01*
X108826596Y-83679511D02*
X110731358Y-83203320D01*
X110731358Y-83203320D02*
X111683739Y-82727130D01*
X111683739Y-82727130D02*
X112636120Y-81774749D01*
X112636120Y-81774749D02*
X113112310Y-80346177D01*
X113112310Y-80346177D02*
X113112310Y-77965225D01*
X128735560Y-73679510D02*
X129211750Y-73679510D01*
X129211750Y-73679510D02*
X130164131Y-73203320D01*
X130164131Y-73203320D02*
X130640321Y-72727129D01*
X123021274Y-73203320D02*
X123497464Y-73679510D01*
X123497464Y-73679510D02*
X123973655Y-73203320D01*
X123973655Y-73203320D02*
X123497464Y-72727129D01*
X123497464Y-72727129D02*
X123021274Y-73203320D01*
X123021274Y-73203320D02*
X123973655Y-73203320D01*
X133021274Y-77012844D02*
X132545083Y-77489034D01*
X132545083Y-77489034D02*
X131116512Y-78441415D01*
X131116512Y-78441415D02*
X130164131Y-78917606D01*
X130164131Y-78917606D02*
X128735560Y-79393796D01*
X128735560Y-79393796D02*
X126354607Y-79869987D01*
X126354607Y-79869987D02*
X124449845Y-79869987D01*
X124449845Y-79869987D02*
X122068893Y-79393796D01*
X122068893Y-79393796D02*
X120640321Y-78917606D01*
X120640321Y-78917606D02*
X119687940Y-78441415D01*
X119687940Y-78441415D02*
X118259369Y-77489034D01*
X118259369Y-77489034D02*
X117783179Y-77012844D01*
X144835000Y-73679510D02*
X145311190Y-73679510D01*
X145311190Y-73679510D02*
X146263571Y-73203320D01*
X146263571Y-73203320D02*
X146739761Y-72727129D01*
X139120714Y-73203320D02*
X139596904Y-73679510D01*
X139596904Y-73679510D02*
X140073095Y-73203320D01*
X140073095Y-73203320D02*
X139596904Y-72727129D01*
X139596904Y-72727129D02*
X139120714Y-73203320D01*
X139120714Y-73203320D02*
X140073095Y-73203320D01*
X145311190Y-77965225D02*
X135311190Y-77965225D01*
X135311190Y-77965225D02*
X135311190Y-80346177D01*
X135311190Y-80346177D02*
X135787380Y-81774749D01*
X135787380Y-81774749D02*
X136739761Y-82727130D01*
X136739761Y-82727130D02*
X137692142Y-83203320D01*
X137692142Y-83203320D02*
X139596904Y-83679511D01*
X139596904Y-83679511D02*
X141025476Y-83679511D01*
X141025476Y-83679511D02*
X142930238Y-83203320D01*
X142930238Y-83203320D02*
X143882619Y-82727130D01*
X143882619Y-82727130D02*
X144835000Y-81774749D01*
X144835000Y-81774749D02*
X145311190Y-80346177D01*
X145311190Y-80346177D02*
X145311190Y-77965225D01*
X153787155Y-112873375D02*
X153787155Y-107873375D01*
X153787155Y-107873375D02*
X152596679Y-107873375D01*
X152596679Y-107873375D02*
X151882393Y-108111470D01*
X151882393Y-108111470D02*
X151406203Y-108587660D01*
X151406203Y-108587660D02*
X151168108Y-109063851D01*
X151168108Y-109063851D02*
X150930012Y-110016232D01*
X150930012Y-110016232D02*
X150930012Y-110730518D01*
X150930012Y-110730518D02*
X151168108Y-111682899D01*
X151168108Y-111682899D02*
X151406203Y-112159089D01*
X151406203Y-112159089D02*
X151882393Y-112635280D01*
X151882393Y-112635280D02*
X152596679Y-112873375D01*
X152596679Y-112873375D02*
X153787155Y-112873375D01*
X146882393Y-112635280D02*
X147358584Y-112873375D01*
X147358584Y-112873375D02*
X148310965Y-112873375D01*
X148310965Y-112873375D02*
X148787155Y-112635280D01*
X148787155Y-112635280D02*
X149025251Y-112159089D01*
X149025251Y-112159089D02*
X149025251Y-110254327D01*
X149025251Y-110254327D02*
X148787155Y-109778137D01*
X148787155Y-109778137D02*
X148310965Y-109540041D01*
X148310965Y-109540041D02*
X147358584Y-109540041D01*
X147358584Y-109540041D02*
X146882393Y-109778137D01*
X146882393Y-109778137D02*
X146644298Y-110254327D01*
X146644298Y-110254327D02*
X146644298Y-110730518D01*
X146644298Y-110730518D02*
X149025251Y-111206708D01*
X144739537Y-112635280D02*
X144263346Y-112873375D01*
X144263346Y-112873375D02*
X143310965Y-112873375D01*
X143310965Y-112873375D02*
X142834775Y-112635280D01*
X142834775Y-112635280D02*
X142596679Y-112159089D01*
X142596679Y-112159089D02*
X142596679Y-111920994D01*
X142596679Y-111920994D02*
X142834775Y-111444803D01*
X142834775Y-111444803D02*
X143310965Y-111206708D01*
X143310965Y-111206708D02*
X144025251Y-111206708D01*
X144025251Y-111206708D02*
X144501441Y-110968613D01*
X144501441Y-110968613D02*
X144739537Y-110492422D01*
X144739537Y-110492422D02*
X144739537Y-110254327D01*
X144739537Y-110254327D02*
X144501441Y-109778137D01*
X144501441Y-109778137D02*
X144025251Y-109540041D01*
X144025251Y-109540041D02*
X143310965Y-109540041D01*
X143310965Y-109540041D02*
X142834775Y-109778137D01*
X140453822Y-112873375D02*
X140453822Y-109540041D01*
X140453822Y-107873375D02*
X140691918Y-108111470D01*
X140691918Y-108111470D02*
X140453822Y-108349565D01*
X140453822Y-108349565D02*
X140215727Y-108111470D01*
X140215727Y-108111470D02*
X140453822Y-107873375D01*
X140453822Y-107873375D02*
X140453822Y-108349565D01*
X135930013Y-109540041D02*
X135930013Y-113587660D01*
X135930013Y-113587660D02*
X136168108Y-114063851D01*
X136168108Y-114063851D02*
X136406204Y-114301946D01*
X136406204Y-114301946D02*
X136882394Y-114540041D01*
X136882394Y-114540041D02*
X137596680Y-114540041D01*
X137596680Y-114540041D02*
X138072870Y-114301946D01*
X135930013Y-112635280D02*
X136406204Y-112873375D01*
X136406204Y-112873375D02*
X137358585Y-112873375D01*
X137358585Y-112873375D02*
X137834775Y-112635280D01*
X137834775Y-112635280D02*
X138072870Y-112397184D01*
X138072870Y-112397184D02*
X138310966Y-111920994D01*
X138310966Y-111920994D02*
X138310966Y-110492422D01*
X138310966Y-110492422D02*
X138072870Y-110016232D01*
X138072870Y-110016232D02*
X137834775Y-109778137D01*
X137834775Y-109778137D02*
X137358585Y-109540041D01*
X137358585Y-109540041D02*
X136406204Y-109540041D01*
X136406204Y-109540041D02*
X135930013Y-109778137D01*
X133549060Y-109540041D02*
X133549060Y-112873375D01*
X133549060Y-110016232D02*
X133310965Y-109778137D01*
X133310965Y-109778137D02*
X132834775Y-109540041D01*
X132834775Y-109540041D02*
X132120489Y-109540041D01*
X132120489Y-109540041D02*
X131644298Y-109778137D01*
X131644298Y-109778137D02*
X131406203Y-110254327D01*
X131406203Y-110254327D02*
X131406203Y-112873375D01*
X127120488Y-112635280D02*
X127596679Y-112873375D01*
X127596679Y-112873375D02*
X128549060Y-112873375D01*
X128549060Y-112873375D02*
X129025250Y-112635280D01*
X129025250Y-112635280D02*
X129263346Y-112159089D01*
X129263346Y-112159089D02*
X129263346Y-110254327D01*
X129263346Y-110254327D02*
X129025250Y-109778137D01*
X129025250Y-109778137D02*
X128549060Y-109540041D01*
X128549060Y-109540041D02*
X127596679Y-109540041D01*
X127596679Y-109540041D02*
X127120488Y-109778137D01*
X127120488Y-109778137D02*
X126882393Y-110254327D01*
X126882393Y-110254327D02*
X126882393Y-110730518D01*
X126882393Y-110730518D02*
X129263346Y-111206708D01*
X122596679Y-112873375D02*
X122596679Y-107873375D01*
X122596679Y-112635280D02*
X123072870Y-112873375D01*
X123072870Y-112873375D02*
X124025251Y-112873375D01*
X124025251Y-112873375D02*
X124501441Y-112635280D01*
X124501441Y-112635280D02*
X124739536Y-112397184D01*
X124739536Y-112397184D02*
X124977632Y-111920994D01*
X124977632Y-111920994D02*
X124977632Y-110492422D01*
X124977632Y-110492422D02*
X124739536Y-110016232D01*
X124739536Y-110016232D02*
X124501441Y-109778137D01*
X124501441Y-109778137D02*
X124025251Y-109540041D01*
X124025251Y-109540041D02*
X123072870Y-109540041D01*
X123072870Y-109540041D02*
X122596679Y-109778137D01*
X116406202Y-112873375D02*
X116406202Y-107873375D01*
X116406202Y-109778137D02*
X115930012Y-109540041D01*
X115930012Y-109540041D02*
X114977631Y-109540041D01*
X114977631Y-109540041D02*
X114501440Y-109778137D01*
X114501440Y-109778137D02*
X114263345Y-110016232D01*
X114263345Y-110016232D02*
X114025250Y-110492422D01*
X114025250Y-110492422D02*
X114025250Y-111920994D01*
X114025250Y-111920994D02*
X114263345Y-112397184D01*
X114263345Y-112397184D02*
X114501440Y-112635280D01*
X114501440Y-112635280D02*
X114977631Y-112873375D01*
X114977631Y-112873375D02*
X115930012Y-112873375D01*
X115930012Y-112873375D02*
X116406202Y-112635280D01*
X112358583Y-109540041D02*
X111168107Y-112873375D01*
X109977630Y-109540041D02*
X111168107Y-112873375D01*
X111168107Y-112873375D02*
X111644297Y-114063851D01*
X111644297Y-114063851D02*
X111882392Y-114301946D01*
X111882392Y-114301946D02*
X112358583Y-114540041D01*
X108072868Y-110968613D02*
X104263345Y-110968613D01*
X151644298Y-120923095D02*
X151644298Y-118304047D01*
X151644298Y-118304047D02*
X151882393Y-117827857D01*
X151882393Y-117827857D02*
X152358584Y-117589761D01*
X152358584Y-117589761D02*
X153310965Y-117589761D01*
X153310965Y-117589761D02*
X153787155Y-117827857D01*
X151644298Y-120685000D02*
X152120489Y-120923095D01*
X152120489Y-120923095D02*
X153310965Y-120923095D01*
X153310965Y-120923095D02*
X153787155Y-120685000D01*
X153787155Y-120685000D02*
X154025251Y-120208809D01*
X154025251Y-120208809D02*
X154025251Y-119732619D01*
X154025251Y-119732619D02*
X153787155Y-119256428D01*
X153787155Y-119256428D02*
X153310965Y-119018333D01*
X153310965Y-119018333D02*
X152120489Y-119018333D01*
X152120489Y-119018333D02*
X151644298Y-118780238D01*
X149263345Y-120923095D02*
X149263345Y-117589761D01*
X149263345Y-118542142D02*
X149025250Y-118065952D01*
X149025250Y-118065952D02*
X148787155Y-117827857D01*
X148787155Y-117827857D02*
X148310964Y-117589761D01*
X148310964Y-117589761D02*
X147834774Y-117589761D01*
X146644298Y-117589761D02*
X145453822Y-120923095D01*
X144263345Y-117589761D02*
X145453822Y-120923095D01*
X145453822Y-120923095D02*
X145930012Y-122113571D01*
X145930012Y-122113571D02*
X146168107Y-122351666D01*
X146168107Y-122351666D02*
X146644298Y-122589761D01*
X140215726Y-120923095D02*
X140215726Y-118304047D01*
X140215726Y-118304047D02*
X140453821Y-117827857D01*
X140453821Y-117827857D02*
X140930012Y-117589761D01*
X140930012Y-117589761D02*
X141882393Y-117589761D01*
X141882393Y-117589761D02*
X142358583Y-117827857D01*
X140215726Y-120685000D02*
X140691917Y-120923095D01*
X140691917Y-120923095D02*
X141882393Y-120923095D01*
X141882393Y-120923095D02*
X142358583Y-120685000D01*
X142358583Y-120685000D02*
X142596679Y-120208809D01*
X142596679Y-120208809D02*
X142596679Y-119732619D01*
X142596679Y-119732619D02*
X142358583Y-119256428D01*
X142358583Y-119256428D02*
X141882393Y-119018333D01*
X141882393Y-119018333D02*
X140691917Y-119018333D01*
X140691917Y-119018333D02*
X140215726Y-118780238D01*
X137834773Y-117589761D02*
X137834773Y-120923095D01*
X137834773Y-118065952D02*
X137596678Y-117827857D01*
X137596678Y-117827857D02*
X137120488Y-117589761D01*
X137120488Y-117589761D02*
X136406202Y-117589761D01*
X136406202Y-117589761D02*
X135930011Y-117827857D01*
X135930011Y-117827857D02*
X135691916Y-118304047D01*
X135691916Y-118304047D02*
X135691916Y-120923095D01*
X133310963Y-119018333D02*
X129501440Y-119018333D01*
X124977630Y-117589761D02*
X124977630Y-121637380D01*
X124977630Y-121637380D02*
X125215725Y-122113571D01*
X125215725Y-122113571D02*
X125453821Y-122351666D01*
X125453821Y-122351666D02*
X125930011Y-122589761D01*
X125930011Y-122589761D02*
X126644297Y-122589761D01*
X126644297Y-122589761D02*
X127120487Y-122351666D01*
X124977630Y-120685000D02*
X125453821Y-120923095D01*
X125453821Y-120923095D02*
X126406202Y-120923095D01*
X126406202Y-120923095D02*
X126882392Y-120685000D01*
X126882392Y-120685000D02*
X127120487Y-120446904D01*
X127120487Y-120446904D02*
X127358583Y-119970714D01*
X127358583Y-119970714D02*
X127358583Y-118542142D01*
X127358583Y-118542142D02*
X127120487Y-118065952D01*
X127120487Y-118065952D02*
X126882392Y-117827857D01*
X126882392Y-117827857D02*
X126406202Y-117589761D01*
X126406202Y-117589761D02*
X125453821Y-117589761D01*
X125453821Y-117589761D02*
X124977630Y-117827857D01*
X122596677Y-120923095D02*
X122596677Y-117589761D01*
X122596677Y-115923095D02*
X122834773Y-116161190D01*
X122834773Y-116161190D02*
X122596677Y-116399285D01*
X122596677Y-116399285D02*
X122358582Y-116161190D01*
X122358582Y-116161190D02*
X122596677Y-115923095D01*
X122596677Y-115923095D02*
X122596677Y-116399285D01*
X120930011Y-117589761D02*
X119025249Y-117589761D01*
X120215725Y-115923095D02*
X120215725Y-120208809D01*
X120215725Y-120208809D02*
X119977630Y-120685000D01*
X119977630Y-120685000D02*
X119501440Y-120923095D01*
X119501440Y-120923095D02*
X119025249Y-120923095D01*
X117358582Y-119018333D02*
X113549059Y-119018333D01*
X111168106Y-120923095D02*
X111168106Y-115923095D01*
X111168106Y-117827857D02*
X110691916Y-117589761D01*
X110691916Y-117589761D02*
X109739535Y-117589761D01*
X109739535Y-117589761D02*
X109263344Y-117827857D01*
X109263344Y-117827857D02*
X109025249Y-118065952D01*
X109025249Y-118065952D02*
X108787154Y-118542142D01*
X108787154Y-118542142D02*
X108787154Y-119970714D01*
X108787154Y-119970714D02*
X109025249Y-120446904D01*
X109025249Y-120446904D02*
X109263344Y-120685000D01*
X109263344Y-120685000D02*
X109739535Y-120923095D01*
X109739535Y-120923095D02*
X110691916Y-120923095D01*
X110691916Y-120923095D02*
X111168106Y-120685000D01*
X107120487Y-117589761D02*
X105930011Y-120923095D01*
X104739534Y-117589761D02*
X105930011Y-120923095D01*
X105930011Y-120923095D02*
X106406201Y-122113571D01*
X106406201Y-122113571D02*
X106644296Y-122351666D01*
X106644296Y-122351666D02*
X107120487Y-122589761D01*
X103549058Y-117589761D02*
X101644296Y-117589761D01*
X102834772Y-115923095D02*
X102834772Y-120208809D01*
X102834772Y-120208809D02*
X102596677Y-120685000D01*
X102596677Y-120685000D02*
X102120487Y-120923095D01*
X102120487Y-120923095D02*
X101644296Y-120923095D01*
X98072867Y-120685000D02*
X98549058Y-120923095D01*
X98549058Y-120923095D02*
X99501439Y-120923095D01*
X99501439Y-120923095D02*
X99977629Y-120685000D01*
X99977629Y-120685000D02*
X100215725Y-120208809D01*
X100215725Y-120208809D02*
X100215725Y-118304047D01*
X100215725Y-118304047D02*
X99977629Y-117827857D01*
X99977629Y-117827857D02*
X99501439Y-117589761D01*
X99501439Y-117589761D02*
X98549058Y-117589761D01*
X98549058Y-117589761D02*
X98072867Y-117827857D01*
X98072867Y-117827857D02*
X97834772Y-118304047D01*
X97834772Y-118304047D02*
X97834772Y-118780238D01*
X97834772Y-118780238D02*
X100215725Y-119256428D01*
X147158584Y-90187380D02*
X148110965Y-89711190D01*
X148110965Y-89711190D02*
X149539536Y-89711190D01*
X149539536Y-89711190D02*
X150968108Y-90187380D01*
X150968108Y-90187380D02*
X151920489Y-91139761D01*
X151920489Y-91139761D02*
X152396679Y-92092142D01*
X152396679Y-92092142D02*
X152872870Y-93996904D01*
X152872870Y-93996904D02*
X152872870Y-95425476D01*
X152872870Y-95425476D02*
X152396679Y-97330238D01*
X152396679Y-97330238D02*
X151920489Y-98282619D01*
X151920489Y-98282619D02*
X150968108Y-99235000D01*
X150968108Y-99235000D02*
X149539536Y-99711190D01*
X149539536Y-99711190D02*
X148587155Y-99711190D01*
X148587155Y-99711190D02*
X147158584Y-99235000D01*
X147158584Y-99235000D02*
X146682393Y-98758809D01*
X146682393Y-98758809D02*
X146682393Y-95425476D01*
X146682393Y-95425476D02*
X148587155Y-95425476D01*
X137158584Y-90187380D02*
X138110965Y-89711190D01*
X138110965Y-89711190D02*
X139539536Y-89711190D01*
X139539536Y-89711190D02*
X140968108Y-90187380D01*
X140968108Y-90187380D02*
X141920489Y-91139761D01*
X141920489Y-91139761D02*
X142396679Y-92092142D01*
X142396679Y-92092142D02*
X142872870Y-93996904D01*
X142872870Y-93996904D02*
X142872870Y-95425476D01*
X142872870Y-95425476D02*
X142396679Y-97330238D01*
X142396679Y-97330238D02*
X141920489Y-98282619D01*
X141920489Y-98282619D02*
X140968108Y-99235000D01*
X140968108Y-99235000D02*
X139539536Y-99711190D01*
X139539536Y-99711190D02*
X138587155Y-99711190D01*
X138587155Y-99711190D02*
X137158584Y-99235000D01*
X137158584Y-99235000D02*
X136682393Y-98758809D01*
X136682393Y-98758809D02*
X136682393Y-95425476D01*
X136682393Y-95425476D02*
X138587155Y-95425476D01*
M02*
